%TF.GenerationSoftware,KiCad,Pcbnew,8.0.7*%
%TF.CreationDate,2025-03-15T06:07:22+02:00*%
%TF.ProjectId,power_supply,706f7765-725f-4737-9570-706c792e6b69,v1.0*%
%TF.SameCoordinates,Original*%
%TF.FileFunction,Legend,Top*%
%TF.FilePolarity,Positive*%
%FSLAX46Y46*%
G04 Gerber Fmt 4.6, Leading zero omitted, Abs format (unit mm)*
G04 Created by KiCad (PCBNEW 8.0.7) date 2025-03-15 06:07:22*
%MOMM*%
%LPD*%
G01*
G04 APERTURE LIST*
%ADD10C,0.100000*%
%ADD11C,0.150000*%
%ADD12C,0.120000*%
%ADD13C,0.127000*%
%ADD14C,0.200000*%
%ADD15C,0.000000*%
G04 APERTURE END LIST*
D10*
X183322306Y-63716361D02*
X183417544Y-63763980D01*
X183417544Y-63763980D02*
X183560401Y-63763980D01*
X183560401Y-63763980D02*
X183703258Y-63716361D01*
X183703258Y-63716361D02*
X183798496Y-63621123D01*
X183798496Y-63621123D02*
X183846115Y-63525885D01*
X183846115Y-63525885D02*
X183893734Y-63335409D01*
X183893734Y-63335409D02*
X183893734Y-63192552D01*
X183893734Y-63192552D02*
X183846115Y-63002076D01*
X183846115Y-63002076D02*
X183798496Y-62906838D01*
X183798496Y-62906838D02*
X183703258Y-62811600D01*
X183703258Y-62811600D02*
X183560401Y-62763980D01*
X183560401Y-62763980D02*
X183465163Y-62763980D01*
X183465163Y-62763980D02*
X183322306Y-62811600D01*
X183322306Y-62811600D02*
X183274687Y-62859219D01*
X183274687Y-62859219D02*
X183274687Y-63192552D01*
X183274687Y-63192552D02*
X183465163Y-63192552D01*
X182846115Y-62763980D02*
X182846115Y-63763980D01*
X182846115Y-63763980D02*
X182274687Y-62763980D01*
X182274687Y-62763980D02*
X182274687Y-63763980D01*
X181798496Y-62763980D02*
X181798496Y-63763980D01*
X181798496Y-63763980D02*
X181560401Y-63763980D01*
X181560401Y-63763980D02*
X181417544Y-63716361D01*
X181417544Y-63716361D02*
X181322306Y-63621123D01*
X181322306Y-63621123D02*
X181274687Y-63525885D01*
X181274687Y-63525885D02*
X181227068Y-63335409D01*
X181227068Y-63335409D02*
X181227068Y-63192552D01*
X181227068Y-63192552D02*
X181274687Y-63002076D01*
X181274687Y-63002076D02*
X181322306Y-62906838D01*
X181322306Y-62906838D02*
X181417544Y-62811600D01*
X181417544Y-62811600D02*
X181560401Y-62763980D01*
X181560401Y-62763980D02*
X181798496Y-62763980D01*
X189475372Y-63662380D02*
X189142039Y-62662380D01*
X189142039Y-62662380D02*
X188808706Y-63662380D01*
X187903944Y-62757619D02*
X187951563Y-62710000D01*
X187951563Y-62710000D02*
X188094420Y-62662380D01*
X188094420Y-62662380D02*
X188189658Y-62662380D01*
X188189658Y-62662380D02*
X188332515Y-62710000D01*
X188332515Y-62710000D02*
X188427753Y-62805238D01*
X188427753Y-62805238D02*
X188475372Y-62900476D01*
X188475372Y-62900476D02*
X188522991Y-63090952D01*
X188522991Y-63090952D02*
X188522991Y-63233809D01*
X188522991Y-63233809D02*
X188475372Y-63424285D01*
X188475372Y-63424285D02*
X188427753Y-63519523D01*
X188427753Y-63519523D02*
X188332515Y-63614761D01*
X188332515Y-63614761D02*
X188189658Y-63662380D01*
X188189658Y-63662380D02*
X188094420Y-63662380D01*
X188094420Y-63662380D02*
X187951563Y-63614761D01*
X187951563Y-63614761D02*
X187903944Y-63567142D01*
X186903944Y-62757619D02*
X186951563Y-62710000D01*
X186951563Y-62710000D02*
X187094420Y-62662380D01*
X187094420Y-62662380D02*
X187189658Y-62662380D01*
X187189658Y-62662380D02*
X187332515Y-62710000D01*
X187332515Y-62710000D02*
X187427753Y-62805238D01*
X187427753Y-62805238D02*
X187475372Y-62900476D01*
X187475372Y-62900476D02*
X187522991Y-63090952D01*
X187522991Y-63090952D02*
X187522991Y-63233809D01*
X187522991Y-63233809D02*
X187475372Y-63424285D01*
X187475372Y-63424285D02*
X187427753Y-63519523D01*
X187427753Y-63519523D02*
X187332515Y-63614761D01*
X187332515Y-63614761D02*
X187189658Y-63662380D01*
X187189658Y-63662380D02*
X187094420Y-63662380D01*
X187094420Y-63662380D02*
X186951563Y-63614761D01*
X186951563Y-63614761D02*
X186903944Y-63567142D01*
X157098419Y-80249106D02*
X157098419Y-80820534D01*
X157098419Y-80534820D02*
X156098419Y-80534820D01*
X156098419Y-80534820D02*
X156241276Y-80630058D01*
X156241276Y-80630058D02*
X156336514Y-80725296D01*
X156336514Y-80725296D02*
X156384133Y-80820534D01*
X156193657Y-79868153D02*
X156146038Y-79820534D01*
X156146038Y-79820534D02*
X156098419Y-79725296D01*
X156098419Y-79725296D02*
X156098419Y-79487201D01*
X156098419Y-79487201D02*
X156146038Y-79391963D01*
X156146038Y-79391963D02*
X156193657Y-79344344D01*
X156193657Y-79344344D02*
X156288895Y-79296725D01*
X156288895Y-79296725D02*
X156384133Y-79296725D01*
X156384133Y-79296725D02*
X156526990Y-79344344D01*
X156526990Y-79344344D02*
X157098419Y-79915772D01*
X157098419Y-79915772D02*
X157098419Y-79296725D01*
X156098419Y-79011010D02*
X157098419Y-78677677D01*
X157098419Y-78677677D02*
X156098419Y-78344344D01*
X141081239Y-62834985D02*
X141081239Y-63584985D01*
X140724096Y-63334985D02*
X140724096Y-62834985D01*
X140724096Y-63263557D02*
X140688382Y-63299271D01*
X140688382Y-63299271D02*
X140616953Y-63334985D01*
X140616953Y-63334985D02*
X140509810Y-63334985D01*
X140509810Y-63334985D02*
X140438382Y-63299271D01*
X140438382Y-63299271D02*
X140402668Y-63227842D01*
X140402668Y-63227842D02*
X140402668Y-62834985D01*
X140045525Y-63334985D02*
X140045525Y-62584985D01*
X140045525Y-63299271D02*
X139974097Y-63334985D01*
X139974097Y-63334985D02*
X139831239Y-63334985D01*
X139831239Y-63334985D02*
X139759811Y-63299271D01*
X139759811Y-63299271D02*
X139724097Y-63263557D01*
X139724097Y-63263557D02*
X139688382Y-63192128D01*
X139688382Y-63192128D02*
X139688382Y-62977842D01*
X139688382Y-62977842D02*
X139724097Y-62906414D01*
X139724097Y-62906414D02*
X139759811Y-62870700D01*
X139759811Y-62870700D02*
X139831239Y-62834985D01*
X139831239Y-62834985D02*
X139974097Y-62834985D01*
X139974097Y-62834985D02*
X140045525Y-62870700D01*
X139045526Y-63334985D02*
X139045526Y-62834985D01*
X139366954Y-63334985D02*
X139366954Y-62942128D01*
X139366954Y-62942128D02*
X139331240Y-62870700D01*
X139331240Y-62870700D02*
X139259811Y-62834985D01*
X139259811Y-62834985D02*
X139152668Y-62834985D01*
X139152668Y-62834985D02*
X139081240Y-62870700D01*
X139081240Y-62870700D02*
X139045526Y-62906414D01*
X138795526Y-63334985D02*
X138509812Y-63334985D01*
X138688383Y-63584985D02*
X138688383Y-62942128D01*
X138688383Y-62942128D02*
X138652669Y-62870700D01*
X138652669Y-62870700D02*
X138581240Y-62834985D01*
X138581240Y-62834985D02*
X138509812Y-62834985D01*
X137795526Y-63584985D02*
X137545526Y-62834985D01*
X137545526Y-62834985D02*
X137295526Y-63584985D01*
X136938383Y-62834985D02*
X137009812Y-62870700D01*
X137009812Y-62870700D02*
X137045526Y-62906414D01*
X137045526Y-62906414D02*
X137081240Y-62977842D01*
X137081240Y-62977842D02*
X137081240Y-63192128D01*
X137081240Y-63192128D02*
X137045526Y-63263557D01*
X137045526Y-63263557D02*
X137009812Y-63299271D01*
X137009812Y-63299271D02*
X136938383Y-63334985D01*
X136938383Y-63334985D02*
X136831240Y-63334985D01*
X136831240Y-63334985D02*
X136759812Y-63299271D01*
X136759812Y-63299271D02*
X136724098Y-63263557D01*
X136724098Y-63263557D02*
X136688383Y-63192128D01*
X136688383Y-63192128D02*
X136688383Y-62977842D01*
X136688383Y-62977842D02*
X136724098Y-62906414D01*
X136724098Y-62906414D02*
X136759812Y-62870700D01*
X136759812Y-62870700D02*
X136831240Y-62834985D01*
X136831240Y-62834985D02*
X136938383Y-62834985D01*
X136259812Y-62834985D02*
X136331241Y-62870700D01*
X136331241Y-62870700D02*
X136366955Y-62942128D01*
X136366955Y-62942128D02*
X136366955Y-63584985D01*
X136081241Y-63334985D02*
X135795527Y-63334985D01*
X135974098Y-63584985D02*
X135974098Y-62942128D01*
X135974098Y-62942128D02*
X135938384Y-62870700D01*
X135938384Y-62870700D02*
X135866955Y-62834985D01*
X135866955Y-62834985D02*
X135795527Y-62834985D01*
X135224099Y-62834985D02*
X135224099Y-63227842D01*
X135224099Y-63227842D02*
X135259813Y-63299271D01*
X135259813Y-63299271D02*
X135331241Y-63334985D01*
X135331241Y-63334985D02*
X135474099Y-63334985D01*
X135474099Y-63334985D02*
X135545527Y-63299271D01*
X135224099Y-62870700D02*
X135295527Y-62834985D01*
X135295527Y-62834985D02*
X135474099Y-62834985D01*
X135474099Y-62834985D02*
X135545527Y-62870700D01*
X135545527Y-62870700D02*
X135581241Y-62942128D01*
X135581241Y-62942128D02*
X135581241Y-63013557D01*
X135581241Y-63013557D02*
X135545527Y-63084985D01*
X135545527Y-63084985D02*
X135474099Y-63120700D01*
X135474099Y-63120700D02*
X135295527Y-63120700D01*
X135295527Y-63120700D02*
X135224099Y-63156414D01*
X134545528Y-63334985D02*
X134545528Y-62727842D01*
X134545528Y-62727842D02*
X134581242Y-62656414D01*
X134581242Y-62656414D02*
X134616956Y-62620700D01*
X134616956Y-62620700D02*
X134688385Y-62584985D01*
X134688385Y-62584985D02*
X134795528Y-62584985D01*
X134795528Y-62584985D02*
X134866956Y-62620700D01*
X134545528Y-62870700D02*
X134616956Y-62834985D01*
X134616956Y-62834985D02*
X134759813Y-62834985D01*
X134759813Y-62834985D02*
X134831242Y-62870700D01*
X134831242Y-62870700D02*
X134866956Y-62906414D01*
X134866956Y-62906414D02*
X134902670Y-62977842D01*
X134902670Y-62977842D02*
X134902670Y-63192128D01*
X134902670Y-63192128D02*
X134866956Y-63263557D01*
X134866956Y-63263557D02*
X134831242Y-63299271D01*
X134831242Y-63299271D02*
X134759813Y-63334985D01*
X134759813Y-63334985D02*
X134616956Y-63334985D01*
X134616956Y-63334985D02*
X134545528Y-63299271D01*
X133902671Y-62870700D02*
X133974099Y-62834985D01*
X133974099Y-62834985D02*
X134116957Y-62834985D01*
X134116957Y-62834985D02*
X134188385Y-62870700D01*
X134188385Y-62870700D02*
X134224099Y-62942128D01*
X134224099Y-62942128D02*
X134224099Y-63227842D01*
X134224099Y-63227842D02*
X134188385Y-63299271D01*
X134188385Y-63299271D02*
X134116957Y-63334985D01*
X134116957Y-63334985D02*
X133974099Y-63334985D01*
X133974099Y-63334985D02*
X133902671Y-63299271D01*
X133902671Y-63299271D02*
X133866957Y-63227842D01*
X133866957Y-63227842D02*
X133866957Y-63156414D01*
X133866957Y-63156414D02*
X134224099Y-63084985D01*
X182343274Y-78462452D02*
X182033750Y-78462452D01*
X182033750Y-78462452D02*
X182002798Y-78771976D01*
X182002798Y-78771976D02*
X182033750Y-78741023D01*
X182033750Y-78741023D02*
X182095655Y-78710071D01*
X182095655Y-78710071D02*
X182250417Y-78710071D01*
X182250417Y-78710071D02*
X182312322Y-78741023D01*
X182312322Y-78741023D02*
X182343274Y-78771976D01*
X182343274Y-78771976D02*
X182374227Y-78833880D01*
X182374227Y-78833880D02*
X182374227Y-78988642D01*
X182374227Y-78988642D02*
X182343274Y-79050547D01*
X182343274Y-79050547D02*
X182312322Y-79081500D01*
X182312322Y-79081500D02*
X182250417Y-79112452D01*
X182250417Y-79112452D02*
X182095655Y-79112452D01*
X182095655Y-79112452D02*
X182033750Y-79081500D01*
X182033750Y-79081500D02*
X182002798Y-79050547D01*
X182559941Y-78462452D02*
X182776608Y-79112452D01*
X182776608Y-79112452D02*
X182993275Y-78462452D01*
X173092420Y-68232895D02*
X173092420Y-66899561D01*
X173092420Y-68042419D02*
X172997182Y-68137657D01*
X172997182Y-68137657D02*
X172806706Y-68232895D01*
X172806706Y-68232895D02*
X172520991Y-68232895D01*
X172520991Y-68232895D02*
X172330515Y-68137657D01*
X172330515Y-68137657D02*
X172235277Y-67947180D01*
X172235277Y-67947180D02*
X172235277Y-66899561D01*
X170997182Y-66899561D02*
X171187658Y-66994800D01*
X171187658Y-66994800D02*
X171282896Y-67090038D01*
X171282896Y-67090038D02*
X171378134Y-67280514D01*
X171378134Y-67280514D02*
X171378134Y-67851942D01*
X171378134Y-67851942D02*
X171282896Y-68042419D01*
X171282896Y-68042419D02*
X171187658Y-68137657D01*
X171187658Y-68137657D02*
X170997182Y-68232895D01*
X170997182Y-68232895D02*
X170711467Y-68232895D01*
X170711467Y-68232895D02*
X170520991Y-68137657D01*
X170520991Y-68137657D02*
X170425753Y-68042419D01*
X170425753Y-68042419D02*
X170330515Y-67851942D01*
X170330515Y-67851942D02*
X170330515Y-67280514D01*
X170330515Y-67280514D02*
X170425753Y-67090038D01*
X170425753Y-67090038D02*
X170520991Y-66994800D01*
X170520991Y-66994800D02*
X170711467Y-66899561D01*
X170711467Y-66899561D02*
X170997182Y-66899561D01*
X168616229Y-68232895D02*
X168616229Y-66899561D01*
X169473372Y-68232895D02*
X169473372Y-67185276D01*
X169473372Y-67185276D02*
X169378134Y-66994800D01*
X169378134Y-66994800D02*
X169187658Y-66899561D01*
X169187658Y-66899561D02*
X168901943Y-66899561D01*
X168901943Y-66899561D02*
X168711467Y-66994800D01*
X168711467Y-66994800D02*
X168616229Y-67090038D01*
X167663848Y-66899561D02*
X167663848Y-68232895D01*
X167663848Y-67851942D02*
X167568610Y-68042419D01*
X167568610Y-68042419D02*
X167473372Y-68137657D01*
X167473372Y-68137657D02*
X167282896Y-68232895D01*
X167282896Y-68232895D02*
X167092419Y-68232895D01*
X164901943Y-66899561D02*
X164901943Y-68232895D01*
X164901943Y-68042419D02*
X164806705Y-68137657D01*
X164806705Y-68137657D02*
X164616229Y-68232895D01*
X164616229Y-68232895D02*
X164330514Y-68232895D01*
X164330514Y-68232895D02*
X164140038Y-68137657D01*
X164140038Y-68137657D02*
X164044800Y-67947180D01*
X164044800Y-67947180D02*
X164044800Y-66899561D01*
X164044800Y-67947180D02*
X163949562Y-68137657D01*
X163949562Y-68137657D02*
X163759086Y-68232895D01*
X163759086Y-68232895D02*
X163473372Y-68232895D01*
X163473372Y-68232895D02*
X163282895Y-68137657D01*
X163282895Y-68137657D02*
X163187657Y-67947180D01*
X163187657Y-67947180D02*
X163187657Y-66899561D01*
X161949562Y-66899561D02*
X162140038Y-66994800D01*
X162140038Y-66994800D02*
X162235276Y-67090038D01*
X162235276Y-67090038D02*
X162330514Y-67280514D01*
X162330514Y-67280514D02*
X162330514Y-67851942D01*
X162330514Y-67851942D02*
X162235276Y-68042419D01*
X162235276Y-68042419D02*
X162140038Y-68137657D01*
X162140038Y-68137657D02*
X161949562Y-68232895D01*
X161949562Y-68232895D02*
X161663847Y-68232895D01*
X161663847Y-68232895D02*
X161473371Y-68137657D01*
X161473371Y-68137657D02*
X161378133Y-68042419D01*
X161378133Y-68042419D02*
X161282895Y-67851942D01*
X161282895Y-67851942D02*
X161282895Y-67280514D01*
X161282895Y-67280514D02*
X161378133Y-67090038D01*
X161378133Y-67090038D02*
X161473371Y-66994800D01*
X161473371Y-66994800D02*
X161663847Y-66899561D01*
X161663847Y-66899561D02*
X161949562Y-66899561D01*
X160425752Y-66899561D02*
X160425752Y-68899561D01*
X159568609Y-66899561D02*
X159568609Y-67947180D01*
X159568609Y-67947180D02*
X159663847Y-68137657D01*
X159663847Y-68137657D02*
X159854323Y-68232895D01*
X159854323Y-68232895D02*
X160140038Y-68232895D01*
X160140038Y-68232895D02*
X160330514Y-68137657D01*
X160330514Y-68137657D02*
X160425752Y-68042419D01*
X157759085Y-66899561D02*
X157759085Y-67947180D01*
X157759085Y-67947180D02*
X157854323Y-68137657D01*
X157854323Y-68137657D02*
X158044799Y-68232895D01*
X158044799Y-68232895D02*
X158425752Y-68232895D01*
X158425752Y-68232895D02*
X158616228Y-68137657D01*
X157759085Y-66994800D02*
X157949561Y-66899561D01*
X157949561Y-66899561D02*
X158425752Y-66899561D01*
X158425752Y-66899561D02*
X158616228Y-66994800D01*
X158616228Y-66994800D02*
X158711466Y-67185276D01*
X158711466Y-67185276D02*
X158711466Y-67375752D01*
X158711466Y-67375752D02*
X158616228Y-67566228D01*
X158616228Y-67566228D02*
X158425752Y-67661466D01*
X158425752Y-67661466D02*
X157949561Y-67661466D01*
X157949561Y-67661466D02*
X157759085Y-67756704D01*
X156806704Y-66899561D02*
X156806704Y-68232895D01*
X156806704Y-68042419D02*
X156711466Y-68137657D01*
X156711466Y-68137657D02*
X156520990Y-68232895D01*
X156520990Y-68232895D02*
X156235275Y-68232895D01*
X156235275Y-68232895D02*
X156044799Y-68137657D01*
X156044799Y-68137657D02*
X155949561Y-67947180D01*
X155949561Y-67947180D02*
X155949561Y-66899561D01*
X155949561Y-67947180D02*
X155854323Y-68137657D01*
X155854323Y-68137657D02*
X155663847Y-68232895D01*
X155663847Y-68232895D02*
X155378133Y-68232895D01*
X155378133Y-68232895D02*
X155187656Y-68137657D01*
X155187656Y-68137657D02*
X155092418Y-67947180D01*
X155092418Y-67947180D02*
X155092418Y-66899561D01*
X153378132Y-66994800D02*
X153568608Y-66899561D01*
X153568608Y-66899561D02*
X153949561Y-66899561D01*
X153949561Y-66899561D02*
X154140037Y-66994800D01*
X154140037Y-66994800D02*
X154235275Y-67185276D01*
X154235275Y-67185276D02*
X154235275Y-67947180D01*
X154235275Y-67947180D02*
X154140037Y-68137657D01*
X154140037Y-68137657D02*
X153949561Y-68232895D01*
X153949561Y-68232895D02*
X153568608Y-68232895D01*
X153568608Y-68232895D02*
X153378132Y-68137657D01*
X153378132Y-68137657D02*
X153282894Y-67947180D01*
X153282894Y-67947180D02*
X153282894Y-67756704D01*
X153282894Y-67756704D02*
X154235275Y-67566228D01*
X151568608Y-66899561D02*
X151568608Y-68899561D01*
X151568608Y-66994800D02*
X151759084Y-66899561D01*
X151759084Y-66899561D02*
X152140037Y-66899561D01*
X152140037Y-66899561D02*
X152330513Y-66994800D01*
X152330513Y-66994800D02*
X152425751Y-67090038D01*
X152425751Y-67090038D02*
X152520989Y-67280514D01*
X152520989Y-67280514D02*
X152520989Y-67851942D01*
X152520989Y-67851942D02*
X152425751Y-68042419D01*
X152425751Y-68042419D02*
X152330513Y-68137657D01*
X152330513Y-68137657D02*
X152140037Y-68232895D01*
X152140037Y-68232895D02*
X151759084Y-68232895D01*
X151759084Y-68232895D02*
X151568608Y-68137657D01*
X167218706Y-64440380D02*
X167790134Y-64440380D01*
X167504420Y-64440380D02*
X167504420Y-65440380D01*
X167504420Y-65440380D02*
X167599658Y-65297523D01*
X167599658Y-65297523D02*
X167694896Y-65202285D01*
X167694896Y-65202285D02*
X167790134Y-65154666D01*
X166361563Y-65107047D02*
X166361563Y-64440380D01*
X166599658Y-65488000D02*
X166837753Y-64773714D01*
X166837753Y-64773714D02*
X166218706Y-64773714D01*
X165932991Y-65440380D02*
X165266325Y-65440380D01*
X165266325Y-65440380D02*
X165694896Y-64440380D01*
X164980610Y-65440380D02*
X164361563Y-65440380D01*
X164361563Y-65440380D02*
X164694896Y-65059428D01*
X164694896Y-65059428D02*
X164552039Y-65059428D01*
X164552039Y-65059428D02*
X164456801Y-65011809D01*
X164456801Y-65011809D02*
X164409182Y-64964190D01*
X164409182Y-64964190D02*
X164361563Y-64868952D01*
X164361563Y-64868952D02*
X164361563Y-64630857D01*
X164361563Y-64630857D02*
X164409182Y-64535619D01*
X164409182Y-64535619D02*
X164456801Y-64488000D01*
X164456801Y-64488000D02*
X164552039Y-64440380D01*
X164552039Y-64440380D02*
X164837753Y-64440380D01*
X164837753Y-64440380D02*
X164932991Y-64488000D01*
X164932991Y-64488000D02*
X164980610Y-64535619D01*
X163409182Y-64440380D02*
X163980610Y-64440380D01*
X163694896Y-64440380D02*
X163694896Y-65440380D01*
X163694896Y-65440380D02*
X163790134Y-65297523D01*
X163790134Y-65297523D02*
X163885372Y-65202285D01*
X163885372Y-65202285D02*
X163980610Y-65154666D01*
X162790134Y-65440380D02*
X162694896Y-65440380D01*
X162694896Y-65440380D02*
X162599658Y-65392761D01*
X162599658Y-65392761D02*
X162552039Y-65345142D01*
X162552039Y-65345142D02*
X162504420Y-65249904D01*
X162504420Y-65249904D02*
X162456801Y-65059428D01*
X162456801Y-65059428D02*
X162456801Y-64821333D01*
X162456801Y-64821333D02*
X162504420Y-64630857D01*
X162504420Y-64630857D02*
X162552039Y-64535619D01*
X162552039Y-64535619D02*
X162599658Y-64488000D01*
X162599658Y-64488000D02*
X162694896Y-64440380D01*
X162694896Y-64440380D02*
X162790134Y-64440380D01*
X162790134Y-64440380D02*
X162885372Y-64488000D01*
X162885372Y-64488000D02*
X162932991Y-64535619D01*
X162932991Y-64535619D02*
X162980610Y-64630857D01*
X162980610Y-64630857D02*
X163028229Y-64821333D01*
X163028229Y-64821333D02*
X163028229Y-65059428D01*
X163028229Y-65059428D02*
X162980610Y-65249904D01*
X162980610Y-65249904D02*
X162932991Y-65345142D01*
X162932991Y-65345142D02*
X162885372Y-65392761D01*
X162885372Y-65392761D02*
X162790134Y-65440380D01*
X161504420Y-64440380D02*
X162075848Y-64440380D01*
X161790134Y-64440380D02*
X161790134Y-65440380D01*
X161790134Y-65440380D02*
X161885372Y-65297523D01*
X161885372Y-65297523D02*
X161980610Y-65202285D01*
X161980610Y-65202285D02*
X162075848Y-65154666D01*
X161123467Y-65345142D02*
X161075848Y-65392761D01*
X161075848Y-65392761D02*
X160980610Y-65440380D01*
X160980610Y-65440380D02*
X160742515Y-65440380D01*
X160742515Y-65440380D02*
X160647277Y-65392761D01*
X160647277Y-65392761D02*
X160599658Y-65345142D01*
X160599658Y-65345142D02*
X160552039Y-65249904D01*
X160552039Y-65249904D02*
X160552039Y-65154666D01*
X160552039Y-65154666D02*
X160599658Y-65011809D01*
X160599658Y-65011809D02*
X161171086Y-64440380D01*
X161171086Y-64440380D02*
X160552039Y-64440380D01*
X159647277Y-65440380D02*
X160123467Y-65440380D01*
X160123467Y-65440380D02*
X160171086Y-64964190D01*
X160171086Y-64964190D02*
X160123467Y-65011809D01*
X160123467Y-65011809D02*
X160028229Y-65059428D01*
X160028229Y-65059428D02*
X159790134Y-65059428D01*
X159790134Y-65059428D02*
X159694896Y-65011809D01*
X159694896Y-65011809D02*
X159647277Y-64964190D01*
X159647277Y-64964190D02*
X159599658Y-64868952D01*
X159599658Y-64868952D02*
X159599658Y-64630857D01*
X159599658Y-64630857D02*
X159647277Y-64535619D01*
X159647277Y-64535619D02*
X159694896Y-64488000D01*
X159694896Y-64488000D02*
X159790134Y-64440380D01*
X159790134Y-64440380D02*
X160028229Y-64440380D01*
X160028229Y-64440380D02*
X160123467Y-64488000D01*
X160123467Y-64488000D02*
X160171086Y-64535619D01*
X158647277Y-64440380D02*
X159218705Y-64440380D01*
X158932991Y-64440380D02*
X158932991Y-65440380D01*
X158932991Y-65440380D02*
X159028229Y-65297523D01*
X159028229Y-65297523D02*
X159123467Y-65202285D01*
X159123467Y-65202285D02*
X159218705Y-65154666D01*
X158266324Y-65345142D02*
X158218705Y-65392761D01*
X158218705Y-65392761D02*
X158123467Y-65440380D01*
X158123467Y-65440380D02*
X157885372Y-65440380D01*
X157885372Y-65440380D02*
X157790134Y-65392761D01*
X157790134Y-65392761D02*
X157742515Y-65345142D01*
X157742515Y-65345142D02*
X157694896Y-65249904D01*
X157694896Y-65249904D02*
X157694896Y-65154666D01*
X157694896Y-65154666D02*
X157742515Y-65011809D01*
X157742515Y-65011809D02*
X158313943Y-64440380D01*
X158313943Y-64440380D02*
X157694896Y-64440380D01*
X157075848Y-65440380D02*
X156980610Y-65440380D01*
X156980610Y-65440380D02*
X156885372Y-65392761D01*
X156885372Y-65392761D02*
X156837753Y-65345142D01*
X156837753Y-65345142D02*
X156790134Y-65249904D01*
X156790134Y-65249904D02*
X156742515Y-65059428D01*
X156742515Y-65059428D02*
X156742515Y-64821333D01*
X156742515Y-64821333D02*
X156790134Y-64630857D01*
X156790134Y-64630857D02*
X156837753Y-64535619D01*
X156837753Y-64535619D02*
X156885372Y-64488000D01*
X156885372Y-64488000D02*
X156980610Y-64440380D01*
X156980610Y-64440380D02*
X157075848Y-64440380D01*
X157075848Y-64440380D02*
X157171086Y-64488000D01*
X157171086Y-64488000D02*
X157218705Y-64535619D01*
X157218705Y-64535619D02*
X157266324Y-64630857D01*
X157266324Y-64630857D02*
X157313943Y-64821333D01*
X157313943Y-64821333D02*
X157313943Y-65059428D01*
X157313943Y-65059428D02*
X157266324Y-65249904D01*
X157266324Y-65249904D02*
X157218705Y-65345142D01*
X157218705Y-65345142D02*
X157171086Y-65392761D01*
X157171086Y-65392761D02*
X157075848Y-65440380D01*
X156409181Y-65440380D02*
X155790134Y-65440380D01*
X155790134Y-65440380D02*
X156123467Y-65059428D01*
X156123467Y-65059428D02*
X155980610Y-65059428D01*
X155980610Y-65059428D02*
X155885372Y-65011809D01*
X155885372Y-65011809D02*
X155837753Y-64964190D01*
X155837753Y-64964190D02*
X155790134Y-64868952D01*
X155790134Y-64868952D02*
X155790134Y-64630857D01*
X155790134Y-64630857D02*
X155837753Y-64535619D01*
X155837753Y-64535619D02*
X155885372Y-64488000D01*
X155885372Y-64488000D02*
X155980610Y-64440380D01*
X155980610Y-64440380D02*
X156266324Y-64440380D01*
X156266324Y-64440380D02*
X156361562Y-64488000D01*
X156361562Y-64488000D02*
X156409181Y-64535619D01*
X179228646Y-78462452D02*
X179631027Y-78462452D01*
X179631027Y-78462452D02*
X179414360Y-78710071D01*
X179414360Y-78710071D02*
X179507217Y-78710071D01*
X179507217Y-78710071D02*
X179569122Y-78741023D01*
X179569122Y-78741023D02*
X179600074Y-78771976D01*
X179600074Y-78771976D02*
X179631027Y-78833880D01*
X179631027Y-78833880D02*
X179631027Y-78988642D01*
X179631027Y-78988642D02*
X179600074Y-79050547D01*
X179600074Y-79050547D02*
X179569122Y-79081500D01*
X179569122Y-79081500D02*
X179507217Y-79112452D01*
X179507217Y-79112452D02*
X179321503Y-79112452D01*
X179321503Y-79112452D02*
X179259598Y-79081500D01*
X179259598Y-79081500D02*
X179228646Y-79050547D01*
X179909598Y-79050547D02*
X179940551Y-79081500D01*
X179940551Y-79081500D02*
X179909598Y-79112452D01*
X179909598Y-79112452D02*
X179878646Y-79081500D01*
X179878646Y-79081500D02*
X179909598Y-79050547D01*
X179909598Y-79050547D02*
X179909598Y-79112452D01*
X180157218Y-78462452D02*
X180559599Y-78462452D01*
X180559599Y-78462452D02*
X180342932Y-78710071D01*
X180342932Y-78710071D02*
X180435789Y-78710071D01*
X180435789Y-78710071D02*
X180497694Y-78741023D01*
X180497694Y-78741023D02*
X180528646Y-78771976D01*
X180528646Y-78771976D02*
X180559599Y-78833880D01*
X180559599Y-78833880D02*
X180559599Y-78988642D01*
X180559599Y-78988642D02*
X180528646Y-79050547D01*
X180528646Y-79050547D02*
X180497694Y-79081500D01*
X180497694Y-79081500D02*
X180435789Y-79112452D01*
X180435789Y-79112452D02*
X180250075Y-79112452D01*
X180250075Y-79112452D02*
X180188170Y-79081500D01*
X180188170Y-79081500D02*
X180157218Y-79050547D01*
X180745313Y-78462452D02*
X180961980Y-79112452D01*
X180961980Y-79112452D02*
X181178647Y-78462452D01*
X156142857Y-76350134D02*
X156095238Y-76302515D01*
X156095238Y-76302515D02*
X156047619Y-76207277D01*
X156047619Y-76207277D02*
X156047619Y-75969182D01*
X156047619Y-75969182D02*
X156095238Y-75873944D01*
X156095238Y-75873944D02*
X156142857Y-75826325D01*
X156142857Y-75826325D02*
X156238095Y-75778706D01*
X156238095Y-75778706D02*
X156333333Y-75778706D01*
X156333333Y-75778706D02*
X156476190Y-75826325D01*
X156476190Y-75826325D02*
X157047619Y-76397753D01*
X157047619Y-76397753D02*
X157047619Y-75778706D01*
X156142857Y-75397753D02*
X156095238Y-75350134D01*
X156095238Y-75350134D02*
X156047619Y-75254896D01*
X156047619Y-75254896D02*
X156047619Y-75016801D01*
X156047619Y-75016801D02*
X156095238Y-74921563D01*
X156095238Y-74921563D02*
X156142857Y-74873944D01*
X156142857Y-74873944D02*
X156238095Y-74826325D01*
X156238095Y-74826325D02*
X156333333Y-74826325D01*
X156333333Y-74826325D02*
X156476190Y-74873944D01*
X156476190Y-74873944D02*
X157047619Y-75445372D01*
X157047619Y-75445372D02*
X157047619Y-74826325D01*
X156047619Y-74207277D02*
X156047619Y-74112039D01*
X156047619Y-74112039D02*
X156095238Y-74016801D01*
X156095238Y-74016801D02*
X156142857Y-73969182D01*
X156142857Y-73969182D02*
X156238095Y-73921563D01*
X156238095Y-73921563D02*
X156428571Y-73873944D01*
X156428571Y-73873944D02*
X156666666Y-73873944D01*
X156666666Y-73873944D02*
X156857142Y-73921563D01*
X156857142Y-73921563D02*
X156952380Y-73969182D01*
X156952380Y-73969182D02*
X157000000Y-74016801D01*
X157000000Y-74016801D02*
X157047619Y-74112039D01*
X157047619Y-74112039D02*
X157047619Y-74207277D01*
X157047619Y-74207277D02*
X157000000Y-74302515D01*
X157000000Y-74302515D02*
X156952380Y-74350134D01*
X156952380Y-74350134D02*
X156857142Y-74397753D01*
X156857142Y-74397753D02*
X156666666Y-74445372D01*
X156666666Y-74445372D02*
X156428571Y-74445372D01*
X156428571Y-74445372D02*
X156238095Y-74397753D01*
X156238095Y-74397753D02*
X156142857Y-74350134D01*
X156142857Y-74350134D02*
X156095238Y-74302515D01*
X156095238Y-74302515D02*
X156047619Y-74207277D01*
X156047619Y-73588229D02*
X157047619Y-73254896D01*
X157047619Y-73254896D02*
X156047619Y-72921563D01*
D11*
X158672305Y-87424419D02*
X158672305Y-86424419D01*
X158672305Y-86424419D02*
X158910400Y-86424419D01*
X158910400Y-86424419D02*
X159053257Y-86472038D01*
X159053257Y-86472038D02*
X159148495Y-86567276D01*
X159148495Y-86567276D02*
X159196114Y-86662514D01*
X159196114Y-86662514D02*
X159243733Y-86852990D01*
X159243733Y-86852990D02*
X159243733Y-86995847D01*
X159243733Y-86995847D02*
X159196114Y-87186323D01*
X159196114Y-87186323D02*
X159148495Y-87281561D01*
X159148495Y-87281561D02*
X159053257Y-87376800D01*
X159053257Y-87376800D02*
X158910400Y-87424419D01*
X158910400Y-87424419D02*
X158672305Y-87424419D01*
X160196114Y-87424419D02*
X159624686Y-87424419D01*
X159910400Y-87424419D02*
X159910400Y-86424419D01*
X159910400Y-86424419D02*
X159815162Y-86567276D01*
X159815162Y-86567276D02*
X159719924Y-86662514D01*
X159719924Y-86662514D02*
X159624686Y-86710133D01*
X168258733Y-81943180D02*
X168211114Y-81990800D01*
X168211114Y-81990800D02*
X168068257Y-82038419D01*
X168068257Y-82038419D02*
X167973019Y-82038419D01*
X167973019Y-82038419D02*
X167830162Y-81990800D01*
X167830162Y-81990800D02*
X167734924Y-81895561D01*
X167734924Y-81895561D02*
X167687305Y-81800323D01*
X167687305Y-81800323D02*
X167639686Y-81609847D01*
X167639686Y-81609847D02*
X167639686Y-81466990D01*
X167639686Y-81466990D02*
X167687305Y-81276514D01*
X167687305Y-81276514D02*
X167734924Y-81181276D01*
X167734924Y-81181276D02*
X167830162Y-81086038D01*
X167830162Y-81086038D02*
X167973019Y-81038419D01*
X167973019Y-81038419D02*
X168068257Y-81038419D01*
X168068257Y-81038419D02*
X168211114Y-81086038D01*
X168211114Y-81086038D02*
X168258733Y-81133657D01*
X168639686Y-81133657D02*
X168687305Y-81086038D01*
X168687305Y-81086038D02*
X168782543Y-81038419D01*
X168782543Y-81038419D02*
X169020638Y-81038419D01*
X169020638Y-81038419D02*
X169115876Y-81086038D01*
X169115876Y-81086038D02*
X169163495Y-81133657D01*
X169163495Y-81133657D02*
X169211114Y-81228895D01*
X169211114Y-81228895D02*
X169211114Y-81324133D01*
X169211114Y-81324133D02*
X169163495Y-81466990D01*
X169163495Y-81466990D02*
X168592067Y-82038419D01*
X168592067Y-82038419D02*
X169211114Y-82038419D01*
X175550533Y-85410019D02*
X175217200Y-84933828D01*
X174979105Y-85410019D02*
X174979105Y-84410019D01*
X174979105Y-84410019D02*
X175360057Y-84410019D01*
X175360057Y-84410019D02*
X175455295Y-84457638D01*
X175455295Y-84457638D02*
X175502914Y-84505257D01*
X175502914Y-84505257D02*
X175550533Y-84600495D01*
X175550533Y-84600495D02*
X175550533Y-84743352D01*
X175550533Y-84743352D02*
X175502914Y-84838590D01*
X175502914Y-84838590D02*
X175455295Y-84886209D01*
X175455295Y-84886209D02*
X175360057Y-84933828D01*
X175360057Y-84933828D02*
X174979105Y-84933828D01*
X175931486Y-84505257D02*
X175979105Y-84457638D01*
X175979105Y-84457638D02*
X176074343Y-84410019D01*
X176074343Y-84410019D02*
X176312438Y-84410019D01*
X176312438Y-84410019D02*
X176407676Y-84457638D01*
X176407676Y-84457638D02*
X176455295Y-84505257D01*
X176455295Y-84505257D02*
X176502914Y-84600495D01*
X176502914Y-84600495D02*
X176502914Y-84695733D01*
X176502914Y-84695733D02*
X176455295Y-84838590D01*
X176455295Y-84838590D02*
X175883867Y-85410019D01*
X175883867Y-85410019D02*
X176502914Y-85410019D01*
X178285619Y-77346133D02*
X178999904Y-77346133D01*
X178999904Y-77346133D02*
X179142761Y-77393752D01*
X179142761Y-77393752D02*
X179238000Y-77488990D01*
X179238000Y-77488990D02*
X179285619Y-77631847D01*
X179285619Y-77631847D02*
X179285619Y-77727085D01*
X178380857Y-76917561D02*
X178333238Y-76869942D01*
X178333238Y-76869942D02*
X178285619Y-76774704D01*
X178285619Y-76774704D02*
X178285619Y-76536609D01*
X178285619Y-76536609D02*
X178333238Y-76441371D01*
X178333238Y-76441371D02*
X178380857Y-76393752D01*
X178380857Y-76393752D02*
X178476095Y-76346133D01*
X178476095Y-76346133D02*
X178571333Y-76346133D01*
X178571333Y-76346133D02*
X178714190Y-76393752D01*
X178714190Y-76393752D02*
X179285619Y-76965180D01*
X179285619Y-76965180D02*
X179285619Y-76346133D01*
X177514019Y-82702304D02*
X178323542Y-82702304D01*
X178323542Y-82702304D02*
X178418780Y-82654685D01*
X178418780Y-82654685D02*
X178466400Y-82607066D01*
X178466400Y-82607066D02*
X178514019Y-82511828D01*
X178514019Y-82511828D02*
X178514019Y-82321352D01*
X178514019Y-82321352D02*
X178466400Y-82226114D01*
X178466400Y-82226114D02*
X178418780Y-82178495D01*
X178418780Y-82178495D02*
X178323542Y-82130876D01*
X178323542Y-82130876D02*
X177514019Y-82130876D01*
X177609257Y-81702304D02*
X177561638Y-81654685D01*
X177561638Y-81654685D02*
X177514019Y-81559447D01*
X177514019Y-81559447D02*
X177514019Y-81321352D01*
X177514019Y-81321352D02*
X177561638Y-81226114D01*
X177561638Y-81226114D02*
X177609257Y-81178495D01*
X177609257Y-81178495D02*
X177704495Y-81130876D01*
X177704495Y-81130876D02*
X177799733Y-81130876D01*
X177799733Y-81130876D02*
X177942590Y-81178495D01*
X177942590Y-81178495D02*
X178514019Y-81749923D01*
X178514019Y-81749923D02*
X178514019Y-81130876D01*
X174202333Y-81892380D02*
X174154714Y-81940000D01*
X174154714Y-81940000D02*
X174011857Y-81987619D01*
X174011857Y-81987619D02*
X173916619Y-81987619D01*
X173916619Y-81987619D02*
X173773762Y-81940000D01*
X173773762Y-81940000D02*
X173678524Y-81844761D01*
X173678524Y-81844761D02*
X173630905Y-81749523D01*
X173630905Y-81749523D02*
X173583286Y-81559047D01*
X173583286Y-81559047D02*
X173583286Y-81416190D01*
X173583286Y-81416190D02*
X173630905Y-81225714D01*
X173630905Y-81225714D02*
X173678524Y-81130476D01*
X173678524Y-81130476D02*
X173773762Y-81035238D01*
X173773762Y-81035238D02*
X173916619Y-80987619D01*
X173916619Y-80987619D02*
X174011857Y-80987619D01*
X174011857Y-80987619D02*
X174154714Y-81035238D01*
X174154714Y-81035238D02*
X174202333Y-81082857D01*
X175154714Y-81987619D02*
X174583286Y-81987619D01*
X174869000Y-81987619D02*
X174869000Y-80987619D01*
X174869000Y-80987619D02*
X174773762Y-81130476D01*
X174773762Y-81130476D02*
X174678524Y-81225714D01*
X174678524Y-81225714D02*
X174583286Y-81273333D01*
X172872495Y-101038819D02*
X172872495Y-100038819D01*
X172872495Y-100515009D02*
X173443923Y-100515009D01*
X173443923Y-101038819D02*
X173443923Y-100038819D01*
X173824876Y-100038819D02*
X174443923Y-100038819D01*
X174443923Y-100038819D02*
X174110590Y-100419771D01*
X174110590Y-100419771D02*
X174253447Y-100419771D01*
X174253447Y-100419771D02*
X174348685Y-100467390D01*
X174348685Y-100467390D02*
X174396304Y-100515009D01*
X174396304Y-100515009D02*
X174443923Y-100610247D01*
X174443923Y-100610247D02*
X174443923Y-100848342D01*
X174443923Y-100848342D02*
X174396304Y-100943580D01*
X174396304Y-100943580D02*
X174348685Y-100991200D01*
X174348685Y-100991200D02*
X174253447Y-101038819D01*
X174253447Y-101038819D02*
X173967733Y-101038819D01*
X173967733Y-101038819D02*
X173872495Y-100991200D01*
X173872495Y-100991200D02*
X173824876Y-100943580D01*
X131314319Y-69816133D02*
X132028604Y-69816133D01*
X132028604Y-69816133D02*
X132171461Y-69863752D01*
X132171461Y-69863752D02*
X132266700Y-69958990D01*
X132266700Y-69958990D02*
X132314319Y-70101847D01*
X132314319Y-70101847D02*
X132314319Y-70197085D01*
X131314319Y-69435180D02*
X131314319Y-68816133D01*
X131314319Y-68816133D02*
X131695271Y-69149466D01*
X131695271Y-69149466D02*
X131695271Y-69006609D01*
X131695271Y-69006609D02*
X131742890Y-68911371D01*
X131742890Y-68911371D02*
X131790509Y-68863752D01*
X131790509Y-68863752D02*
X131885747Y-68816133D01*
X131885747Y-68816133D02*
X132123842Y-68816133D01*
X132123842Y-68816133D02*
X132219080Y-68863752D01*
X132219080Y-68863752D02*
X132266700Y-68911371D01*
X132266700Y-68911371D02*
X132314319Y-69006609D01*
X132314319Y-69006609D02*
X132314319Y-69292323D01*
X132314319Y-69292323D02*
X132266700Y-69387561D01*
X132266700Y-69387561D02*
X132219080Y-69435180D01*
X159248619Y-95199104D02*
X160058142Y-95199104D01*
X160058142Y-95199104D02*
X160153380Y-95151485D01*
X160153380Y-95151485D02*
X160201000Y-95103866D01*
X160201000Y-95103866D02*
X160248619Y-95008628D01*
X160248619Y-95008628D02*
X160248619Y-94818152D01*
X160248619Y-94818152D02*
X160201000Y-94722914D01*
X160201000Y-94722914D02*
X160153380Y-94675295D01*
X160153380Y-94675295D02*
X160058142Y-94627676D01*
X160058142Y-94627676D02*
X159248619Y-94627676D01*
X160248619Y-93627676D02*
X160248619Y-94199104D01*
X160248619Y-93913390D02*
X159248619Y-93913390D01*
X159248619Y-93913390D02*
X159391476Y-94008628D01*
X159391476Y-94008628D02*
X159486714Y-94103866D01*
X159486714Y-94103866D02*
X159534333Y-94199104D01*
X156925941Y-90236418D02*
X156925941Y-89436274D01*
X158326193Y-89836346D02*
X156925941Y-89836346D01*
X158326193Y-88236058D02*
X158326193Y-89036202D01*
X158326193Y-88636130D02*
X156925941Y-88636130D01*
X156925941Y-88636130D02*
X157125977Y-88769487D01*
X157125977Y-88769487D02*
X157259335Y-88902845D01*
X157259335Y-88902845D02*
X157326013Y-89036202D01*
X168825819Y-103201694D02*
X167825819Y-103201694D01*
X167825819Y-103201694D02*
X167825819Y-102963599D01*
X167825819Y-102963599D02*
X167873438Y-102820742D01*
X167873438Y-102820742D02*
X167968676Y-102725504D01*
X167968676Y-102725504D02*
X168063914Y-102677885D01*
X168063914Y-102677885D02*
X168254390Y-102630266D01*
X168254390Y-102630266D02*
X168397247Y-102630266D01*
X168397247Y-102630266D02*
X168587723Y-102677885D01*
X168587723Y-102677885D02*
X168682961Y-102725504D01*
X168682961Y-102725504D02*
X168778200Y-102820742D01*
X168778200Y-102820742D02*
X168825819Y-102963599D01*
X168825819Y-102963599D02*
X168825819Y-103201694D01*
X167921057Y-102249313D02*
X167873438Y-102201694D01*
X167873438Y-102201694D02*
X167825819Y-102106456D01*
X167825819Y-102106456D02*
X167825819Y-101868361D01*
X167825819Y-101868361D02*
X167873438Y-101773123D01*
X167873438Y-101773123D02*
X167921057Y-101725504D01*
X167921057Y-101725504D02*
X168016295Y-101677885D01*
X168016295Y-101677885D02*
X168111533Y-101677885D01*
X168111533Y-101677885D02*
X168254390Y-101725504D01*
X168254390Y-101725504D02*
X168825819Y-102296932D01*
X168825819Y-102296932D02*
X168825819Y-101677885D01*
X175499733Y-100462419D02*
X175166400Y-99986228D01*
X174928305Y-100462419D02*
X174928305Y-99462419D01*
X174928305Y-99462419D02*
X175309257Y-99462419D01*
X175309257Y-99462419D02*
X175404495Y-99510038D01*
X175404495Y-99510038D02*
X175452114Y-99557657D01*
X175452114Y-99557657D02*
X175499733Y-99652895D01*
X175499733Y-99652895D02*
X175499733Y-99795752D01*
X175499733Y-99795752D02*
X175452114Y-99890990D01*
X175452114Y-99890990D02*
X175404495Y-99938609D01*
X175404495Y-99938609D02*
X175309257Y-99986228D01*
X175309257Y-99986228D02*
X174928305Y-99986228D01*
X176452114Y-100462419D02*
X175880686Y-100462419D01*
X176166400Y-100462419D02*
X176166400Y-99462419D01*
X176166400Y-99462419D02*
X176071162Y-99605276D01*
X176071162Y-99605276D02*
X175975924Y-99700514D01*
X175975924Y-99700514D02*
X175880686Y-99748133D01*
X150123500Y-78400932D02*
X150171119Y-78258075D01*
X150171119Y-78258075D02*
X150171119Y-78019980D01*
X150171119Y-78019980D02*
X150123500Y-77924742D01*
X150123500Y-77924742D02*
X150075880Y-77877123D01*
X150075880Y-77877123D02*
X149980642Y-77829504D01*
X149980642Y-77829504D02*
X149885404Y-77829504D01*
X149885404Y-77829504D02*
X149790166Y-77877123D01*
X149790166Y-77877123D02*
X149742547Y-77924742D01*
X149742547Y-77924742D02*
X149694928Y-78019980D01*
X149694928Y-78019980D02*
X149647309Y-78210456D01*
X149647309Y-78210456D02*
X149599690Y-78305694D01*
X149599690Y-78305694D02*
X149552071Y-78353313D01*
X149552071Y-78353313D02*
X149456833Y-78400932D01*
X149456833Y-78400932D02*
X149361595Y-78400932D01*
X149361595Y-78400932D02*
X149266357Y-78353313D01*
X149266357Y-78353313D02*
X149218738Y-78305694D01*
X149218738Y-78305694D02*
X149171119Y-78210456D01*
X149171119Y-78210456D02*
X149171119Y-77972361D01*
X149171119Y-77972361D02*
X149218738Y-77829504D01*
X149171119Y-77496170D02*
X150171119Y-77258075D01*
X150171119Y-77258075D02*
X149456833Y-77067599D01*
X149456833Y-77067599D02*
X150171119Y-76877123D01*
X150171119Y-76877123D02*
X149171119Y-76639028D01*
X150171119Y-75734266D02*
X150171119Y-76305694D01*
X150171119Y-76019980D02*
X149171119Y-76019980D01*
X149171119Y-76019980D02*
X149313976Y-76115218D01*
X149313976Y-76115218D02*
X149409214Y-76210456D01*
X149409214Y-76210456D02*
X149456833Y-76305694D01*
X175601333Y-95433219D02*
X175268000Y-94957028D01*
X175029905Y-95433219D02*
X175029905Y-94433219D01*
X175029905Y-94433219D02*
X175410857Y-94433219D01*
X175410857Y-94433219D02*
X175506095Y-94480838D01*
X175506095Y-94480838D02*
X175553714Y-94528457D01*
X175553714Y-94528457D02*
X175601333Y-94623695D01*
X175601333Y-94623695D02*
X175601333Y-94766552D01*
X175601333Y-94766552D02*
X175553714Y-94861790D01*
X175553714Y-94861790D02*
X175506095Y-94909409D01*
X175506095Y-94909409D02*
X175410857Y-94957028D01*
X175410857Y-94957028D02*
X175029905Y-94957028D01*
X175934667Y-94433219D02*
X176553714Y-94433219D01*
X176553714Y-94433219D02*
X176220381Y-94814171D01*
X176220381Y-94814171D02*
X176363238Y-94814171D01*
X176363238Y-94814171D02*
X176458476Y-94861790D01*
X176458476Y-94861790D02*
X176506095Y-94909409D01*
X176506095Y-94909409D02*
X176553714Y-95004647D01*
X176553714Y-95004647D02*
X176553714Y-95242742D01*
X176553714Y-95242742D02*
X176506095Y-95337980D01*
X176506095Y-95337980D02*
X176458476Y-95385600D01*
X176458476Y-95385600D02*
X176363238Y-95433219D01*
X176363238Y-95433219D02*
X176077524Y-95433219D01*
X176077524Y-95433219D02*
X175982286Y-95385600D01*
X175982286Y-95385600D02*
X175934667Y-95337980D01*
X185040866Y-74701019D02*
X185040866Y-75415304D01*
X185040866Y-75415304D02*
X184993247Y-75558161D01*
X184993247Y-75558161D02*
X184898009Y-75653400D01*
X184898009Y-75653400D02*
X184755152Y-75701019D01*
X184755152Y-75701019D02*
X184659914Y-75701019D01*
X186040866Y-75701019D02*
X185469438Y-75701019D01*
X185755152Y-75701019D02*
X185755152Y-74701019D01*
X185755152Y-74701019D02*
X185659914Y-74843876D01*
X185659914Y-74843876D02*
X185564676Y-74939114D01*
X185564676Y-74939114D02*
X185469438Y-74986733D01*
X176479295Y-64767619D02*
X176479295Y-63767619D01*
X176479295Y-64243809D02*
X177050723Y-64243809D01*
X177050723Y-64767619D02*
X177050723Y-63767619D01*
X177479295Y-63862857D02*
X177526914Y-63815238D01*
X177526914Y-63815238D02*
X177622152Y-63767619D01*
X177622152Y-63767619D02*
X177860247Y-63767619D01*
X177860247Y-63767619D02*
X177955485Y-63815238D01*
X177955485Y-63815238D02*
X178003104Y-63862857D01*
X178003104Y-63862857D02*
X178050723Y-63958095D01*
X178050723Y-63958095D02*
X178050723Y-64053333D01*
X178050723Y-64053333D02*
X178003104Y-64196190D01*
X178003104Y-64196190D02*
X177431676Y-64767619D01*
X177431676Y-64767619D02*
X178050723Y-64767619D01*
X162315133Y-82146380D02*
X162267514Y-82194000D01*
X162267514Y-82194000D02*
X162124657Y-82241619D01*
X162124657Y-82241619D02*
X162029419Y-82241619D01*
X162029419Y-82241619D02*
X161886562Y-82194000D01*
X161886562Y-82194000D02*
X161791324Y-82098761D01*
X161791324Y-82098761D02*
X161743705Y-82003523D01*
X161743705Y-82003523D02*
X161696086Y-81813047D01*
X161696086Y-81813047D02*
X161696086Y-81670190D01*
X161696086Y-81670190D02*
X161743705Y-81479714D01*
X161743705Y-81479714D02*
X161791324Y-81384476D01*
X161791324Y-81384476D02*
X161886562Y-81289238D01*
X161886562Y-81289238D02*
X162029419Y-81241619D01*
X162029419Y-81241619D02*
X162124657Y-81241619D01*
X162124657Y-81241619D02*
X162267514Y-81289238D01*
X162267514Y-81289238D02*
X162315133Y-81336857D01*
X162648467Y-81241619D02*
X163267514Y-81241619D01*
X163267514Y-81241619D02*
X162934181Y-81622571D01*
X162934181Y-81622571D02*
X163077038Y-81622571D01*
X163077038Y-81622571D02*
X163172276Y-81670190D01*
X163172276Y-81670190D02*
X163219895Y-81717809D01*
X163219895Y-81717809D02*
X163267514Y-81813047D01*
X163267514Y-81813047D02*
X163267514Y-82051142D01*
X163267514Y-82051142D02*
X163219895Y-82146380D01*
X163219895Y-82146380D02*
X163172276Y-82194000D01*
X163172276Y-82194000D02*
X163077038Y-82241619D01*
X163077038Y-82241619D02*
X162791324Y-82241619D01*
X162791324Y-82241619D02*
X162696086Y-82194000D01*
X162696086Y-82194000D02*
X162648467Y-82146380D01*
X146608895Y-64869219D02*
X146608895Y-63869219D01*
X146608895Y-64345409D02*
X147180323Y-64345409D01*
X147180323Y-64869219D02*
X147180323Y-63869219D01*
X148180323Y-64869219D02*
X147608895Y-64869219D01*
X147894609Y-64869219D02*
X147894609Y-63869219D01*
X147894609Y-63869219D02*
X147799371Y-64012076D01*
X147799371Y-64012076D02*
X147704133Y-64107314D01*
X147704133Y-64107314D02*
X147608895Y-64154933D01*
D12*
%TO.C,D1*%
X164134800Y-83344400D02*
X161934800Y-83344400D01*
X164134800Y-83344400D02*
X166334800Y-83344400D01*
X164134800Y-88664400D02*
X161934800Y-88664400D01*
X164134800Y-88664400D02*
X166334800Y-88664400D01*
X168424800Y-88244400D02*
X168094800Y-88004400D01*
X168424800Y-87764400D01*
X168424800Y-88244400D01*
G36*
X168424800Y-88244400D02*
G01*
X168094800Y-88004400D01*
X168424800Y-87764400D01*
X168424800Y-88244400D01*
G37*
%TO.C,C2*%
X166344400Y-78703600D02*
X166344400Y-77963600D01*
X166384400Y-78870600D02*
X166384400Y-77796600D01*
X166424400Y-78997600D02*
X166424400Y-77669600D01*
X166464400Y-79101600D02*
X166464400Y-77565600D01*
X166504400Y-79192600D02*
X166504400Y-77474600D01*
X166544400Y-79273600D02*
X166544400Y-77393600D01*
X166584400Y-79346600D02*
X166584400Y-77320600D01*
X166624400Y-79413600D02*
X166624400Y-77253600D01*
X166664400Y-79475600D02*
X166664400Y-77191600D01*
X166704400Y-79533600D02*
X166704400Y-77133600D01*
X166744400Y-79587600D02*
X166744400Y-77079600D01*
X166784400Y-79637600D02*
X166784400Y-77029600D01*
X166824400Y-79684600D02*
X166824400Y-76982600D01*
X166864400Y-77493600D02*
X166864400Y-76937600D01*
X166864400Y-79729600D02*
X166864400Y-79173600D01*
X166904400Y-77493600D02*
X166904400Y-76895600D01*
X166904400Y-79771600D02*
X166904400Y-79173600D01*
X166944400Y-77493600D02*
X166944400Y-76855600D01*
X166944400Y-79811600D02*
X166944400Y-79173600D01*
X166984400Y-77493600D02*
X166984400Y-76817600D01*
X166984400Y-79849600D02*
X166984400Y-79173600D01*
X167024400Y-77493600D02*
X167024400Y-76781600D01*
X167024400Y-79885600D02*
X167024400Y-79173600D01*
X167064400Y-77493600D02*
X167064400Y-76746600D01*
X167064400Y-79920600D02*
X167064400Y-79173600D01*
X167104400Y-77493600D02*
X167104400Y-76714600D01*
X167104400Y-79952600D02*
X167104400Y-79173600D01*
X167144400Y-77493600D02*
X167144400Y-76683600D01*
X167144400Y-79983600D02*
X167144400Y-79173600D01*
X167184400Y-77493600D02*
X167184400Y-76653600D01*
X167184400Y-80013600D02*
X167184400Y-79173600D01*
X167224400Y-77493600D02*
X167224400Y-76625600D01*
X167224400Y-80041600D02*
X167224400Y-79173600D01*
X167264400Y-77493600D02*
X167264400Y-76598600D01*
X167264400Y-80068600D02*
X167264400Y-79173600D01*
X167304400Y-77493600D02*
X167304400Y-76573600D01*
X167304400Y-80093600D02*
X167304400Y-79173600D01*
X167344400Y-77493600D02*
X167344400Y-76548600D01*
X167344400Y-80118600D02*
X167344400Y-79173600D01*
X167384400Y-77493600D02*
X167384400Y-76525600D01*
X167384400Y-80141600D02*
X167384400Y-79173600D01*
X167424400Y-77493600D02*
X167424400Y-76503600D01*
X167424400Y-80163600D02*
X167424400Y-79173600D01*
X167464400Y-77493600D02*
X167464400Y-76482600D01*
X167464400Y-80184600D02*
X167464400Y-79173600D01*
X167504400Y-77493600D02*
X167504400Y-76463600D01*
X167504400Y-80203600D02*
X167504400Y-79173600D01*
X167544400Y-77493600D02*
X167544400Y-76444600D01*
X167544400Y-80222600D02*
X167544400Y-79173600D01*
X167584400Y-77493600D02*
X167584400Y-76426600D01*
X167584400Y-80240600D02*
X167584400Y-79173600D01*
X167624400Y-77493600D02*
X167624400Y-76409600D01*
X167624400Y-80257600D02*
X167624400Y-79173600D01*
X167664400Y-77493600D02*
X167664400Y-76393600D01*
X167664400Y-80273600D02*
X167664400Y-79173600D01*
X167704400Y-77493600D02*
X167704400Y-76379600D01*
X167704400Y-80287600D02*
X167704400Y-79173600D01*
X167745400Y-77493600D02*
X167745400Y-76365600D01*
X167745400Y-80301600D02*
X167745400Y-79173600D01*
X167785400Y-77493600D02*
X167785400Y-76351600D01*
X167785400Y-80315600D02*
X167785400Y-79173600D01*
X167825400Y-77493600D02*
X167825400Y-76339600D01*
X167825400Y-80327600D02*
X167825400Y-79173600D01*
X167865400Y-77493600D02*
X167865400Y-76328600D01*
X167865400Y-80338600D02*
X167865400Y-79173600D01*
X167905400Y-77493600D02*
X167905400Y-76317600D01*
X167905400Y-80349600D02*
X167905400Y-79173600D01*
X167945400Y-77493600D02*
X167945400Y-76308600D01*
X167945400Y-80358600D02*
X167945400Y-79173600D01*
X167985400Y-77493600D02*
X167985400Y-76299600D01*
X167985400Y-80367600D02*
X167985400Y-79173600D01*
X168025400Y-77493600D02*
X168025400Y-76291600D01*
X168025400Y-80375600D02*
X168025400Y-79173600D01*
X168065400Y-77493600D02*
X168065400Y-76283600D01*
X168065400Y-80383600D02*
X168065400Y-79173600D01*
X168105400Y-77493600D02*
X168105400Y-76277600D01*
X168105400Y-80389600D02*
X168105400Y-79173600D01*
X168145400Y-77493600D02*
X168145400Y-76271600D01*
X168145400Y-80395600D02*
X168145400Y-79173600D01*
X168185400Y-77493600D02*
X168185400Y-76266600D01*
X168185400Y-80400600D02*
X168185400Y-79173600D01*
X168225400Y-77493600D02*
X168225400Y-76262600D01*
X168225400Y-80404600D02*
X168225400Y-79173600D01*
X168265400Y-77493600D02*
X168265400Y-76259600D01*
X168265400Y-80407600D02*
X168265400Y-79173600D01*
X168305400Y-77493600D02*
X168305400Y-76256600D01*
X168305400Y-80410600D02*
X168305400Y-79173600D01*
X168345400Y-77493600D02*
X168345400Y-76254600D01*
X168345400Y-80412600D02*
X168345400Y-79173600D01*
X168385400Y-77493600D02*
X168385400Y-76253600D01*
X168385400Y-80413600D02*
X168385400Y-79173600D01*
X168425400Y-77493600D02*
X168425400Y-76253600D01*
X168425400Y-80413600D02*
X168425400Y-79173600D01*
X170495201Y-79728600D02*
X170495201Y-79328600D01*
X170695201Y-79528600D02*
X170295201Y-79528600D01*
X170545400Y-78333600D02*
G75*
G02*
X166305400Y-78333600I-2120000J0D01*
G01*
X166305400Y-78333600D02*
G75*
G02*
X170545400Y-78333600I2120000J0D01*
G01*
%TO.C,R2*%
X172447200Y-85955200D02*
X178987200Y-85955200D01*
X172447200Y-86285200D02*
X172447200Y-85955200D01*
X172447200Y-88365200D02*
X172447200Y-88695200D01*
X172447200Y-88695200D02*
X178987200Y-88695200D01*
X178987200Y-85955200D02*
X178987200Y-86285200D01*
X178987200Y-88695200D02*
X178987200Y-88365200D01*
%TO.C,J2*%
X179705800Y-77707800D02*
X179705800Y-77012800D01*
X180390800Y-77707800D02*
X179705800Y-77707800D01*
X181075800Y-76317800D02*
X182950800Y-76317800D01*
X181075800Y-76404524D02*
X181075800Y-76317800D01*
X181075800Y-77707800D02*
X181075800Y-77621076D01*
X181075800Y-77707800D02*
X182950800Y-77707800D01*
X182950800Y-76618307D02*
X182950800Y-76317800D01*
X182950800Y-77707800D02*
X182950800Y-77407293D01*
%TO.C,U2*%
X179199200Y-83160400D02*
X179199200Y-80580400D01*
X180179200Y-80580400D02*
X179199200Y-80580400D01*
X182939200Y-80580400D02*
X183919200Y-80580400D01*
X183919200Y-80580400D02*
X183919200Y-83300400D01*
X179349200Y-83710400D02*
X179019200Y-83950400D01*
X179019200Y-83470400D01*
X179349200Y-83710400D01*
G36*
X179349200Y-83710400D02*
G01*
X179019200Y-83950400D01*
X179019200Y-83470400D01*
X179349200Y-83710400D01*
G37*
%TO.C,C1*%
X172288000Y-78652800D02*
X172288000Y-77912800D01*
X172328000Y-78819800D02*
X172328000Y-77745800D01*
X172368000Y-78946800D02*
X172368000Y-77618800D01*
X172408000Y-79050800D02*
X172408000Y-77514800D01*
X172448000Y-79141800D02*
X172448000Y-77423800D01*
X172488000Y-79222800D02*
X172488000Y-77342800D01*
X172528000Y-79295800D02*
X172528000Y-77269800D01*
X172568000Y-79362800D02*
X172568000Y-77202800D01*
X172608000Y-79424800D02*
X172608000Y-77140800D01*
X172648000Y-79482800D02*
X172648000Y-77082800D01*
X172688000Y-79536800D02*
X172688000Y-77028800D01*
X172728000Y-79586800D02*
X172728000Y-76978800D01*
X172768000Y-79633800D02*
X172768000Y-76931800D01*
X172808000Y-77442800D02*
X172808000Y-76886800D01*
X172808000Y-79678800D02*
X172808000Y-79122800D01*
X172848000Y-77442800D02*
X172848000Y-76844800D01*
X172848000Y-79720800D02*
X172848000Y-79122800D01*
X172888000Y-77442800D02*
X172888000Y-76804800D01*
X172888000Y-79760800D02*
X172888000Y-79122800D01*
X172928000Y-77442800D02*
X172928000Y-76766800D01*
X172928000Y-79798800D02*
X172928000Y-79122800D01*
X172968000Y-77442800D02*
X172968000Y-76730800D01*
X172968000Y-79834800D02*
X172968000Y-79122800D01*
X173008000Y-77442800D02*
X173008000Y-76695800D01*
X173008000Y-79869800D02*
X173008000Y-79122800D01*
X173048000Y-77442800D02*
X173048000Y-76663800D01*
X173048000Y-79901800D02*
X173048000Y-79122800D01*
X173088000Y-77442800D02*
X173088000Y-76632800D01*
X173088000Y-79932800D02*
X173088000Y-79122800D01*
X173128000Y-77442800D02*
X173128000Y-76602800D01*
X173128000Y-79962800D02*
X173128000Y-79122800D01*
X173168000Y-77442800D02*
X173168000Y-76574800D01*
X173168000Y-79990800D02*
X173168000Y-79122800D01*
X173208000Y-77442800D02*
X173208000Y-76547800D01*
X173208000Y-80017800D02*
X173208000Y-79122800D01*
X173248000Y-77442800D02*
X173248000Y-76522800D01*
X173248000Y-80042800D02*
X173248000Y-79122800D01*
X173288000Y-77442800D02*
X173288000Y-76497800D01*
X173288000Y-80067800D02*
X173288000Y-79122800D01*
X173328000Y-77442800D02*
X173328000Y-76474800D01*
X173328000Y-80090800D02*
X173328000Y-79122800D01*
X173368000Y-77442800D02*
X173368000Y-76452800D01*
X173368000Y-80112800D02*
X173368000Y-79122800D01*
X173408000Y-77442800D02*
X173408000Y-76431800D01*
X173408000Y-80133800D02*
X173408000Y-79122800D01*
X173448000Y-77442800D02*
X173448000Y-76412800D01*
X173448000Y-80152800D02*
X173448000Y-79122800D01*
X173488000Y-77442800D02*
X173488000Y-76393800D01*
X173488000Y-80171800D02*
X173488000Y-79122800D01*
X173528000Y-77442800D02*
X173528000Y-76375800D01*
X173528000Y-80189800D02*
X173528000Y-79122800D01*
X173568000Y-77442800D02*
X173568000Y-76358800D01*
X173568000Y-80206800D02*
X173568000Y-79122800D01*
X173608000Y-77442800D02*
X173608000Y-76342800D01*
X173608000Y-80222800D02*
X173608000Y-79122800D01*
X173648000Y-77442800D02*
X173648000Y-76328800D01*
X173648000Y-80236800D02*
X173648000Y-79122800D01*
X173689000Y-77442800D02*
X173689000Y-76314800D01*
X173689000Y-80250800D02*
X173689000Y-79122800D01*
X173729000Y-77442800D02*
X173729000Y-76300800D01*
X173729000Y-80264800D02*
X173729000Y-79122800D01*
X173769000Y-77442800D02*
X173769000Y-76288800D01*
X173769000Y-80276800D02*
X173769000Y-79122800D01*
X173809000Y-77442800D02*
X173809000Y-76277800D01*
X173809000Y-80287800D02*
X173809000Y-79122800D01*
X173849000Y-77442800D02*
X173849000Y-76266800D01*
X173849000Y-80298800D02*
X173849000Y-79122800D01*
X173889000Y-77442800D02*
X173889000Y-76257800D01*
X173889000Y-80307800D02*
X173889000Y-79122800D01*
X173929000Y-77442800D02*
X173929000Y-76248800D01*
X173929000Y-80316800D02*
X173929000Y-79122800D01*
X173969000Y-77442800D02*
X173969000Y-76240800D01*
X173969000Y-80324800D02*
X173969000Y-79122800D01*
X174009000Y-77442800D02*
X174009000Y-76232800D01*
X174009000Y-80332800D02*
X174009000Y-79122800D01*
X174049000Y-77442800D02*
X174049000Y-76226800D01*
X174049000Y-80338800D02*
X174049000Y-79122800D01*
X174089000Y-77442800D02*
X174089000Y-76220800D01*
X174089000Y-80344800D02*
X174089000Y-79122800D01*
X174129000Y-77442800D02*
X174129000Y-76215800D01*
X174129000Y-80349800D02*
X174129000Y-79122800D01*
X174169000Y-77442800D02*
X174169000Y-76211800D01*
X174169000Y-80353800D02*
X174169000Y-79122800D01*
X174209000Y-77442800D02*
X174209000Y-76208800D01*
X174209000Y-80356800D02*
X174209000Y-79122800D01*
X174249000Y-77442800D02*
X174249000Y-76205800D01*
X174249000Y-80359800D02*
X174249000Y-79122800D01*
X174289000Y-77442800D02*
X174289000Y-76203800D01*
X174289000Y-80361800D02*
X174289000Y-79122800D01*
X174329000Y-77442800D02*
X174329000Y-76202800D01*
X174329000Y-80362800D02*
X174329000Y-79122800D01*
X174369000Y-77442800D02*
X174369000Y-76202800D01*
X174369000Y-80362800D02*
X174369000Y-79122800D01*
X176438801Y-79677800D02*
X176438801Y-79277800D01*
X176638801Y-79477800D02*
X176238801Y-79477800D01*
X176489000Y-78282800D02*
G75*
G02*
X172249000Y-78282800I-2120000J0D01*
G01*
X172249000Y-78282800D02*
G75*
G02*
X176489000Y-78282800I2120000J0D01*
G01*
%TO.C,J3*%
X133009500Y-64132800D02*
X142209500Y-64132800D01*
X133009500Y-72932800D02*
X133009500Y-64132800D01*
X133009500Y-78832800D02*
X133009500Y-76932800D01*
X135709500Y-78832800D02*
X133009500Y-78832800D01*
X141359500Y-79032800D02*
X142409500Y-79032800D01*
X142209500Y-64132800D02*
X142209500Y-78832800D01*
X142209500Y-78832800D02*
X139609500Y-78832800D01*
X142409500Y-77982800D02*
X142409500Y-79032800D01*
%TO.C,U1*%
X160793800Y-89317200D02*
X165434800Y-89317200D01*
X160793800Y-92586200D02*
X162303800Y-92586200D01*
X160793800Y-96287200D02*
X162303800Y-96287200D01*
X160793800Y-99557200D02*
X160793800Y-89317200D01*
X160793800Y-99557200D02*
X165434800Y-99557200D01*
X162303800Y-99557200D02*
X162303800Y-89317200D01*
X165434800Y-99557200D02*
X165434800Y-89317200D01*
D13*
%TO.C,T1*%
X135133750Y-90474800D02*
X137826150Y-90474800D01*
X135133750Y-90474800D02*
X137826150Y-90474800D01*
X135133750Y-95554800D02*
X135133750Y-90474800D01*
X135133750Y-95554800D02*
X135133750Y-90474800D01*
X137826150Y-90474800D02*
X137826150Y-86664800D01*
X137826150Y-90474800D02*
X137826150Y-86664800D01*
X137826150Y-90474800D02*
X153066150Y-90474800D01*
X137826150Y-90474800D02*
X153066150Y-90474800D01*
X137826150Y-95554800D02*
X135133750Y-95554800D01*
X137826150Y-95554800D02*
X135133750Y-95554800D01*
X137826150Y-95554800D02*
X137826150Y-99364800D01*
X137826150Y-95554800D02*
X137826150Y-99364800D01*
X140366150Y-102095300D02*
X150526150Y-102095300D01*
X140366150Y-102095300D02*
X150526150Y-102095300D01*
X150526150Y-83934300D02*
X140366150Y-83934300D01*
X150526150Y-83934300D02*
X140366150Y-83934300D01*
X153066150Y-90474800D02*
X153066150Y-86664800D01*
X153066150Y-90474800D02*
X153066150Y-86664800D01*
X153066150Y-90474800D02*
X155758550Y-90474800D01*
X153066150Y-90474800D02*
X155758550Y-90474800D01*
X153066150Y-95554800D02*
X137826150Y-95554800D01*
X153066150Y-95554800D02*
X137826150Y-95554800D01*
X153066150Y-95554800D02*
X153066150Y-99364800D01*
X153066150Y-95554800D02*
X153066150Y-99364800D01*
X155758550Y-90474800D02*
X155758550Y-95554800D01*
X155758550Y-90474800D02*
X155758550Y-95554800D01*
X155758550Y-95554800D02*
X153066150Y-95554800D01*
X155758550Y-95554800D02*
X153066150Y-95554800D01*
X137826150Y-86664800D02*
G75*
G02*
X140366150Y-83934299I2635251J95250D01*
G01*
X137826150Y-86664800D02*
G75*
G02*
X140366150Y-83934299I2635251J95250D01*
G01*
X137826150Y-86664800D02*
G75*
G02*
X140366150Y-83934299I2635251J95250D01*
G01*
X137826150Y-86664800D02*
G75*
G02*
X140366150Y-83934299I2635251J95250D01*
G01*
X140366150Y-102095300D02*
G75*
G02*
X137826150Y-99364800I95250J2635250D01*
G01*
X140366150Y-102095300D02*
G75*
G02*
X137826150Y-99364800I95250J2635250D01*
G01*
X140366150Y-102095300D02*
G75*
G02*
X137826150Y-99364800I95250J2635250D01*
G01*
X140366150Y-102095300D02*
G75*
G02*
X137826150Y-99364800I95250J2635250D01*
G01*
X150526150Y-83934300D02*
G75*
G02*
X153066149Y-86664800I-95251J-2635250D01*
G01*
X150526150Y-83934300D02*
G75*
G02*
X153066149Y-86664800I-95251J-2635250D01*
G01*
X150526150Y-83934300D02*
G75*
G02*
X153066149Y-86664800I-95251J-2635250D01*
G01*
X150526150Y-83934300D02*
G75*
G02*
X153066149Y-86664800I-95251J-2635250D01*
G01*
X153066150Y-99364800D02*
G75*
G02*
X150526150Y-102095300I-2635250J-95250D01*
G01*
X153066150Y-99364800D02*
G75*
G02*
X150526150Y-102095300I-2635250J-95250D01*
G01*
X153066150Y-99364800D02*
G75*
G02*
X150526150Y-102095300I-2635250J-95250D01*
G01*
X153066150Y-99364800D02*
G75*
G02*
X150526150Y-102095300I-2635250J-95250D01*
G01*
D14*
X150686150Y-82954800D02*
G75*
G02*
X150286150Y-82954800I-200000J0D01*
G01*
X150286150Y-82954800D02*
G75*
G02*
X150686150Y-82954800I200000J0D01*
G01*
X150686150Y-82954800D02*
G75*
G02*
X150286150Y-82954800I-200000J0D01*
G01*
X150286150Y-82954800D02*
G75*
G02*
X150686150Y-82954800I200000J0D01*
G01*
X150686150Y-82954800D02*
G75*
G02*
X150286150Y-82954800I-200000J0D01*
G01*
X150286150Y-82954800D02*
G75*
G02*
X150686150Y-82954800I200000J0D01*
G01*
X150686150Y-82954800D02*
G75*
G02*
X150286150Y-82954800I-200000J0D01*
G01*
X150286150Y-82954800D02*
G75*
G02*
X150686150Y-82954800I200000J0D01*
G01*
D12*
%TO.C,D2*%
X164081000Y-104023600D02*
X165201000Y-104023600D01*
X164081000Y-104423600D02*
X164081000Y-104023600D01*
X165201000Y-100903600D02*
X161341000Y-100903600D01*
X165201000Y-100903600D02*
X165201000Y-104023600D01*
X165201000Y-101193600D02*
X165201000Y-101193600D01*
X165201000Y-101193600D02*
X165331000Y-101193600D01*
X165201000Y-103733600D02*
X165201000Y-103733600D01*
X165201000Y-103733600D02*
X165331000Y-103733600D01*
X165201000Y-104023600D02*
X161341000Y-104023600D01*
X165201000Y-104023600D02*
X165201000Y-104423600D01*
X165201000Y-104423600D02*
X164081000Y-104423600D01*
X165331000Y-101193600D02*
X165201000Y-101193600D01*
X165331000Y-101193600D02*
X165331000Y-101193600D01*
X165331000Y-103733600D02*
X165201000Y-103733600D01*
X165331000Y-103733600D02*
X165331000Y-103733600D01*
X161341000Y-104023600D02*
G75*
G02*
X161341000Y-100903600I0J1560000D01*
G01*
%TO.C,R1*%
X172396400Y-96267600D02*
X172396400Y-96597600D01*
X172396400Y-99007600D02*
X172396400Y-98677600D01*
X178936400Y-96267600D02*
X172396400Y-96267600D01*
X178936400Y-96597600D02*
X178936400Y-96267600D01*
X178936400Y-98677600D02*
X178936400Y-99007600D01*
X178936400Y-99007600D02*
X172396400Y-99007600D01*
%TO.C,SW1*%
X150866300Y-72717600D02*
X155066300Y-72717600D01*
X150866300Y-73917600D02*
X150866300Y-72717600D01*
X150866300Y-81567600D02*
X150866300Y-81917600D01*
X150866300Y-81917600D02*
X155066300Y-81917600D01*
X155066300Y-72717600D02*
X155066300Y-73917600D01*
X155066300Y-81917600D02*
X155066300Y-80717600D01*
X150866300Y-81297600D02*
X150386300Y-80817600D01*
X150866300Y-80817600D01*
X150866300Y-81297600D01*
G36*
X150866300Y-81297600D02*
G01*
X150386300Y-80817600D01*
X150866300Y-80817600D01*
X150866300Y-81297600D01*
G37*
%TO.C,R3*%
X172498000Y-91238400D02*
X172498000Y-91568400D01*
X172498000Y-93978400D02*
X172498000Y-93648400D01*
X179038000Y-91238400D02*
X172498000Y-91238400D01*
X179038000Y-91568400D02*
X179038000Y-91238400D01*
X179038000Y-93648400D02*
X179038000Y-93978400D01*
X179038000Y-93978400D02*
X172498000Y-93978400D01*
%TO.C,J1*%
X180234200Y-74247200D02*
X180234200Y-64326200D01*
X181559200Y-70055200D02*
X181606200Y-70009200D01*
X181764200Y-70261200D02*
X181799200Y-70225200D01*
X183868200Y-67747200D02*
X183903200Y-67712200D01*
X184061200Y-67963200D02*
X184108200Y-67917200D01*
X190514200Y-64326200D02*
X180234200Y-64326200D01*
X190514200Y-64886200D02*
X180234200Y-64886200D01*
X190514200Y-66386200D02*
X180234200Y-66386200D01*
X190514200Y-71287200D02*
X180234200Y-71287200D01*
X190514200Y-74247200D02*
X180234200Y-74247200D01*
X190514200Y-74247200D02*
X190514200Y-64326200D01*
X190754200Y-64086200D02*
X190254200Y-64086200D01*
X190754200Y-64826200D02*
X190754200Y-64086200D01*
X186378773Y-69669242D02*
G75*
G02*
X186379200Y-68302200I1535427J683042D01*
G01*
X187230882Y-67451444D02*
G75*
G02*
X187914200Y-67306200I683318J-1534756D01*
G01*
X187885395Y-67305947D02*
G75*
G02*
X188598200Y-67451200I28806J-1680254D01*
G01*
X188597242Y-70521627D02*
G75*
G02*
X187230200Y-70521200I-683041J1535420D01*
G01*
X189449627Y-68303158D02*
G75*
G02*
X189449200Y-69670200I-1535420J-683041D01*
G01*
X184514200Y-68986200D02*
G75*
G02*
X181154200Y-68986200I-1680000J0D01*
G01*
X181154200Y-68986200D02*
G75*
G02*
X184514200Y-68986200I1680000J0D01*
G01*
D15*
%TO.C,G\u002A\u002A\u002A*%
G36*
X188949532Y-94278384D02*
G01*
X188955706Y-94389564D01*
X188867787Y-94488013D01*
X188811678Y-94507229D01*
X188693650Y-94489751D01*
X188685837Y-94381388D01*
X188768062Y-94251001D01*
X188841693Y-94225533D01*
X188949532Y-94278384D01*
G37*
G36*
X188361305Y-97135677D02*
G01*
X188372323Y-97144421D01*
X188456069Y-97263618D01*
X188407877Y-97369433D01*
X188269492Y-97477118D01*
X188164276Y-97419825D01*
X188127150Y-97344042D01*
X188118582Y-97174730D01*
X188213017Y-97091935D01*
X188361305Y-97135677D01*
G37*
G36*
X188935805Y-96559542D02*
G01*
X189049523Y-96651627D01*
X189016381Y-96757216D01*
X189004966Y-96771437D01*
X188855734Y-96883867D01*
X188738560Y-96835985D01*
X188703374Y-96769587D01*
X188688813Y-96592583D01*
X188790888Y-96520355D01*
X188935805Y-96559542D01*
G37*
G36*
X189323655Y-95842393D02*
G01*
X189333575Y-95933017D01*
X189242471Y-96080882D01*
X189065798Y-96086569D01*
X189035790Y-96075674D01*
X188966485Y-95988193D01*
X189010643Y-95876181D01*
X189134856Y-95799389D01*
X189194467Y-95791866D01*
X189323655Y-95842393D01*
G37*
G36*
X187811944Y-101616924D02*
G01*
X187823237Y-101633866D01*
X187903032Y-101821420D01*
X187840496Y-101920639D01*
X187739867Y-101936247D01*
X187602926Y-101899595D01*
X187571830Y-101848557D01*
X187615761Y-101706825D01*
X187656497Y-101633866D01*
X187736195Y-101549436D01*
X187811944Y-101616924D01*
G37*
G36*
X188377266Y-93655126D02*
G01*
X188438187Y-93794267D01*
X188404819Y-93901785D01*
X188257970Y-94007757D01*
X188137468Y-93954298D01*
X188125589Y-93936840D01*
X188111390Y-93807635D01*
X188159365Y-93661327D01*
X188238912Y-93590546D01*
X188239992Y-93590533D01*
X188377266Y-93655126D01*
G37*
G36*
X184397352Y-101565129D02*
G01*
X184406407Y-101669294D01*
X184374714Y-101789833D01*
X184317858Y-101916752D01*
X184261696Y-101892094D01*
X184203562Y-101803274D01*
X184111878Y-101628749D01*
X184122324Y-101570821D01*
X184226200Y-101633866D01*
X184327456Y-101696441D01*
X184353197Y-101631889D01*
X184353200Y-101630122D01*
X184378633Y-101556768D01*
X184397352Y-101565129D01*
G37*
G36*
X190391201Y-100060054D02*
G01*
X190430693Y-100185380D01*
X190447349Y-100432320D01*
X190449200Y-100617866D01*
X190441731Y-100939872D01*
X190414876Y-101124166D01*
X190361960Y-101201892D01*
X190322200Y-101210533D01*
X190253199Y-101175678D01*
X190213707Y-101050353D01*
X190197052Y-100803412D01*
X190195200Y-100617866D01*
X190202669Y-100295860D01*
X190229524Y-100111566D01*
X190282440Y-100033840D01*
X190322200Y-100025200D01*
X190391201Y-100060054D01*
G37*
G36*
X188155761Y-101669468D02*
G01*
X188277280Y-101766809D01*
X188331777Y-101743963D01*
X188357607Y-101661423D01*
X188388333Y-101601742D01*
X188405952Y-101710705D01*
X188407379Y-101739700D01*
X188380679Y-101920552D01*
X188300045Y-101970790D01*
X188199947Y-101878827D01*
X188123513Y-101840183D01*
X188069247Y-101899994D01*
X188016442Y-101932296D01*
X187995722Y-101804462D01*
X187995163Y-101768911D01*
X188002480Y-101602674D01*
X188051066Y-101583373D01*
X188155761Y-101669468D01*
G37*
G36*
X182948122Y-100067006D02*
G01*
X182987553Y-100213703D01*
X182998534Y-100490866D01*
X183004028Y-100757563D01*
X183033068Y-100896430D01*
X183104490Y-100948904D01*
X183210200Y-100956533D01*
X183380439Y-101000693D01*
X183421867Y-101083533D01*
X183365944Y-101171840D01*
X183180564Y-101208228D01*
X183083200Y-101210533D01*
X182744534Y-101210533D01*
X182744534Y-100617866D01*
X182752002Y-100295860D01*
X182778858Y-100111566D01*
X182831774Y-100033840D01*
X182871534Y-100025200D01*
X182948122Y-100067006D01*
G37*
G36*
X188642607Y-101612700D02*
G01*
X188753737Y-101711096D01*
X188798200Y-101718533D01*
X188930177Y-101651570D01*
X188953794Y-101612700D01*
X188982783Y-101608761D01*
X188996359Y-101740659D01*
X188996498Y-101760866D01*
X188985082Y-101904995D01*
X188957249Y-101916767D01*
X188953794Y-101909033D01*
X188849346Y-101810828D01*
X188719165Y-101837515D01*
X188644896Y-101951366D01*
X188619639Y-101977712D01*
X188604498Y-101860608D01*
X188603039Y-101803200D01*
X188611027Y-101637966D01*
X188634768Y-101598248D01*
X188642607Y-101612700D01*
G37*
G36*
X185699831Y-101627715D02*
G01*
X185762662Y-101805371D01*
X185764555Y-101825191D01*
X185764746Y-102015014D01*
X185721840Y-102044264D01*
X185664680Y-101971152D01*
X185563212Y-101922310D01*
X185532683Y-101933815D01*
X185475555Y-101899403D01*
X185453867Y-101759655D01*
X185479529Y-101662088D01*
X185566756Y-101662088D01*
X185578378Y-101712423D01*
X185623200Y-101718533D01*
X185692890Y-101687555D01*
X185679645Y-101662088D01*
X185579165Y-101651955D01*
X185566756Y-101662088D01*
X185479529Y-101662088D01*
X185497255Y-101594695D01*
X185595303Y-101554102D01*
X185699831Y-101627715D01*
G37*
G36*
X189340744Y-101564479D02*
G01*
X189280085Y-101623260D01*
X189263867Y-101633866D01*
X189179575Y-101700228D01*
X189242843Y-101717962D01*
X189263867Y-101718533D01*
X189348139Y-101732266D01*
X189285415Y-101790199D01*
X189263867Y-101804496D01*
X189179436Y-101884195D01*
X189246925Y-101959943D01*
X189263867Y-101971236D01*
X189341854Y-102037831D01*
X189262589Y-102055610D01*
X189242700Y-102055903D01*
X189131466Y-102005324D01*
X189094819Y-101829525D01*
X189094534Y-101803200D01*
X189124605Y-101612776D01*
X189227342Y-101550851D01*
X189242700Y-101550496D01*
X189340744Y-101564479D01*
G37*
G36*
X190102744Y-101564479D02*
G01*
X190042085Y-101623260D01*
X190025867Y-101633866D01*
X189941575Y-101700228D01*
X190004843Y-101717962D01*
X190025867Y-101718533D01*
X190110139Y-101732266D01*
X190047415Y-101790199D01*
X190025867Y-101804496D01*
X189941436Y-101884195D01*
X190008925Y-101959943D01*
X190025867Y-101971236D01*
X190103854Y-102037831D01*
X190024589Y-102055610D01*
X190004700Y-102055903D01*
X189893466Y-102005324D01*
X189856819Y-101829525D01*
X189856534Y-101803200D01*
X189886605Y-101612776D01*
X189989342Y-101550851D01*
X190004700Y-101550496D01*
X190102744Y-101564479D01*
G37*
G36*
X189572053Y-101564158D02*
G01*
X189686882Y-101665828D01*
X189736554Y-101845533D01*
X189746661Y-102010898D01*
X189715693Y-102028089D01*
X189647415Y-101945278D01*
X189557189Y-101838514D01*
X189514333Y-101869799D01*
X189492736Y-101945278D01*
X189464680Y-101978002D01*
X189445357Y-101865036D01*
X189443022Y-101818158D01*
X189452855Y-101662088D01*
X189546089Y-101662088D01*
X189557711Y-101712423D01*
X189602534Y-101718533D01*
X189672224Y-101687555D01*
X189658978Y-101662088D01*
X189558498Y-101651955D01*
X189546089Y-101662088D01*
X189452855Y-101662088D01*
X189455229Y-101624407D01*
X189522657Y-101560610D01*
X189572053Y-101564158D01*
G37*
G36*
X191407433Y-100053341D02*
G01*
X191539547Y-100101697D01*
X191622490Y-100201536D01*
X191565694Y-100278249D01*
X191398741Y-100306735D01*
X191307125Y-100298912D01*
X191070986Y-100329081D01*
X190932050Y-100472578D01*
X190919267Y-100687759D01*
X190961752Y-100795704D01*
X191082743Y-100924284D01*
X191280966Y-100940350D01*
X191307125Y-100936820D01*
X191510070Y-100938805D01*
X191614767Y-100999123D01*
X191591634Y-101092671D01*
X191539547Y-101134036D01*
X191287585Y-101206494D01*
X191004485Y-101168247D01*
X190787867Y-101041200D01*
X190644073Y-100797422D01*
X190631020Y-100527638D01*
X190730306Y-100278273D01*
X190923531Y-100095756D01*
X191190034Y-100026496D01*
X191407433Y-100053341D01*
G37*
G36*
X182443814Y-100052799D02*
G01*
X182556889Y-100117944D01*
X182530239Y-100194158D01*
X182353620Y-100254963D01*
X182293504Y-100263657D01*
X182118416Y-100327390D01*
X182069317Y-100427542D01*
X182149052Y-100511755D01*
X182278867Y-100533200D01*
X182437982Y-100562182D01*
X182490534Y-100617866D01*
X182418077Y-100681512D01*
X182278867Y-100702533D01*
X182109590Y-100745818D01*
X182071086Y-100840767D01*
X182160512Y-100935025D01*
X182293504Y-100972076D01*
X182504554Y-101025923D01*
X182563377Y-101101016D01*
X182480218Y-101170876D01*
X182265318Y-101209025D01*
X182201256Y-101210533D01*
X181813200Y-101210533D01*
X181813200Y-100617866D01*
X181813200Y-100025200D01*
X182201256Y-100025200D01*
X182443814Y-100052799D01*
G37*
G36*
X184223322Y-100041820D02*
G01*
X184337708Y-100098334D01*
X184353200Y-100152200D01*
X184277472Y-100253026D01*
X184099200Y-100279200D01*
X183897548Y-100317064D01*
X183845200Y-100406200D01*
X183918801Y-100508343D01*
X184056867Y-100533200D01*
X184215982Y-100562182D01*
X184268534Y-100617866D01*
X184196077Y-100681512D01*
X184056867Y-100702533D01*
X183886628Y-100746693D01*
X183845200Y-100829533D01*
X183920928Y-100930359D01*
X184099200Y-100956533D01*
X184300852Y-100994397D01*
X184353200Y-101083533D01*
X184303338Y-101167240D01*
X184133797Y-101205369D01*
X183972200Y-101210533D01*
X183591200Y-101210533D01*
X183591200Y-100617866D01*
X183591200Y-100025200D01*
X183972200Y-100025200D01*
X184223322Y-100041820D01*
G37*
G36*
X189253633Y-96221508D02*
G01*
X189509219Y-96246686D01*
X189526545Y-96248193D01*
X189812014Y-96292714D01*
X189965126Y-96382315D01*
X190021985Y-96544927D01*
X190025867Y-96634471D01*
X189961755Y-96851411D01*
X189804896Y-96966912D01*
X189608504Y-96965380D01*
X189425794Y-96831219D01*
X189413181Y-96814030D01*
X189250566Y-96657275D01*
X189138881Y-96589144D01*
X189602534Y-96589144D01*
X189670703Y-96705776D01*
X189736589Y-96723200D01*
X189835335Y-96673971D01*
X189837131Y-96622658D01*
X189752858Y-96510850D01*
X189651405Y-96496634D01*
X189602534Y-96589144D01*
X189138881Y-96589144D01*
X189066412Y-96544936D01*
X188910423Y-96427601D01*
X188862831Y-96299338D01*
X188925185Y-96209162D01*
X189055444Y-96197408D01*
X189253633Y-96221508D01*
G37*
G36*
X189883201Y-100060054D02*
G01*
X189922693Y-100185380D01*
X189939349Y-100432320D01*
X189941200Y-100617866D01*
X189927636Y-100970249D01*
X189880298Y-101160209D01*
X189789218Y-101192972D01*
X189644429Y-101073766D01*
X189475534Y-100862089D01*
X189221534Y-100517647D01*
X189195499Y-100864090D01*
X189149048Y-101116643D01*
X189058543Y-101209804D01*
X189047332Y-101210533D01*
X188980343Y-101171378D01*
X188942071Y-101034321D01*
X188926458Y-100769969D01*
X188925200Y-100617866D01*
X188938920Y-100264587D01*
X188987279Y-100073694D01*
X189081079Y-100039926D01*
X189231120Y-100158022D01*
X189415082Y-100379257D01*
X189687200Y-100733315D01*
X189687200Y-100379257D01*
X189706391Y-100138019D01*
X189770669Y-100034416D01*
X189814200Y-100025200D01*
X189883201Y-100060054D01*
G37*
G36*
X186203053Y-101567777D02*
G01*
X186145268Y-101623380D01*
X186080145Y-101693154D01*
X186161130Y-101744391D01*
X186288346Y-101723884D01*
X186327741Y-101650340D01*
X186358309Y-101571791D01*
X186373817Y-101655213D01*
X186375379Y-101680433D01*
X186430970Y-101874251D01*
X186486800Y-101955600D01*
X186541920Y-102040755D01*
X186491797Y-102057200D01*
X186360876Y-101994661D01*
X186340326Y-101968422D01*
X186246962Y-101927827D01*
X186173534Y-101972533D01*
X186056640Y-102018529D01*
X185998656Y-101963562D01*
X185984548Y-101901379D01*
X186033452Y-101922115D01*
X186120529Y-101926883D01*
X186131200Y-101892863D01*
X186069740Y-101806645D01*
X186046534Y-101803200D01*
X185971419Y-101734623D01*
X185961867Y-101676200D01*
X186031031Y-101569497D01*
X186110034Y-101550496D01*
X186203053Y-101567777D01*
G37*
G36*
X188523343Y-100141957D02*
G01*
X188586534Y-100194533D01*
X188737175Y-100444585D01*
X188748976Y-100713684D01*
X188640856Y-100959355D01*
X188431736Y-101139120D01*
X188140534Y-101210502D01*
X188133989Y-101210533D01*
X187871381Y-101159902D01*
X187710656Y-101055699D01*
X187599387Y-100830400D01*
X187575708Y-100549091D01*
X187583129Y-100518190D01*
X187839005Y-100518190D01*
X187843406Y-100779823D01*
X187957808Y-100920062D01*
X188158930Y-100956533D01*
X188355967Y-100923612D01*
X188451631Y-100797374D01*
X188467375Y-100743767D01*
X188462036Y-100498448D01*
X188327065Y-100337504D01*
X188091851Y-100295415D01*
X188085781Y-100296086D01*
X187901494Y-100371511D01*
X187839005Y-100518190D01*
X187583129Y-100518190D01*
X187638356Y-100288234D01*
X187725367Y-100165322D01*
X187968469Y-100046972D01*
X188260034Y-100040051D01*
X188523343Y-100141957D01*
G37*
G36*
X192400223Y-100107351D02*
G01*
X192462994Y-100180669D01*
X192438415Y-100259761D01*
X192275566Y-100266545D01*
X192265244Y-100265336D01*
X192064230Y-100274621D01*
X192008394Y-100346504D01*
X192103003Y-100448196D01*
X192226429Y-100506992D01*
X192421644Y-100651309D01*
X192489649Y-100856026D01*
X192416575Y-101066633D01*
X192379600Y-101108933D01*
X192223531Y-101184842D01*
X192012636Y-101207855D01*
X191828037Y-101175749D01*
X191761534Y-101125866D01*
X191738893Y-100989073D01*
X191833147Y-100922965D01*
X191967206Y-100953325D01*
X192136219Y-100992051D01*
X192222763Y-100904979D01*
X192227200Y-100862375D01*
X192159109Y-100783361D01*
X191995290Y-100685635D01*
X191994367Y-100685193D01*
X191804552Y-100531065D01*
X191734897Y-100337053D01*
X191799576Y-100154289D01*
X191836994Y-100117506D01*
X192009910Y-100048113D01*
X192222689Y-100047254D01*
X192400223Y-100107351D01*
G37*
G36*
X185024252Y-101591050D02*
G01*
X185103352Y-101672438D01*
X185115200Y-101791518D01*
X185142397Y-101922204D01*
X185206806Y-101910758D01*
X185282652Y-101772233D01*
X185312666Y-101676200D01*
X185339736Y-101616230D01*
X185344016Y-101717565D01*
X185342051Y-101754337D01*
X185292715Y-101950226D01*
X185200401Y-102037745D01*
X185103778Y-101998073D01*
X185056496Y-101893334D01*
X185008979Y-101711629D01*
X184887955Y-101884414D01*
X184746996Y-102033695D01*
X184621693Y-102026992D01*
X184531440Y-101940931D01*
X184461658Y-101768821D01*
X184490639Y-101717820D01*
X184618600Y-101717820D01*
X184641849Y-101856039D01*
X184711370Y-101949755D01*
X184796242Y-101902024D01*
X184850532Y-101786438D01*
X184794878Y-101703011D01*
X184676621Y-101644186D01*
X184618600Y-101717820D01*
X184490639Y-101717820D01*
X184537864Y-101634715D01*
X184736932Y-101567983D01*
X184826821Y-101565795D01*
X185024252Y-101591050D01*
G37*
G36*
X188422019Y-92635329D02*
G01*
X188556992Y-92785174D01*
X188577402Y-92975258D01*
X188464158Y-93156767D01*
X188429808Y-93183565D01*
X188284040Y-93334105D01*
X188141030Y-93550907D01*
X188131301Y-93569366D01*
X188032326Y-93757579D01*
X187970691Y-93827822D01*
X187901680Y-93810250D01*
X187835814Y-93768630D01*
X187767791Y-93686939D01*
X187776361Y-93541300D01*
X187820667Y-93390581D01*
X187873523Y-93171304D01*
X187875886Y-93018163D01*
X187868971Y-93001271D01*
X187865730Y-92949383D01*
X188103123Y-92949383D01*
X188120867Y-92997866D01*
X188214477Y-93048184D01*
X188266979Y-93012621D01*
X188307944Y-92877016D01*
X188290200Y-92828533D01*
X188196590Y-92778215D01*
X188144088Y-92813778D01*
X188103123Y-92949383D01*
X187865730Y-92949383D01*
X187859479Y-92849304D01*
X187957758Y-92690444D01*
X188116911Y-92586729D01*
X188191579Y-92574533D01*
X188422019Y-92635329D01*
G37*
G36*
X188654932Y-96875614D02*
G01*
X188812580Y-96997347D01*
X188992897Y-97167290D01*
X189223244Y-97372734D01*
X189428410Y-97523759D01*
X189551125Y-97583307D01*
X189754982Y-97680692D01*
X189840086Y-97844262D01*
X189811205Y-98024373D01*
X189673106Y-98171379D01*
X189488876Y-98231588D01*
X189308326Y-98214953D01*
X189192853Y-98081788D01*
X189164422Y-98019921D01*
X189119687Y-97944716D01*
X189373123Y-97944716D01*
X189390867Y-97993200D01*
X189484477Y-98043518D01*
X189536979Y-98007954D01*
X189577944Y-97872349D01*
X189560200Y-97823866D01*
X189466590Y-97773548D01*
X189414088Y-97809112D01*
X189373123Y-97944716D01*
X189119687Y-97944716D01*
X189051225Y-97829621D01*
X188862467Y-97583339D01*
X188693763Y-97393283D01*
X188496236Y-97177447D01*
X188404396Y-97043777D01*
X188401802Y-96957140D01*
X188459454Y-96892599D01*
X188548957Y-96846740D01*
X188654932Y-96875614D01*
G37*
G36*
X185750280Y-96892599D02*
G01*
X185811118Y-96966169D01*
X185797150Y-97055852D01*
X185691489Y-97195694D01*
X185500477Y-97396191D01*
X185300815Y-97617602D01*
X185161572Y-97807744D01*
X185115200Y-97915674D01*
X185045376Y-98105021D01*
X184875235Y-98219443D01*
X184663777Y-98241400D01*
X184470001Y-98153347D01*
X184435786Y-98117692D01*
X184382965Y-97945470D01*
X184383158Y-97944716D01*
X184631790Y-97944716D01*
X184649534Y-97993200D01*
X184743143Y-98043518D01*
X184795646Y-98007954D01*
X184836610Y-97872349D01*
X184818867Y-97823866D01*
X184725257Y-97773548D01*
X184672755Y-97809112D01*
X184631790Y-97944716D01*
X184383158Y-97944716D01*
X184432850Y-97750998D01*
X184555665Y-97605133D01*
X184665977Y-97569866D01*
X184798835Y-97513416D01*
X185001618Y-97365952D01*
X185213928Y-97175016D01*
X185436222Y-96965623D01*
X185579670Y-96863607D01*
X185678953Y-96850705D01*
X185750280Y-96892599D01*
G37*
G36*
X187327749Y-101575984D02*
G01*
X187411082Y-101596808D01*
X187352616Y-101635954D01*
X187337700Y-101641702D01*
X187175489Y-101746346D01*
X187166453Y-101865986D01*
X187241333Y-101936050D01*
X187359690Y-101928061D01*
X187409370Y-101877547D01*
X187472312Y-101816827D01*
X187484570Y-101861703D01*
X187425427Y-101996535D01*
X187285780Y-102020563D01*
X187182236Y-101966477D01*
X187048065Y-101905620D01*
X186957345Y-101959188D01*
X186816976Y-102050453D01*
X186690614Y-101988319D01*
X186648106Y-101940931D01*
X186570496Y-101771442D01*
X186615824Y-101701161D01*
X186698964Y-101701161D01*
X186708405Y-101821019D01*
X186733101Y-101856659D01*
X186852322Y-101930119D01*
X186923479Y-101891454D01*
X186961983Y-101772439D01*
X186917511Y-101708977D01*
X186787546Y-101648694D01*
X186698964Y-101701161D01*
X186615824Y-101701161D01*
X186649234Y-101649360D01*
X186876286Y-101581456D01*
X187089010Y-101569533D01*
X187327749Y-101575984D01*
G37*
G36*
X184980855Y-92910277D02*
G01*
X185100349Y-93070921D01*
X185115200Y-93166505D01*
X185172345Y-93293561D01*
X185320919Y-93488202D01*
X185493851Y-93672894D01*
X185704838Y-93895992D01*
X185798070Y-94043298D01*
X185789884Y-94142425D01*
X185779817Y-94156189D01*
X185697436Y-94237355D01*
X185613093Y-94247617D01*
X185493474Y-94171504D01*
X185305267Y-93993546D01*
X185199867Y-93886866D01*
X184980761Y-93686432D01*
X184787075Y-93548420D01*
X184677217Y-93505866D01*
X184507485Y-93434466D01*
X184409652Y-93262845D01*
X184410842Y-93203383D01*
X184631790Y-93203383D01*
X184649534Y-93251866D01*
X184743143Y-93302184D01*
X184795646Y-93266621D01*
X184836610Y-93131016D01*
X184818867Y-93082533D01*
X184725257Y-93032215D01*
X184672755Y-93067778D01*
X184631790Y-93203383D01*
X184410842Y-93203383D01*
X184413813Y-93054876D01*
X184437867Y-92997866D01*
X184589920Y-92858887D01*
X184790814Y-92834644D01*
X184980855Y-92910277D01*
G37*
G36*
X189660142Y-92902490D02*
G01*
X189804540Y-93019033D01*
X189843564Y-93212931D01*
X189749595Y-93388095D01*
X189554493Y-93487084D01*
X189543985Y-93488806D01*
X189397427Y-93560387D01*
X189188346Y-93720412D01*
X189005836Y-93890973D01*
X188785249Y-94111134D01*
X188646747Y-94225843D01*
X188555264Y-94251916D01*
X188475731Y-94206167D01*
X188433353Y-94165486D01*
X188403787Y-94082738D01*
X188464531Y-93955707D01*
X188631360Y-93757815D01*
X188747437Y-93636319D01*
X188961201Y-93398284D01*
X189103664Y-93208097D01*
X189374303Y-93208097D01*
X189441496Y-93296190D01*
X189523717Y-93290584D01*
X189596144Y-93171805D01*
X189602534Y-93119869D01*
X189550649Y-93010202D01*
X189443261Y-93024279D01*
X189390867Y-93082533D01*
X189374303Y-93208097D01*
X189103664Y-93208097D01*
X189121558Y-93184208D01*
X189193847Y-93040371D01*
X189193877Y-93040200D01*
X189287373Y-92914010D01*
X189464990Y-92867338D01*
X189660142Y-92902490D01*
G37*
G36*
X189915740Y-94161625D02*
G01*
X189991579Y-94290094D01*
X190009848Y-94413128D01*
X190006849Y-94610216D01*
X189922628Y-94705809D01*
X189824160Y-94738599D01*
X189639123Y-94764216D01*
X189543846Y-94749692D01*
X189427766Y-94753621D01*
X189237901Y-94820077D01*
X189221534Y-94827665D01*
X189090927Y-94896222D01*
X189088477Y-94914231D01*
X189108693Y-94909489D01*
X189252857Y-94938596D01*
X189299193Y-94999804D01*
X189344428Y-95190626D01*
X189278028Y-95273781D01*
X189192043Y-95283866D01*
X189042031Y-95200024D01*
X188905038Y-94951607D01*
X188774523Y-94619349D01*
X189022567Y-94516606D01*
X189239271Y-94390079D01*
X189241635Y-94387811D01*
X189602534Y-94387811D01*
X189670703Y-94504443D01*
X189736589Y-94521866D01*
X189835335Y-94472638D01*
X189837131Y-94421325D01*
X189752858Y-94309517D01*
X189651405Y-94295301D01*
X189602534Y-94387811D01*
X189241635Y-94387811D01*
X189385569Y-94249737D01*
X189564052Y-94121818D01*
X189742030Y-94113239D01*
X189915740Y-94161625D01*
G37*
G36*
X187113320Y-100050474D02*
G01*
X187282393Y-100112701D01*
X187299600Y-100126800D01*
X187382189Y-100290915D01*
X187394401Y-100492078D01*
X187334271Y-100644882D01*
X187311933Y-100663043D01*
X187281716Y-100771982D01*
X187354266Y-100919061D01*
X187462604Y-101103131D01*
X187467212Y-101188698D01*
X187368870Y-101210494D01*
X187360819Y-101210533D01*
X187228233Y-101145497D01*
X187097081Y-100998866D01*
X186975580Y-100847855D01*
X186883463Y-100787200D01*
X186827119Y-100859712D01*
X186808534Y-100998866D01*
X186764373Y-101169105D01*
X186681534Y-101210533D01*
X186612532Y-101175678D01*
X186573041Y-101050353D01*
X186556385Y-100803412D01*
X186554534Y-100617866D01*
X186554534Y-100406200D01*
X186808534Y-100406200D01*
X186879120Y-100509628D01*
X186977867Y-100533200D01*
X187115771Y-100480260D01*
X187147200Y-100406200D01*
X187076614Y-100302771D01*
X186977867Y-100279200D01*
X186839963Y-100332139D01*
X186808534Y-100406200D01*
X186554534Y-100406200D01*
X186554534Y-100025200D01*
X186876267Y-100025200D01*
X187113320Y-100050474D01*
G37*
G36*
X183688375Y-95226322D02*
G01*
X183787232Y-95276698D01*
X183912482Y-95321788D01*
X184156335Y-95354550D01*
X184468158Y-95368433D01*
X184497134Y-95368533D01*
X184816569Y-95372746D01*
X185002277Y-95391873D01*
X185089785Y-95435648D01*
X185114618Y-95513804D01*
X185115200Y-95537866D01*
X185100093Y-95624718D01*
X185031292Y-95675541D01*
X184873579Y-95699802D01*
X184591737Y-95706968D01*
X184485197Y-95707200D01*
X184173933Y-95717830D01*
X183932915Y-95745896D01*
X183808392Y-95785658D01*
X183802867Y-95791866D01*
X183676046Y-95864569D01*
X183488903Y-95868417D01*
X183329005Y-95809534D01*
X183285514Y-95755690D01*
X183260370Y-95574050D01*
X183446457Y-95574050D01*
X183464200Y-95622533D01*
X183557810Y-95672851D01*
X183610312Y-95637287D01*
X183651277Y-95501683D01*
X183633534Y-95453200D01*
X183539924Y-95402881D01*
X183487421Y-95438445D01*
X183446457Y-95574050D01*
X183260370Y-95574050D01*
X183251589Y-95510621D01*
X183327865Y-95311829D01*
X183493424Y-95213445D01*
X183495132Y-95213198D01*
X183688375Y-95226322D01*
G37*
G36*
X190872134Y-95268914D02*
G01*
X190988204Y-95440891D01*
X190978799Y-95659387D01*
X190957200Y-95707200D01*
X190821145Y-95828381D01*
X190628888Y-95877056D01*
X190457900Y-95841306D01*
X190406867Y-95791866D01*
X190303052Y-95752110D01*
X190074451Y-95722371D01*
X189765541Y-95707845D01*
X189682203Y-95707200D01*
X189346219Y-95703614D01*
X189145335Y-95687119D01*
X189045371Y-95649106D01*
X189012149Y-95580966D01*
X189011783Y-95574050D01*
X190558457Y-95574050D01*
X190576200Y-95622533D01*
X190669810Y-95672851D01*
X190722312Y-95637287D01*
X190763277Y-95501683D01*
X190745534Y-95453200D01*
X190651924Y-95402881D01*
X190599421Y-95438445D01*
X190558457Y-95574050D01*
X189011783Y-95574050D01*
X189009867Y-95537866D01*
X189024103Y-95453246D01*
X189089597Y-95402652D01*
X189240528Y-95377475D01*
X189511075Y-95369108D01*
X189682203Y-95368533D01*
X190004072Y-95358554D01*
X190256592Y-95332081D01*
X190395286Y-95294310D01*
X190406867Y-95283866D01*
X190523749Y-95217972D01*
X190662885Y-95199200D01*
X190872134Y-95268914D01*
G37*
G36*
X187315590Y-91699858D02*
G01*
X187359966Y-91728779D01*
X187463965Y-91889427D01*
X187476862Y-92073152D01*
X187401200Y-92193533D01*
X187358559Y-92298788D01*
X187328143Y-92524439D01*
X187316534Y-92821646D01*
X187316534Y-92821789D01*
X187316534Y-93397718D01*
X187542063Y-93354605D01*
X187698346Y-93340992D01*
X187728713Y-93402453D01*
X187711396Y-93457937D01*
X187663760Y-93598757D01*
X187655200Y-93639791D01*
X187634536Y-93661322D01*
X187545740Y-93660522D01*
X187348607Y-93635107D01*
X187210700Y-93614557D01*
X187088827Y-93588218D01*
X187019222Y-93529326D01*
X186987254Y-93398588D01*
X186978293Y-93156710D01*
X186977867Y-92989264D01*
X186952930Y-92552616D01*
X186879753Y-92259774D01*
X186848946Y-92202484D01*
X186770815Y-92009029D01*
X186771996Y-91948773D01*
X186988258Y-91948773D01*
X187009277Y-92065868D01*
X187034311Y-92094755D01*
X187158235Y-92148686D01*
X187229027Y-92060564D01*
X187231867Y-92024200D01*
X187164094Y-91911951D01*
X187104867Y-91897200D01*
X186988258Y-91948773D01*
X186771996Y-91948773D01*
X186773618Y-91866065D01*
X186904672Y-91728199D01*
X187112816Y-91666361D01*
X187315590Y-91699858D01*
G37*
G36*
X186057902Y-100040396D02*
G01*
X186343277Y-100063910D01*
X186465325Y-100106266D01*
X186469867Y-100118773D01*
X186399195Y-100211594D01*
X186300534Y-100254667D01*
X186200244Y-100307223D01*
X186149044Y-100426521D01*
X186131930Y-100656865D01*
X186131200Y-100754741D01*
X186123526Y-101020359D01*
X186090481Y-101157428D01*
X186017030Y-101206419D01*
X185961867Y-101210533D01*
X185863186Y-101189877D01*
X185812263Y-101100930D01*
X185794062Y-100903223D01*
X185792534Y-100754741D01*
X185779107Y-100475277D01*
X185716197Y-100314418D01*
X185569861Y-100246492D01*
X185306153Y-100245826D01*
X185139340Y-100260711D01*
X184854409Y-100334858D01*
X184716288Y-100490168D01*
X184719345Y-100734071D01*
X184736052Y-100793035D01*
X184814207Y-100914618D01*
X184975571Y-100948925D01*
X185075883Y-100943716D01*
X185309921Y-100948250D01*
X185433409Y-101000206D01*
X185422520Y-101084391D01*
X185366748Y-101129173D01*
X185117765Y-101209610D01*
X184844337Y-101189671D01*
X184621259Y-101079380D01*
X184569668Y-101022361D01*
X184454294Y-100739145D01*
X184464831Y-100444206D01*
X184597264Y-100204469D01*
X184698366Y-100129274D01*
X184844820Y-100080611D01*
X185072708Y-100052499D01*
X185418114Y-100038961D01*
X185613264Y-100036116D01*
X186057902Y-100040396D01*
G37*
G36*
X184647744Y-94146957D02*
G01*
X184776534Y-94267866D01*
X184950389Y-94416897D01*
X185096572Y-94508646D01*
X185180928Y-94527140D01*
X185169305Y-94456405D01*
X185165242Y-94449673D01*
X185173125Y-94331849D01*
X185228200Y-94230361D01*
X185321378Y-94129685D01*
X185403329Y-94167533D01*
X185455126Y-94227049D01*
X185530988Y-94352668D01*
X185478121Y-94445099D01*
X185450671Y-94467528D01*
X185341214Y-94591313D01*
X185319687Y-94648866D01*
X185253914Y-95005926D01*
X185132578Y-95221042D01*
X184983527Y-95283866D01*
X184852341Y-95265523D01*
X184826042Y-95176928D01*
X184859446Y-95035983D01*
X184871145Y-94902866D01*
X185030534Y-94902866D01*
X185072867Y-94945200D01*
X185115200Y-94902866D01*
X185072867Y-94860533D01*
X185030534Y-94902866D01*
X184871145Y-94902866D01*
X184878085Y-94823897D01*
X184775541Y-94728075D01*
X184547652Y-94744895D01*
X184530249Y-94749316D01*
X184310208Y-94740838D01*
X184161423Y-94617801D01*
X184107622Y-94428177D01*
X184120205Y-94387811D01*
X184353200Y-94387811D01*
X184421370Y-94504443D01*
X184487256Y-94521866D01*
X184586002Y-94472638D01*
X184587797Y-94421325D01*
X184503525Y-94309517D01*
X184402071Y-94295301D01*
X184353200Y-94387811D01*
X184120205Y-94387811D01*
X184172535Y-94219934D01*
X184232248Y-94146914D01*
X184365532Y-94040946D01*
X184488605Y-94037533D01*
X184647744Y-94146957D01*
G37*
G36*
X185156897Y-95816449D02*
G01*
X185185404Y-95914495D01*
X185175335Y-95961200D01*
X185164407Y-96096507D01*
X185192112Y-96130533D01*
X185263541Y-96199497D01*
X185366651Y-96371394D01*
X185398765Y-96435848D01*
X185486252Y-96662296D01*
X185479944Y-96805530D01*
X185445546Y-96860225D01*
X185329436Y-96933145D01*
X185230967Y-96883210D01*
X185133940Y-96746642D01*
X185126201Y-96614643D01*
X185211191Y-96553896D01*
X185213978Y-96553866D01*
X185274823Y-96523476D01*
X185263563Y-96504673D01*
X185155880Y-96501389D01*
X184984356Y-96581828D01*
X184807488Y-96712635D01*
X184708233Y-96821303D01*
X184527105Y-96957477D01*
X184316729Y-96951893D01*
X184200800Y-96875600D01*
X184115745Y-96704050D01*
X184124683Y-96589144D01*
X184353200Y-96589144D01*
X184421370Y-96705776D01*
X184487256Y-96723200D01*
X184586002Y-96673971D01*
X184587797Y-96622658D01*
X184503525Y-96510850D01*
X184402071Y-96496634D01*
X184353200Y-96589144D01*
X184124683Y-96589144D01*
X184130942Y-96508673D01*
X184220830Y-96337272D01*
X184359850Y-96237651D01*
X184522443Y-96257614D01*
X184529095Y-96261588D01*
X184647870Y-96284672D01*
X184805462Y-96266439D01*
X184941360Y-96222499D01*
X184995053Y-96168462D01*
X184977609Y-96145882D01*
X184875496Y-96021880D01*
X184836515Y-95940033D01*
X184830526Y-95829831D01*
X184949647Y-95793018D01*
X185000732Y-95791866D01*
X185156897Y-95816449D01*
G37*
G36*
X186197723Y-92629440D02*
G01*
X186330975Y-92766084D01*
X186360271Y-92976830D01*
X186358396Y-92987351D01*
X186342483Y-93229690D01*
X186425484Y-93345587D01*
X186624140Y-93356655D01*
X186642449Y-93354116D01*
X186821721Y-93347924D01*
X186887757Y-93419994D01*
X186893200Y-93486647D01*
X186848245Y-93604437D01*
X186696375Y-93689050D01*
X186412083Y-93751710D01*
X186237034Y-93775391D01*
X186138320Y-93826612D01*
X186131200Y-93849586D01*
X186067249Y-93939509D01*
X185928137Y-93953763D01*
X185792979Y-93886487D01*
X185783001Y-93875381D01*
X185721185Y-93756017D01*
X185797978Y-93669636D01*
X185961720Y-93621994D01*
X186025367Y-93631098D01*
X186122135Y-93632930D01*
X186107295Y-93548200D01*
X186469867Y-93548200D01*
X186512200Y-93590533D01*
X186554534Y-93548200D01*
X186512200Y-93505866D01*
X186469867Y-93548200D01*
X186107295Y-93548200D01*
X186105520Y-93538063D01*
X185983705Y-93367680D01*
X185879963Y-93254692D01*
X185719391Y-93061839D01*
X185687063Y-92949383D01*
X185901790Y-92949383D01*
X185919534Y-92997866D01*
X186013143Y-93048184D01*
X186065646Y-93012621D01*
X186106610Y-92877016D01*
X186088867Y-92828533D01*
X185995257Y-92778215D01*
X185942755Y-92813778D01*
X185901790Y-92949383D01*
X185687063Y-92949383D01*
X185675622Y-92909583D01*
X185698679Y-92807273D01*
X185829130Y-92635719D01*
X186012960Y-92581213D01*
X186197723Y-92629440D01*
G37*
G36*
X186016522Y-97131861D02*
G01*
X186076772Y-97188866D01*
X186183118Y-97281493D01*
X186215867Y-97289557D01*
X186286434Y-97289626D01*
X186462675Y-97336547D01*
X186533367Y-97359763D01*
X186788780Y-97494589D01*
X186877922Y-97646119D01*
X186887400Y-97779413D01*
X186831722Y-97814712D01*
X186670219Y-97766857D01*
X186609582Y-97744034D01*
X186421450Y-97721523D01*
X186336052Y-97831120D01*
X186357840Y-98067034D01*
X186358650Y-98070151D01*
X186345854Y-98277841D01*
X186222213Y-98428546D01*
X186039551Y-98500883D01*
X185849689Y-98473472D01*
X185710846Y-98337432D01*
X185644457Y-98199477D01*
X185644459Y-98198716D01*
X185901790Y-98198716D01*
X185919534Y-98247200D01*
X186013143Y-98297518D01*
X186065646Y-98261954D01*
X186106610Y-98126349D01*
X186088867Y-98077866D01*
X185995257Y-98027548D01*
X185942755Y-98063112D01*
X185901790Y-98198716D01*
X185644459Y-98198716D01*
X185644706Y-98098315D01*
X185729729Y-97977961D01*
X185877200Y-97823866D01*
X186034379Y-97640479D01*
X186102279Y-97527533D01*
X186469867Y-97527533D01*
X186512200Y-97569866D01*
X186554534Y-97527533D01*
X186512200Y-97485200D01*
X186469867Y-97527533D01*
X186102279Y-97527533D01*
X186122756Y-97493471D01*
X186129904Y-97461114D01*
X186109741Y-97404252D01*
X186061411Y-97464027D01*
X185978410Y-97523404D01*
X185844757Y-97458910D01*
X185829874Y-97448035D01*
X185718403Y-97344228D01*
X185743041Y-97251788D01*
X185801605Y-97187993D01*
X185918039Y-97095296D01*
X186016522Y-97131861D01*
G37*
G36*
X187552930Y-93917571D02*
G01*
X187999166Y-94117770D01*
X188169064Y-94243459D01*
X188456852Y-94564241D01*
X188656820Y-94945144D01*
X188741153Y-95327917D01*
X188739456Y-95437983D01*
X188713534Y-95749533D01*
X187337700Y-95772797D01*
X186790264Y-95784190D01*
X186395715Y-95802001D01*
X186137613Y-95833599D01*
X185999515Y-95886354D01*
X185964979Y-95967637D01*
X186017561Y-96084818D01*
X186140821Y-96245268D01*
X186179773Y-96291841D01*
X186502441Y-96555383D01*
X186888623Y-96687537D01*
X187294925Y-96686212D01*
X187677955Y-96549315D01*
X187905650Y-96375057D01*
X188138841Y-96205474D01*
X188333923Y-96166396D01*
X188461638Y-96234856D01*
X188492730Y-96387884D01*
X188397940Y-96602510D01*
X188319030Y-96699588D01*
X187956351Y-96980085D01*
X187507283Y-97158620D01*
X187025651Y-97223542D01*
X186565279Y-97163198D01*
X186419965Y-97110690D01*
X186025352Y-96856415D01*
X185705004Y-96491084D01*
X185483315Y-96057645D01*
X185384685Y-95599046D01*
X185397602Y-95310981D01*
X185459063Y-95117832D01*
X185962984Y-95117832D01*
X185999324Y-95200517D01*
X186143841Y-95250035D01*
X186413888Y-95274789D01*
X186826819Y-95283180D01*
X187104867Y-95283866D01*
X187522670Y-95280144D01*
X187871997Y-95269939D01*
X188122001Y-95254695D01*
X188241832Y-95235858D01*
X188247867Y-95230360D01*
X188207250Y-95130088D01*
X188106669Y-94949194D01*
X188077199Y-94900707D01*
X187800803Y-94599054D01*
X187446610Y-94421449D01*
X187053840Y-94369545D01*
X186661712Y-94444992D01*
X186309445Y-94649442D01*
X186145416Y-94819358D01*
X186017466Y-94993580D01*
X185962984Y-95117832D01*
X185459063Y-95117832D01*
X185552344Y-94824686D01*
X185826832Y-94425396D01*
X186192599Y-94124075D01*
X186621182Y-93931687D01*
X187084114Y-93859198D01*
X187552930Y-93917571D01*
G37*
G36*
X187999017Y-97320373D02*
G01*
X188132807Y-97509280D01*
X188272328Y-97726810D01*
X188420688Y-97885452D01*
X188429808Y-97892167D01*
X188567970Y-98067280D01*
X188569193Y-98259365D01*
X188452569Y-98419609D01*
X188237193Y-98499201D01*
X188191579Y-98501200D01*
X188003372Y-98430990D01*
X187878574Y-98265023D01*
X187874184Y-98198716D01*
X188103123Y-98198716D01*
X188120867Y-98247200D01*
X188214477Y-98297518D01*
X188266979Y-98261954D01*
X188307944Y-98126349D01*
X188290200Y-98077866D01*
X188196590Y-98027548D01*
X188144088Y-98063112D01*
X188103123Y-98198716D01*
X187874184Y-98198716D01*
X187865682Y-98070293D01*
X187870227Y-98057306D01*
X187875242Y-97893592D01*
X187832957Y-97733672D01*
X187772512Y-97618379D01*
X187745234Y-97633366D01*
X187668513Y-97713022D01*
X187528200Y-97739200D01*
X187410992Y-97749923D01*
X187347654Y-97808573D01*
X187321674Y-97954868D01*
X187316539Y-98228526D01*
X187316534Y-98248348D01*
X187333613Y-98552927D01*
X187377725Y-98808485D01*
X187421749Y-98925974D01*
X187473424Y-99125787D01*
X187399273Y-99292316D01*
X187242761Y-99396241D01*
X187047349Y-99408239D01*
X186861420Y-99303991D01*
X186744368Y-99156769D01*
X186748609Y-99077991D01*
X186997270Y-99077991D01*
X187034119Y-99164358D01*
X187097811Y-99178533D01*
X187214443Y-99110363D01*
X187231867Y-99044477D01*
X187182513Y-98951759D01*
X187080963Y-98966544D01*
X186997270Y-99077991D01*
X186748609Y-99077991D01*
X186751446Y-99025305D01*
X186848174Y-98877215D01*
X186930588Y-98660014D01*
X186971029Y-98285497D01*
X186975174Y-98099033D01*
X186979430Y-97772542D01*
X187011099Y-97580117D01*
X187103865Y-97486607D01*
X187291414Y-97456860D01*
X187591700Y-97455661D01*
X187717479Y-97427277D01*
X187739867Y-97395147D01*
X187806842Y-97315501D01*
X187866199Y-97285505D01*
X187999017Y-97320373D01*
G37*
D12*
%TO.C,C3*%
X160400800Y-78906800D02*
X160400800Y-78166800D01*
X160440800Y-79073800D02*
X160440800Y-77999800D01*
X160480800Y-79200800D02*
X160480800Y-77872800D01*
X160520800Y-79304800D02*
X160520800Y-77768800D01*
X160560800Y-79395800D02*
X160560800Y-77677800D01*
X160600800Y-79476800D02*
X160600800Y-77596800D01*
X160640800Y-79549800D02*
X160640800Y-77523800D01*
X160680800Y-79616800D02*
X160680800Y-77456800D01*
X160720800Y-79678800D02*
X160720800Y-77394800D01*
X160760800Y-79736800D02*
X160760800Y-77336800D01*
X160800800Y-79790800D02*
X160800800Y-77282800D01*
X160840800Y-79840800D02*
X160840800Y-77232800D01*
X160880800Y-79887800D02*
X160880800Y-77185800D01*
X160920800Y-77696800D02*
X160920800Y-77140800D01*
X160920800Y-79932800D02*
X160920800Y-79376800D01*
X160960800Y-77696800D02*
X160960800Y-77098800D01*
X160960800Y-79974800D02*
X160960800Y-79376800D01*
X161000800Y-77696800D02*
X161000800Y-77058800D01*
X161000800Y-80014800D02*
X161000800Y-79376800D01*
X161040800Y-77696800D02*
X161040800Y-77020800D01*
X161040800Y-80052800D02*
X161040800Y-79376800D01*
X161080800Y-77696800D02*
X161080800Y-76984800D01*
X161080800Y-80088800D02*
X161080800Y-79376800D01*
X161120800Y-77696800D02*
X161120800Y-76949800D01*
X161120800Y-80123800D02*
X161120800Y-79376800D01*
X161160800Y-77696800D02*
X161160800Y-76917800D01*
X161160800Y-80155800D02*
X161160800Y-79376800D01*
X161200800Y-77696800D02*
X161200800Y-76886800D01*
X161200800Y-80186800D02*
X161200800Y-79376800D01*
X161240800Y-77696800D02*
X161240800Y-76856800D01*
X161240800Y-80216800D02*
X161240800Y-79376800D01*
X161280800Y-77696800D02*
X161280800Y-76828800D01*
X161280800Y-80244800D02*
X161280800Y-79376800D01*
X161320800Y-77696800D02*
X161320800Y-76801800D01*
X161320800Y-80271800D02*
X161320800Y-79376800D01*
X161360800Y-77696800D02*
X161360800Y-76776800D01*
X161360800Y-80296800D02*
X161360800Y-79376800D01*
X161400800Y-77696800D02*
X161400800Y-76751800D01*
X161400800Y-80321800D02*
X161400800Y-79376800D01*
X161440800Y-77696800D02*
X161440800Y-76728800D01*
X161440800Y-80344800D02*
X161440800Y-79376800D01*
X161480800Y-77696800D02*
X161480800Y-76706800D01*
X161480800Y-80366800D02*
X161480800Y-79376800D01*
X161520800Y-77696800D02*
X161520800Y-76685800D01*
X161520800Y-80387800D02*
X161520800Y-79376800D01*
X161560800Y-77696800D02*
X161560800Y-76666800D01*
X161560800Y-80406800D02*
X161560800Y-79376800D01*
X161600800Y-77696800D02*
X161600800Y-76647800D01*
X161600800Y-80425800D02*
X161600800Y-79376800D01*
X161640800Y-77696800D02*
X161640800Y-76629800D01*
X161640800Y-80443800D02*
X161640800Y-79376800D01*
X161680800Y-77696800D02*
X161680800Y-76612800D01*
X161680800Y-80460800D02*
X161680800Y-79376800D01*
X161720800Y-77696800D02*
X161720800Y-76596800D01*
X161720800Y-80476800D02*
X161720800Y-79376800D01*
X161760800Y-77696800D02*
X161760800Y-76582800D01*
X161760800Y-80490800D02*
X161760800Y-79376800D01*
X161801800Y-77696800D02*
X161801800Y-76568800D01*
X161801800Y-80504800D02*
X161801800Y-79376800D01*
X161841800Y-77696800D02*
X161841800Y-76554800D01*
X161841800Y-80518800D02*
X161841800Y-79376800D01*
X161881800Y-77696800D02*
X161881800Y-76542800D01*
X161881800Y-80530800D02*
X161881800Y-79376800D01*
X161921800Y-77696800D02*
X161921800Y-76531800D01*
X161921800Y-80541800D02*
X161921800Y-79376800D01*
X161961800Y-77696800D02*
X161961800Y-76520800D01*
X161961800Y-80552800D02*
X161961800Y-79376800D01*
X162001800Y-77696800D02*
X162001800Y-76511800D01*
X162001800Y-80561800D02*
X162001800Y-79376800D01*
X162041800Y-77696800D02*
X162041800Y-76502800D01*
X162041800Y-80570800D02*
X162041800Y-79376800D01*
X162081800Y-77696800D02*
X162081800Y-76494800D01*
X162081800Y-80578800D02*
X162081800Y-79376800D01*
X162121800Y-77696800D02*
X162121800Y-76486800D01*
X162121800Y-80586800D02*
X162121800Y-79376800D01*
X162161800Y-77696800D02*
X162161800Y-76480800D01*
X162161800Y-80592800D02*
X162161800Y-79376800D01*
X162201800Y-77696800D02*
X162201800Y-76474800D01*
X162201800Y-80598800D02*
X162201800Y-79376800D01*
X162241800Y-77696800D02*
X162241800Y-76469800D01*
X162241800Y-80603800D02*
X162241800Y-79376800D01*
X162281800Y-77696800D02*
X162281800Y-76465800D01*
X162281800Y-80607800D02*
X162281800Y-79376800D01*
X162321800Y-77696800D02*
X162321800Y-76462800D01*
X162321800Y-80610800D02*
X162321800Y-79376800D01*
X162361800Y-77696800D02*
X162361800Y-76459800D01*
X162361800Y-80613800D02*
X162361800Y-79376800D01*
X162401800Y-77696800D02*
X162401800Y-76457800D01*
X162401800Y-80615800D02*
X162401800Y-79376800D01*
X162441800Y-77696800D02*
X162441800Y-76456800D01*
X162441800Y-80616800D02*
X162441800Y-79376800D01*
X162481800Y-77696800D02*
X162481800Y-76456800D01*
X162481800Y-80616800D02*
X162481800Y-79376800D01*
X164551601Y-79931800D02*
X164551601Y-79531800D01*
X164751601Y-79731800D02*
X164351601Y-79731800D01*
X164601800Y-78536800D02*
G75*
G02*
X160361800Y-78536800I-2120000J0D01*
G01*
X160361800Y-78536800D02*
G75*
G02*
X164601800Y-78536800I2120000J0D01*
G01*
D15*
%TO.C,G\u002A\u002A\u002A*%
G36*
X152834611Y-64541520D02*
G01*
X152830300Y-64545831D01*
X152825989Y-64541520D01*
X152830300Y-64537209D01*
X152834611Y-64541520D01*
G37*
G36*
X152886342Y-64593252D02*
G01*
X152882031Y-64597562D01*
X152877720Y-64593252D01*
X152882031Y-64588941D01*
X152886342Y-64593252D01*
G37*
G36*
X152920829Y-64524277D02*
G01*
X152916518Y-64528588D01*
X152912207Y-64524277D01*
X152916518Y-64519966D01*
X152920829Y-64524277D01*
G37*
G36*
X153627822Y-63429300D02*
G01*
X153623511Y-63433611D01*
X153619200Y-63429300D01*
X153623511Y-63424989D01*
X153627822Y-63429300D01*
G37*
G36*
X153705418Y-63455166D02*
G01*
X153701108Y-63459477D01*
X153696797Y-63455166D01*
X153701108Y-63450855D01*
X153705418Y-63455166D01*
G37*
G36*
X154343436Y-65619253D02*
G01*
X154339125Y-65623564D01*
X154334814Y-65619253D01*
X154339125Y-65614942D01*
X154343436Y-65619253D01*
G37*
G36*
X153403031Y-63541131D02*
G01*
X153403653Y-63545696D01*
X153400499Y-63552792D01*
X153397905Y-63551443D01*
X153396874Y-63541211D01*
X153397905Y-63539948D01*
X153403031Y-63541131D01*
G37*
G36*
X153670309Y-63437669D02*
G01*
X153670931Y-63442233D01*
X153667776Y-63449330D01*
X153665183Y-63447981D01*
X153664151Y-63437749D01*
X153665183Y-63436485D01*
X153670309Y-63437669D01*
G37*
G36*
X153347289Y-63536651D02*
G01*
X153348435Y-63538406D01*
X153349451Y-63544306D01*
X153344632Y-63542208D01*
X153335449Y-63534193D01*
X153334678Y-63532254D01*
X153338770Y-63528710D01*
X153347289Y-63536651D01*
G37*
G36*
X153373536Y-63520722D02*
G01*
X153372922Y-63522357D01*
X153366092Y-63532915D01*
X153362209Y-63532991D01*
X153363176Y-63523870D01*
X153368096Y-63517531D01*
X153375345Y-63512082D01*
X153373536Y-63520722D01*
G37*
G36*
X152882158Y-64500520D02*
G01*
X152891160Y-64507509D01*
X152902268Y-64516790D01*
X152899155Y-64516563D01*
X152888497Y-64511516D01*
X152873801Y-64502995D01*
X152869098Y-64498108D01*
X152871807Y-64494509D01*
X152882158Y-64500520D01*
G37*
G36*
X153480876Y-63406164D02*
G01*
X153481250Y-63412057D01*
X153476738Y-63423533D01*
X153472899Y-63424989D01*
X153468155Y-63418670D01*
X153469510Y-63412057D01*
X153475630Y-63400712D01*
X153477862Y-63399124D01*
X153480876Y-63406164D01*
G37*
G36*
X153616638Y-63363212D02*
G01*
X153622837Y-63377955D01*
X153625932Y-63398425D01*
X153622580Y-63405069D01*
X153614109Y-63396560D01*
X153610478Y-63390315D01*
X153605177Y-63370906D01*
X153608686Y-63363080D01*
X153616638Y-63363212D01*
G37*
G36*
X153713941Y-63431660D02*
G01*
X153714040Y-63433611D01*
X153707412Y-63441902D01*
X153704910Y-63442233D01*
X153699760Y-63436951D01*
X153701108Y-63433611D01*
X153708855Y-63425386D01*
X153710238Y-63424989D01*
X153713941Y-63431660D01*
G37*
G36*
X153041224Y-64427723D02*
G01*
X153046720Y-64435903D01*
X153048580Y-64442031D01*
X153045866Y-64440288D01*
X153034311Y-64439602D01*
X153025085Y-64444599D01*
X153016040Y-64451029D01*
X153018774Y-64445938D01*
X153023192Y-64440214D01*
X153034457Y-64427466D01*
X153041224Y-64427723D01*
G37*
G36*
X153394936Y-63567920D02*
G01*
X153395031Y-63572070D01*
X153390052Y-63577598D01*
X153387562Y-63576584D01*
X153376976Y-63578735D01*
X153364855Y-63588805D01*
X153351079Y-63599765D01*
X153342148Y-63601025D01*
X153334922Y-63590823D01*
X153344410Y-63580155D01*
X153361831Y-63572405D01*
X153382943Y-63565303D01*
X153392426Y-63563824D01*
X153394936Y-63567920D01*
G37*
G36*
X153443837Y-63418647D02*
G01*
X153439384Y-63430481D01*
X153436139Y-63435767D01*
X153421388Y-63458823D01*
X153411865Y-63474012D01*
X153396485Y-63490679D01*
X153380034Y-63497160D01*
X153367566Y-63491933D01*
X153365412Y-63487995D01*
X153360945Y-63469921D01*
X153367313Y-63463964D01*
X153376948Y-63465381D01*
X153394027Y-63462273D01*
X153412775Y-63443400D01*
X153413057Y-63443019D01*
X153427924Y-63425780D01*
X153439101Y-63417368D01*
X153443837Y-63418647D01*
G37*
G36*
X152962167Y-64595893D02*
G01*
X152961189Y-64604009D01*
X152953161Y-64604029D01*
X152944647Y-64608292D01*
X152944539Y-64612651D01*
X152942544Y-64622313D01*
X152929918Y-64618737D01*
X152913506Y-64607465D01*
X152900092Y-64595563D01*
X152899650Y-64586712D01*
X152901456Y-64584630D01*
X152920829Y-64584630D01*
X152925140Y-64588941D01*
X152929451Y-64584630D01*
X152925140Y-64580319D01*
X152920829Y-64584630D01*
X152901456Y-64584630D01*
X152907656Y-64577480D01*
X152923709Y-64564983D01*
X152936920Y-64566921D01*
X152949669Y-64578842D01*
X152953911Y-64584630D01*
X152962167Y-64595893D01*
G37*
G36*
X153565145Y-63401128D02*
G01*
X153560995Y-63412222D01*
X153556285Y-63429618D01*
X153557819Y-63447574D01*
X153564539Y-63458621D01*
X153567683Y-63459477D01*
X153578048Y-63465364D01*
X153595567Y-63480328D01*
X153616209Y-63500328D01*
X153635939Y-63521321D01*
X153650724Y-63539262D01*
X153656060Y-63548064D01*
X153658397Y-63560865D01*
X153651268Y-63560667D01*
X153635891Y-63548009D01*
X153621522Y-63532763D01*
X153601808Y-63514562D01*
X153583211Y-63503818D01*
X153577130Y-63502586D01*
X153559332Y-63495611D01*
X153550030Y-63484977D01*
X153544080Y-63464270D01*
X153543348Y-63439228D01*
X153547235Y-63416390D01*
X153555145Y-63402291D01*
X153557712Y-63400887D01*
X153565145Y-63401128D01*
G37*
G36*
X153301402Y-63360611D02*
G01*
X153298969Y-63368947D01*
X153298474Y-63382332D01*
X153304222Y-63401877D01*
X153314476Y-63426185D01*
X153337860Y-63395527D01*
X153356766Y-63374225D01*
X153375489Y-63358381D01*
X153380294Y-63355552D01*
X153392101Y-63350172D01*
X153390897Y-63352773D01*
X153378671Y-63362899D01*
X153362523Y-63383382D01*
X153357116Y-63412791D01*
X153353587Y-63437803D01*
X153344907Y-63449328D01*
X153342797Y-63452129D01*
X153336367Y-63455931D01*
X153316501Y-63465843D01*
X153335079Y-63470702D01*
X153347941Y-63478299D01*
X153347147Y-63486094D01*
X153345556Y-63492590D01*
X153350590Y-63490477D01*
X153359457Y-63489991D01*
X153360544Y-63493456D01*
X153355561Y-63502002D01*
X153345382Y-63499710D01*
X153337796Y-63489653D01*
X153326656Y-63478190D01*
X153320314Y-63476721D01*
X153311544Y-63480318D01*
X153312046Y-63483599D01*
X153311741Y-63495877D01*
X153308376Y-63502998D01*
X153302024Y-63510327D01*
X153300335Y-63501421D01*
X153300323Y-63500431D01*
X153295712Y-63487638D01*
X153290647Y-63485342D01*
X153284950Y-63479045D01*
X153286190Y-63472083D01*
X153284815Y-63458456D01*
X153279605Y-63454344D01*
X153272847Y-63445577D01*
X153271292Y-63435883D01*
X153311342Y-63435883D01*
X153313124Y-63442233D01*
X153325428Y-63449735D01*
X153333032Y-63450723D01*
X153342681Y-63449328D01*
X153336413Y-63443367D01*
X153334678Y-63442233D01*
X153318882Y-63434617D01*
X153311342Y-63435883D01*
X153271292Y-63435883D01*
X153269433Y-63424290D01*
X153268921Y-63390798D01*
X153270520Y-63360326D01*
X153282947Y-63360326D01*
X153287258Y-63364636D01*
X153291569Y-63360326D01*
X153287258Y-63356015D01*
X153282947Y-63360326D01*
X153270520Y-63360326D01*
X153270623Y-63358370D01*
X153274226Y-63340086D01*
X153278585Y-63336906D01*
X153281210Y-63335840D01*
X153276226Y-63328458D01*
X153270854Y-63317339D01*
X153275233Y-63304423D01*
X153287770Y-63288004D01*
X153304117Y-63271050D01*
X153317112Y-63261770D01*
X153319537Y-63261174D01*
X153321651Y-63266342D01*
X153314460Y-63276941D01*
X153303281Y-63291976D01*
X153300581Y-63301194D01*
X153307274Y-63300868D01*
X153308813Y-63299972D01*
X153316770Y-63300367D01*
X153317435Y-63303266D01*
X153311118Y-63315370D01*
X153308304Y-63317531D01*
X153301937Y-63329640D01*
X153301571Y-63341750D01*
X153301405Y-63360326D01*
X153301402Y-63360611D01*
G37*
G36*
X153840715Y-64184788D02*
G01*
X153842647Y-64187156D01*
X153849277Y-64198750D01*
X153841850Y-64205361D01*
X153840028Y-64206088D01*
X153827586Y-64217275D01*
X153829389Y-64231105D01*
X153840038Y-64238938D01*
X153842979Y-64241192D01*
X153847739Y-64244841D01*
X153849651Y-64253197D01*
X153850634Y-64257492D01*
X153849717Y-64274243D01*
X153849337Y-64281173D01*
X153847899Y-64293747D01*
X153839058Y-64334099D01*
X153821664Y-64364543D01*
X153792106Y-64390597D01*
X153778851Y-64399308D01*
X153752785Y-64419729D01*
X153738126Y-64439757D01*
X153737785Y-64441785D01*
X153736962Y-64446680D01*
X153735276Y-64456708D01*
X153744639Y-64467893D01*
X153766618Y-64470629D01*
X153768174Y-64470483D01*
X153786304Y-64470544D01*
X153799381Y-64477789D01*
X153812905Y-64495884D01*
X153817503Y-64503363D01*
X153834279Y-64526289D01*
X153845799Y-64537209D01*
X153851666Y-64542770D01*
X153858104Y-64546427D01*
X153877194Y-64561667D01*
X153894965Y-64589936D01*
X153904560Y-64614806D01*
X153909278Y-64627036D01*
X153917096Y-64662170D01*
X153920554Y-64681624D01*
X153921317Y-64685917D01*
X153922281Y-64688092D01*
X153925032Y-64694302D01*
X153929229Y-64689145D01*
X153930292Y-64686436D01*
X153944159Y-64667312D01*
X153963509Y-64660609D01*
X153982677Y-64667427D01*
X153989563Y-64674950D01*
X154003039Y-64692403D01*
X154006158Y-64696443D01*
X154014016Y-64705336D01*
X154020557Y-64712738D01*
X154037291Y-64733611D01*
X154048400Y-64749882D01*
X154052276Y-64755559D01*
X154059422Y-64766025D01*
X154067328Y-64778645D01*
X154075415Y-64791554D01*
X154080817Y-64800176D01*
X154084553Y-64806140D01*
X154090586Y-64816449D01*
X154099984Y-64832508D01*
X154108814Y-64847596D01*
X154110288Y-64850115D01*
X154125341Y-64877773D01*
X154134232Y-64894109D01*
X154136934Y-64899328D01*
X154143738Y-64912260D01*
X154151618Y-64927239D01*
X154155265Y-64933815D01*
X154163495Y-64948653D01*
X154170216Y-64959345D01*
X154170534Y-64959681D01*
X154175966Y-64965831D01*
X154181427Y-64972013D01*
X154197860Y-64993115D01*
X154215743Y-65017449D01*
X154230988Y-65039480D01*
X154237676Y-65050341D01*
X154238574Y-65051799D01*
X154241239Y-65058832D01*
X154246630Y-65073062D01*
X154248753Y-65086286D01*
X154249549Y-65088943D01*
X154253485Y-65102084D01*
X154262282Y-65119185D01*
X154265407Y-65125261D01*
X154274618Y-65139882D01*
X154289268Y-65164045D01*
X154298578Y-65184288D01*
X154300327Y-65191993D01*
X154305924Y-65204612D01*
X154320783Y-65225495D01*
X154322016Y-65226958D01*
X154342005Y-65250680D01*
X154348274Y-65257515D01*
X154363174Y-65274378D01*
X154378410Y-65291622D01*
X154382414Y-65296153D01*
X154405461Y-65328129D01*
X154416652Y-65351152D01*
X154419771Y-65357569D01*
X154423114Y-65370656D01*
X154427699Y-65388602D01*
X154429256Y-65399395D01*
X154431785Y-65412328D01*
X154434246Y-65424912D01*
X154438243Y-65429572D01*
X154443714Y-65435950D01*
X154461942Y-65435274D01*
X154477804Y-65430736D01*
X154491519Y-65430063D01*
X154503194Y-65440492D01*
X154512096Y-65455309D01*
X154523324Y-65473558D01*
X154523882Y-65474465D01*
X154533187Y-65484945D01*
X154534902Y-65485614D01*
X154539936Y-65490083D01*
X154543031Y-65492830D01*
X154549172Y-65502858D01*
X154553977Y-65510704D01*
X154564988Y-65533576D01*
X154573310Y-65555783D01*
X154574732Y-65563007D01*
X154576226Y-65570596D01*
X154581714Y-65583616D01*
X154583302Y-65587384D01*
X154597896Y-65603849D01*
X154602147Y-65608645D01*
X154629185Y-65630980D01*
X154644348Y-65640567D01*
X154660827Y-65650986D01*
X154682511Y-65667240D01*
X154686081Y-65670984D01*
X154704869Y-65690689D01*
X154711676Y-65699611D01*
X154715898Y-65704500D01*
X154732955Y-65724250D01*
X154757281Y-65744855D01*
X154764934Y-65749624D01*
X154777579Y-65758142D01*
X154787017Y-65764500D01*
X154811444Y-65784505D01*
X154813993Y-65786593D01*
X154833908Y-65805163D01*
X154846601Y-65816554D01*
X154862615Y-65830925D01*
X154890232Y-65852043D01*
X154894333Y-65855179D01*
X154913624Y-65867604D01*
X154918882Y-65871126D01*
X154941619Y-65886355D01*
X154957534Y-65903068D01*
X154957779Y-65904337D01*
X154960006Y-65915886D01*
X154953172Y-65921484D01*
X154938662Y-65923473D01*
X154914093Y-65923824D01*
X154900361Y-65923313D01*
X154870969Y-65923934D01*
X154856754Y-65930446D01*
X154857553Y-65943761D01*
X154873207Y-65964792D01*
X154874152Y-65965750D01*
X154890006Y-65981824D01*
X154910623Y-66002861D01*
X154924981Y-66019961D01*
X154929723Y-66028646D01*
X154922101Y-66035864D01*
X154900577Y-66036652D01*
X154867158Y-66031228D01*
X154823855Y-66019806D01*
X154811500Y-66015969D01*
X154766588Y-66002506D01*
X154737246Y-65995905D01*
X154723180Y-65996259D01*
X154724101Y-66003666D01*
X154739715Y-66018221D01*
X154759625Y-66032992D01*
X154800511Y-66063919D01*
X154832276Y-66092125D01*
X154852994Y-66115699D01*
X154860735Y-66132728D01*
X154860748Y-66133257D01*
X154858221Y-66146730D01*
X154855049Y-66149497D01*
X154846032Y-66144664D01*
X154826771Y-66131743D01*
X154800735Y-66113104D01*
X154788229Y-66103853D01*
X154744207Y-66071196D01*
X154711988Y-66047897D01*
X154689741Y-66032753D01*
X154675640Y-66024562D01*
X154667854Y-66022122D01*
X154665324Y-66023039D01*
X154667890Y-66031553D01*
X154679288Y-66049050D01*
X154695030Y-66069244D01*
X154713989Y-66093768D01*
X154731612Y-66119444D01*
X154745682Y-66142605D01*
X154753982Y-66159582D01*
X154754295Y-66166706D01*
X154753953Y-66166741D01*
X154747494Y-66160264D01*
X154733796Y-66143106D01*
X154715554Y-66118678D01*
X154711334Y-66112854D01*
X154697364Y-66094250D01*
X154682629Y-66076734D01*
X154665781Y-66059331D01*
X154645473Y-66041065D01*
X154620357Y-66020960D01*
X154589084Y-65998041D01*
X154550308Y-65971333D01*
X154502680Y-65939858D01*
X154500085Y-65938188D01*
X154527914Y-65938188D01*
X154528777Y-65942526D01*
X154540150Y-65953231D01*
X154551494Y-65960423D01*
X154563575Y-65965750D01*
X154563433Y-65959915D01*
X154559332Y-65951847D01*
X154546759Y-65937777D01*
X154536616Y-65933951D01*
X154527914Y-65938188D01*
X154500085Y-65938188D01*
X154444852Y-65902643D01*
X154440795Y-65900074D01*
X154477075Y-65900074D01*
X154496745Y-65910994D01*
X154509438Y-65920773D01*
X154510980Y-65927348D01*
X154513390Y-65929811D01*
X154523642Y-65928050D01*
X154539053Y-65918642D01*
X154539070Y-65904337D01*
X154523763Y-65887865D01*
X154522577Y-65887019D01*
X154504736Y-65875656D01*
X154499776Y-65875631D01*
X154507251Y-65886531D01*
X154512631Y-65896204D01*
X154504066Y-65899517D01*
X154497530Y-65899769D01*
X154477075Y-65900074D01*
X154440795Y-65900074D01*
X154377760Y-65860156D01*
X154472764Y-65860156D01*
X154478888Y-65867449D01*
X154482718Y-65870110D01*
X154488618Y-65871126D01*
X154486520Y-65866308D01*
X154477839Y-65857052D01*
X154472848Y-65858951D01*
X154472764Y-65860156D01*
X154377760Y-65860156D01*
X154375477Y-65858710D01*
X154364852Y-65852043D01*
X154507251Y-65852043D01*
X154511562Y-65856354D01*
X154515873Y-65852043D01*
X154511562Y-65847732D01*
X154507251Y-65852043D01*
X154364852Y-65852043D01*
X154297746Y-65809935D01*
X154406719Y-65809935D01*
X154408100Y-65813245D01*
X154419522Y-65821545D01*
X154422051Y-65821867D01*
X154426725Y-65816554D01*
X154425344Y-65813245D01*
X154413922Y-65804945D01*
X154411393Y-65804623D01*
X154406719Y-65809935D01*
X154297746Y-65809935D01*
X154293206Y-65807086D01*
X154261691Y-65787379D01*
X154252964Y-65781912D01*
X154388070Y-65781912D01*
X154389419Y-65784505D01*
X154399651Y-65785537D01*
X154400915Y-65784505D01*
X154399732Y-65779380D01*
X154395167Y-65778757D01*
X154388070Y-65781912D01*
X154252964Y-65781912D01*
X154199563Y-65748461D01*
X154150346Y-65717388D01*
X154112254Y-65692983D01*
X154105027Y-65688228D01*
X154136511Y-65688228D01*
X154140822Y-65692539D01*
X154145133Y-65688228D01*
X154140822Y-65683917D01*
X154136511Y-65688228D01*
X154105027Y-65688228D01*
X154083504Y-65674068D01*
X154062309Y-65659468D01*
X154060402Y-65658051D01*
X154231352Y-65658051D01*
X154237980Y-65666342D01*
X154240483Y-65666673D01*
X154245632Y-65661391D01*
X154244285Y-65658051D01*
X154236537Y-65649826D01*
X154235154Y-65649429D01*
X154231451Y-65656100D01*
X154231352Y-65658051D01*
X154060402Y-65658051D01*
X154046885Y-65648006D01*
X154035448Y-65638505D01*
X154034336Y-65637511D01*
X154033211Y-65636288D01*
X154257217Y-65636288D01*
X154263195Y-65649331D01*
X154273154Y-65661391D01*
X154278310Y-65667634D01*
X154287172Y-65676269D01*
X154298357Y-65688228D01*
X154303747Y-65693991D01*
X154311864Y-65708077D01*
X154311705Y-65712298D01*
X154311895Y-65716906D01*
X154316238Y-65714917D01*
X154330687Y-65711450D01*
X154336975Y-65718441D01*
X154330886Y-65730224D01*
X154328864Y-65731891D01*
X154318601Y-65740856D01*
X154323643Y-65743693D01*
X154332659Y-65743996D01*
X154347810Y-65747260D01*
X154352058Y-65752356D01*
X154359126Y-65758782D01*
X154367146Y-65759557D01*
X154385816Y-65760823D01*
X154410342Y-65765101D01*
X154411550Y-65765373D01*
X154430726Y-65768725D01*
X154437123Y-65765774D01*
X154435454Y-65757972D01*
X154433669Y-65748651D01*
X154442084Y-65750444D01*
X154447831Y-65753391D01*
X154463411Y-65759010D01*
X154470387Y-65758142D01*
X154467166Y-65752029D01*
X154454561Y-65745455D01*
X154435831Y-65733271D01*
X154416542Y-65713613D01*
X154413807Y-65710048D01*
X154406157Y-65701161D01*
X154455520Y-65701161D01*
X154462148Y-65709451D01*
X154464651Y-65709782D01*
X154469800Y-65704500D01*
X154468453Y-65701161D01*
X154460705Y-65692935D01*
X154459322Y-65692539D01*
X154455619Y-65699209D01*
X154455520Y-65701161D01*
X154406157Y-65701161D01*
X154398520Y-65692288D01*
X154389778Y-65687385D01*
X154389711Y-65694889D01*
X154399590Y-65713054D01*
X154406007Y-65723755D01*
X154405366Y-65727396D01*
X154395433Y-65723420D01*
X154373978Y-65711271D01*
X154360487Y-65703296D01*
X154333398Y-65685842D01*
X154314050Y-65670984D01*
X154464142Y-65670984D01*
X154468453Y-65675295D01*
X154472764Y-65670984D01*
X154468453Y-65666673D01*
X154464142Y-65670984D01*
X154314050Y-65670984D01*
X154312648Y-65669907D01*
X154302491Y-65658781D01*
X154302306Y-65658322D01*
X154294721Y-65644454D01*
X154371071Y-65644454D01*
X154372714Y-65647094D01*
X154381006Y-65649103D01*
X154384449Y-65640567D01*
X154381519Y-65631028D01*
X154374908Y-65624500D01*
X154371136Y-65630994D01*
X154371113Y-65635801D01*
X154371071Y-65644454D01*
X154294721Y-65644454D01*
X154291593Y-65638736D01*
X154277965Y-65626237D01*
X154265409Y-65622774D01*
X154257911Y-65630295D01*
X154257217Y-65636288D01*
X154033211Y-65636288D01*
X154022764Y-65624934D01*
X154003017Y-65601187D01*
X154156629Y-65601187D01*
X154162610Y-65609414D01*
X154168848Y-65608609D01*
X154176523Y-65603134D01*
X154169566Y-65596630D01*
X154159071Y-65590148D01*
X154157348Y-65589208D01*
X154156697Y-65596072D01*
X154156629Y-65601187D01*
X154003017Y-65601187D01*
X154002938Y-65601092D01*
X153992154Y-65587609D01*
X154216329Y-65587609D01*
X154220069Y-65603134D01*
X154220450Y-65604717D01*
X154229738Y-65617313D01*
X154238516Y-65615843D01*
X154244749Y-65607976D01*
X154237548Y-65596560D01*
X154235273Y-65594230D01*
X154222702Y-65584612D01*
X154303356Y-65584612D01*
X154307452Y-65594901D01*
X154316845Y-65607976D01*
X154320557Y-65613143D01*
X154333362Y-65626561D01*
X154345773Y-65637068D01*
X154349249Y-65635801D01*
X154348104Y-65626464D01*
X154341565Y-65614321D01*
X154335635Y-65612850D01*
X154325874Y-65607402D01*
X154317499Y-65592878D01*
X154455520Y-65592878D01*
X154461644Y-65600171D01*
X154465474Y-65602832D01*
X154471374Y-65603849D01*
X154469276Y-65599030D01*
X154460595Y-65589774D01*
X154455604Y-65591673D01*
X154455520Y-65592878D01*
X154317499Y-65592878D01*
X154317140Y-65592255D01*
X154309543Y-65577449D01*
X154303698Y-65574209D01*
X154303356Y-65584612D01*
X154222702Y-65584612D01*
X154221352Y-65583579D01*
X154216329Y-65587609D01*
X153992154Y-65587609D01*
X153976908Y-65568547D01*
X153975206Y-65566366D01*
X154140307Y-65566366D01*
X154146099Y-65572429D01*
X154161199Y-65575497D01*
X154175186Y-65570660D01*
X154176922Y-65567665D01*
X154413704Y-65567665D01*
X154414894Y-65576523D01*
X154419452Y-65582323D01*
X154428133Y-65587183D01*
X154429655Y-65583616D01*
X154425404Y-65570974D01*
X154416886Y-65566050D01*
X154413704Y-65567665D01*
X154176922Y-65567665D01*
X154179621Y-65563007D01*
X154172934Y-65553801D01*
X154158388Y-65552176D01*
X154146881Y-65557141D01*
X154140307Y-65566366D01*
X153975206Y-65566366D01*
X153946725Y-65529860D01*
X153916202Y-65489925D01*
X153909779Y-65481447D01*
X154086074Y-65481447D01*
X154087263Y-65490305D01*
X154091821Y-65496104D01*
X154100502Y-65500964D01*
X154101589Y-65498416D01*
X154114146Y-65498416D01*
X154114957Y-65502858D01*
X154125979Y-65511151D01*
X154128398Y-65511480D01*
X154136279Y-65504903D01*
X154136511Y-65502858D01*
X154129494Y-65495291D01*
X154123070Y-65494236D01*
X154116321Y-65497397D01*
X154114146Y-65498416D01*
X154101589Y-65498416D01*
X154102024Y-65497397D01*
X154097773Y-65484755D01*
X154089255Y-65479831D01*
X154086074Y-65481447D01*
X153909779Y-65481447D01*
X153907342Y-65478230D01*
X154310096Y-65478230D01*
X154313243Y-65484746D01*
X154319829Y-65491567D01*
X154332887Y-65500786D01*
X154339783Y-65500763D01*
X154341504Y-65490083D01*
X154331917Y-65480230D01*
X154319525Y-65476992D01*
X154310096Y-65478230D01*
X153907342Y-65478230D01*
X153886764Y-65451071D01*
X154058915Y-65451071D01*
X154066020Y-65457002D01*
X154082503Y-65464697D01*
X154101115Y-65471349D01*
X154114608Y-65474150D01*
X154116954Y-65473558D01*
X154114250Y-65465916D01*
X154106671Y-65457005D01*
X154092499Y-65448719D01*
X154075235Y-65444960D01*
X154061994Y-65446611D01*
X154058915Y-65451071D01*
X153886764Y-65451071D01*
X153879616Y-65441637D01*
X153870456Y-65429572D01*
X153998562Y-65429572D01*
X154002873Y-65433883D01*
X154007184Y-65429572D01*
X154002873Y-65425261D01*
X153998562Y-65429572D01*
X153870456Y-65429572D01*
X153857364Y-65412328D01*
X154041671Y-65412328D01*
X154045982Y-65416639D01*
X154050293Y-65412328D01*
X154045982Y-65408017D01*
X154041671Y-65412328D01*
X153857364Y-65412328D01*
X153841247Y-65391100D01*
X153821322Y-65364908D01*
X154007184Y-65364908D01*
X154010125Y-65373306D01*
X154010986Y-65373530D01*
X154017646Y-65368063D01*
X154069062Y-65368063D01*
X154070411Y-65370656D01*
X154080643Y-65371688D01*
X154081906Y-65370656D01*
X154080723Y-65365530D01*
X154076158Y-65364908D01*
X154069062Y-65368063D01*
X154017646Y-65368063D01*
X154018347Y-65367488D01*
X154020116Y-65364908D01*
X154019433Y-65356963D01*
X154016314Y-65356286D01*
X154007534Y-65362545D01*
X154007184Y-65364908D01*
X153821322Y-65364908D01*
X153811484Y-65351975D01*
X153877856Y-65351975D01*
X153882167Y-65356286D01*
X153886477Y-65351975D01*
X153882167Y-65347664D01*
X153877856Y-65351975D01*
X153811484Y-65351975D01*
X153804413Y-65342679D01*
X153778633Y-65308866D01*
X153851990Y-65308866D01*
X153856301Y-65313177D01*
X153858675Y-65310803D01*
X153923839Y-65310803D01*
X153930138Y-65326306D01*
X153944642Y-65343246D01*
X153957036Y-65351975D01*
X153960758Y-65354596D01*
X153966230Y-65355999D01*
X153972773Y-65351152D01*
X153968223Y-65337827D01*
X153953898Y-65319514D01*
X153951533Y-65317096D01*
X153934728Y-65301188D01*
X153926558Y-65297278D01*
X153923983Y-65304676D01*
X153923885Y-65308866D01*
X153923839Y-65310803D01*
X153858675Y-65310803D01*
X153860612Y-65308866D01*
X153856301Y-65304555D01*
X153851990Y-65308866D01*
X153778633Y-65308866D01*
X153772435Y-65300737D01*
X153765464Y-65291622D01*
X153886477Y-65291622D01*
X153890788Y-65295933D01*
X153895099Y-65291622D01*
X153890788Y-65287311D01*
X153886477Y-65291622D01*
X153765464Y-65291622D01*
X153755411Y-65278478D01*
X153752311Y-65274378D01*
X153955452Y-65274378D01*
X153959763Y-65278689D01*
X153964074Y-65274378D01*
X154014512Y-65274378D01*
X154021224Y-65284488D01*
X154023781Y-65285659D01*
X154031642Y-65281497D01*
X154033049Y-65274378D01*
X154028674Y-65263648D01*
X154023781Y-65263098D01*
X154014873Y-65271999D01*
X154014512Y-65274378D01*
X153964074Y-65274378D01*
X153959763Y-65270068D01*
X153955452Y-65274378D01*
X153752311Y-65274378D01*
X153725310Y-65238671D01*
X153719935Y-65231442D01*
X153862454Y-65231442D01*
X153863486Y-65232706D01*
X153868612Y-65231523D01*
X153869234Y-65226958D01*
X153866079Y-65219861D01*
X153863486Y-65221210D01*
X153862454Y-65231442D01*
X153719935Y-65231442D01*
X153689693Y-65190765D01*
X153652985Y-65140749D01*
X153629116Y-65107755D01*
X153802539Y-65107755D01*
X153805980Y-65112918D01*
X153808881Y-65114874D01*
X153824903Y-65121983D01*
X153837117Y-65122547D01*
X153838699Y-65119185D01*
X153955452Y-65119185D01*
X153959763Y-65123496D01*
X153964074Y-65119185D01*
X153959763Y-65114874D01*
X153958071Y-65116566D01*
X153955452Y-65119185D01*
X153838699Y-65119185D01*
X153839931Y-65116566D01*
X153839057Y-65114874D01*
X153827048Y-65107986D01*
X153814838Y-65106384D01*
X153802539Y-65107755D01*
X153629116Y-65107755D01*
X153619610Y-65094614D01*
X153619200Y-65094042D01*
X153599014Y-65066398D01*
X153731284Y-65066398D01*
X153737176Y-65073595D01*
X153746372Y-65081486D01*
X153756585Y-65088943D01*
X153754444Y-65084478D01*
X153749628Y-65078231D01*
X153737043Y-65064827D01*
X153731426Y-65064885D01*
X153731284Y-65066398D01*
X153599014Y-65066398D01*
X153593489Y-65058832D01*
X153826124Y-65058832D01*
X153830435Y-65063143D01*
X153834746Y-65058832D01*
X153830435Y-65054521D01*
X153826124Y-65058832D01*
X153593489Y-65058832D01*
X153584045Y-65045899D01*
X153739906Y-65045899D01*
X153746924Y-65053466D01*
X153753348Y-65054521D01*
X153762272Y-65050341D01*
X153761461Y-65045899D01*
X153750438Y-65037606D01*
X153748019Y-65037277D01*
X153740138Y-65043854D01*
X153739906Y-65045899D01*
X153584045Y-65045899D01*
X153576396Y-65035424D01*
X153539688Y-64987503D01*
X153512850Y-64954861D01*
X153688175Y-64954861D01*
X153694299Y-64962153D01*
X153698129Y-64964815D01*
X153704029Y-64965831D01*
X153701931Y-64961013D01*
X153693250Y-64951757D01*
X153688259Y-64953655D01*
X153688175Y-64954861D01*
X153512850Y-64954861D01*
X153509826Y-64951183D01*
X153497782Y-64938299D01*
X153698639Y-64938299D01*
X153699671Y-64939563D01*
X153704796Y-64938379D01*
X153705418Y-64933815D01*
X153702264Y-64926718D01*
X153701609Y-64927059D01*
X153699671Y-64928067D01*
X153698639Y-64938299D01*
X153497782Y-64938299D01*
X153487565Y-64927370D01*
X153473657Y-64916971D01*
X153471682Y-64916571D01*
X153462783Y-64923657D01*
X153462027Y-64925083D01*
X153456069Y-64936325D01*
X153444065Y-64957212D01*
X153434174Y-64968017D01*
X153429235Y-64976924D01*
X153427180Y-64980629D01*
X153423809Y-64986709D01*
X153424954Y-65000538D01*
X153422307Y-65020342D01*
X153416321Y-65031817D01*
X153408546Y-65046723D01*
X153391184Y-65069812D01*
X153386475Y-65076074D01*
X153361633Y-65101941D01*
X153358896Y-65104791D01*
X153340459Y-65119694D01*
X153328614Y-65129268D01*
X153320970Y-65134289D01*
X153300474Y-65149361D01*
X153299314Y-65150214D01*
X153287127Y-65163277D01*
X153285544Y-65164974D01*
X153282947Y-65171467D01*
X153282295Y-65175227D01*
X153279303Y-65192471D01*
X153277307Y-65203978D01*
X153276745Y-65205404D01*
X153273349Y-65214025D01*
X153271080Y-65219784D01*
X153262623Y-65241250D01*
X153259017Y-65247413D01*
X153251103Y-65260937D01*
X153242252Y-65276062D01*
X153227624Y-65293307D01*
X153224747Y-65296699D01*
X153206901Y-65314139D01*
X153200679Y-65323307D01*
X153204844Y-65327414D01*
X153212352Y-65328865D01*
X153227246Y-65335827D01*
X153231216Y-65343953D01*
X153229687Y-65347738D01*
X153228015Y-65351876D01*
X153224379Y-65360878D01*
X153208161Y-65378407D01*
X153207372Y-65378896D01*
X153189002Y-65390287D01*
X153181640Y-65392087D01*
X153166658Y-65394113D01*
X153156498Y-65395487D01*
X153136376Y-65401618D01*
X153102356Y-65410339D01*
X153075468Y-65406997D01*
X153066557Y-65402862D01*
X153050198Y-65397701D01*
X153024977Y-65393917D01*
X152995192Y-65391609D01*
X152965141Y-65390878D01*
X152939122Y-65391821D01*
X152921433Y-65394538D01*
X152916371Y-65399129D01*
X152916518Y-65399395D01*
X152915279Y-65405746D01*
X152914996Y-65407198D01*
X152910561Y-65408149D01*
X152904906Y-65410529D01*
X152912207Y-65416639D01*
X152930613Y-65423788D01*
X152938073Y-65424523D01*
X152943418Y-65422281D01*
X152940878Y-65420950D01*
X152955317Y-65420950D01*
X152959628Y-65425261D01*
X152963938Y-65420950D01*
X152959628Y-65416639D01*
X152955317Y-65420950D01*
X152940878Y-65420950D01*
X152934334Y-65417520D01*
X152923165Y-65411264D01*
X152926056Y-65407430D01*
X152940020Y-65405867D01*
X152962066Y-65406426D01*
X152989206Y-65408957D01*
X153018449Y-65413309D01*
X153046807Y-65419333D01*
X153052462Y-65420950D01*
X153063090Y-65423989D01*
X153076499Y-65428350D01*
X153088955Y-65432401D01*
X153058779Y-65434166D01*
X153043913Y-65435489D01*
X153042718Y-65437466D01*
X153056434Y-65440847D01*
X153075894Y-65444509D01*
X153111622Y-65454639D01*
X153130052Y-65462853D01*
X153146712Y-65470278D01*
X153159066Y-65477774D01*
X153182333Y-65492133D01*
X153196401Y-65495984D01*
X153203747Y-65491857D01*
X153206160Y-65477694D01*
X153198782Y-65461629D01*
X153185907Y-65451708D01*
X153182009Y-65451127D01*
X153168382Y-65445735D01*
X153153275Y-65433211D01*
X153142106Y-65419029D01*
X153140169Y-65408854D01*
X153151193Y-65405202D01*
X153169606Y-65411124D01*
X153190823Y-65423791D01*
X153210254Y-65440371D01*
X153223312Y-65458036D01*
X153224558Y-65460914D01*
X153223824Y-65478859D01*
X153213448Y-65497712D01*
X153198277Y-65510038D01*
X153191585Y-65511480D01*
X153176344Y-65507746D01*
X153153522Y-65498392D01*
X153144998Y-65494236D01*
X153110252Y-65480264D01*
X153085238Y-65478411D01*
X153071099Y-65488731D01*
X153070185Y-65490795D01*
X153071534Y-65506214D01*
X153073005Y-65507169D01*
X153087359Y-65516487D01*
X153112666Y-65519969D01*
X153130415Y-65523196D01*
X153135967Y-65534471D01*
X153136238Y-65535021D01*
X153136376Y-65538782D01*
X153136855Y-65541649D01*
X153138444Y-65551170D01*
X153141990Y-65551849D01*
X153150823Y-65552894D01*
X153155012Y-65557074D01*
X153157078Y-65559135D01*
X153172791Y-65571015D01*
X153186772Y-65575907D01*
X153187617Y-65576346D01*
X153200221Y-65582896D01*
X153214251Y-65593387D01*
X153220606Y-65598139D01*
X153243919Y-65618022D01*
X153247185Y-65621092D01*
X153254400Y-65627875D01*
X153266158Y-65638929D01*
X153283316Y-65657246D01*
X153291388Y-65669357D01*
X153291569Y-65670499D01*
X153284294Y-65674481D01*
X153265173Y-65672817D01*
X153238264Y-65666527D01*
X153207623Y-65656631D01*
X153177309Y-65644149D01*
X153167339Y-65639262D01*
X153149308Y-65629952D01*
X153164462Y-65645118D01*
X153166552Y-65647210D01*
X153171838Y-65651491D01*
X153180740Y-65658700D01*
X153189359Y-65661309D01*
X153196353Y-65665220D01*
X153203577Y-65678015D01*
X153206967Y-65691881D01*
X153206719Y-65694694D01*
X153211826Y-65700948D01*
X153213972Y-65701161D01*
X153222352Y-65706860D01*
X153222594Y-65708612D01*
X153214590Y-65711456D01*
X153193000Y-65713192D01*
X153161457Y-65713632D01*
X153135932Y-65713087D01*
X153087066Y-65710262D01*
X153049591Y-65705000D01*
X153017713Y-65696296D01*
X153000138Y-65689540D01*
X152947098Y-65667255D01*
X152917450Y-65654638D01*
X153121467Y-65654638D01*
X153133006Y-65656697D01*
X153137992Y-65655319D01*
X153141258Y-65651491D01*
X153132783Y-65650110D01*
X153121601Y-65651695D01*
X153121467Y-65654638D01*
X152917450Y-65654638D01*
X152908018Y-65650624D01*
X152895435Y-65645118D01*
X153101888Y-65645118D01*
X153106199Y-65649429D01*
X153110510Y-65645118D01*
X153106199Y-65640808D01*
X153101888Y-65645118D01*
X152895435Y-65645118D01*
X152880904Y-65638760D01*
X152863761Y-65630774D01*
X152858440Y-65627875D01*
X153127754Y-65627875D01*
X153132065Y-65632186D01*
X153136376Y-65627875D01*
X153132065Y-65623564D01*
X153127754Y-65627875D01*
X152858440Y-65627875D01*
X152854594Y-65625780D01*
X152851854Y-65623588D01*
X152842303Y-65616454D01*
X152823442Y-65604611D01*
X152814995Y-65599632D01*
X152814270Y-65599226D01*
X153016289Y-65599226D01*
X153022556Y-65605186D01*
X153024291Y-65606320D01*
X153040088Y-65613936D01*
X153047628Y-65612671D01*
X153046913Y-65610122D01*
X153093266Y-65610122D01*
X153095406Y-65612671D01*
X153099390Y-65617415D01*
X153103220Y-65620076D01*
X153109120Y-65621092D01*
X153107022Y-65616274D01*
X153098341Y-65607018D01*
X153093350Y-65608917D01*
X153093266Y-65610122D01*
X153046913Y-65610122D01*
X153045846Y-65606320D01*
X153033542Y-65598818D01*
X153025938Y-65597830D01*
X153016289Y-65599226D01*
X152814270Y-65599226D01*
X152803844Y-65593387D01*
X153058779Y-65593387D01*
X153063090Y-65597698D01*
X153067401Y-65593387D01*
X153063090Y-65589076D01*
X153058779Y-65593387D01*
X152803844Y-65593387D01*
X152795204Y-65588548D01*
X152787351Y-65586089D01*
X152788577Y-65592026D01*
X152789279Y-65593387D01*
X152791534Y-65597760D01*
X152795738Y-65602009D01*
X152806774Y-65613162D01*
X152821573Y-65619997D01*
X152841951Y-65628787D01*
X152852478Y-65637248D01*
X152864437Y-65645171D01*
X152870075Y-65644515D01*
X152876696Y-65646968D01*
X152877720Y-65652840D01*
X152883441Y-65667237D01*
X152897483Y-65685558D01*
X152900189Y-65688358D01*
X152913452Y-65704193D01*
X152917872Y-65714976D01*
X152917289Y-65716197D01*
X152907657Y-65715800D01*
X152901717Y-65711363D01*
X152885086Y-65702374D01*
X152878151Y-65701453D01*
X152876648Y-65704699D01*
X152888275Y-65712568D01*
X152897261Y-65717118D01*
X152915879Y-65727755D01*
X152924251Y-65736301D01*
X152923845Y-65738380D01*
X152924573Y-65743780D01*
X152928136Y-65744270D01*
X152939559Y-65750309D01*
X152956351Y-65764991D01*
X152967026Y-65776286D01*
X152973531Y-65783169D01*
X152986120Y-65799691D01*
X152988211Y-65804623D01*
X152989551Y-65807784D01*
X152982895Y-65811944D01*
X152972548Y-65810743D01*
X152960880Y-65810176D01*
X152960124Y-65814049D01*
X152971877Y-65820729D01*
X152980769Y-65821867D01*
X152997251Y-65829491D01*
X153006144Y-65849991D01*
X153007048Y-65861370D01*
X153003408Y-65871627D01*
X152991621Y-65871105D01*
X152970381Y-65859309D01*
X152938383Y-65835741D01*
X152937182Y-65834799D01*
X152905096Y-65810915D01*
X152901962Y-65809107D01*
X152939915Y-65809107D01*
X152940947Y-65810371D01*
X152946073Y-65809187D01*
X152946695Y-65804623D01*
X152943540Y-65797526D01*
X152940947Y-65798875D01*
X152939915Y-65809107D01*
X152901962Y-65809107D01*
X152884135Y-65798821D01*
X152873137Y-65798207D01*
X152870943Y-65808762D01*
X152872639Y-65817556D01*
X152872969Y-65834450D01*
X152862784Y-65838666D01*
X152842891Y-65830529D01*
X152814101Y-65810365D01*
X152778568Y-65779741D01*
X152764070Y-65765316D01*
X152834611Y-65765316D01*
X152840734Y-65772608D01*
X152844565Y-65775270D01*
X152850464Y-65776286D01*
X152848367Y-65771468D01*
X152839685Y-65762212D01*
X152834694Y-65764110D01*
X152834611Y-65765316D01*
X152764070Y-65765316D01*
X152724428Y-65725874D01*
X152676012Y-65668403D01*
X152628985Y-65602009D01*
X152757014Y-65602009D01*
X152761325Y-65606320D01*
X152765636Y-65602009D01*
X152761325Y-65597698D01*
X152757014Y-65602009D01*
X152628985Y-65602009D01*
X152628911Y-65601905D01*
X152616602Y-65582726D01*
X152664702Y-65582726D01*
X152666484Y-65589076D01*
X152678789Y-65596578D01*
X152686392Y-65597566D01*
X152696041Y-65596171D01*
X152693114Y-65593387D01*
X152739770Y-65593387D01*
X152742554Y-65596171D01*
X152744081Y-65597698D01*
X152748392Y-65593387D01*
X152744081Y-65589076D01*
X152739770Y-65593387D01*
X152693114Y-65593387D01*
X152689774Y-65590211D01*
X152688039Y-65589076D01*
X152672242Y-65581460D01*
X152664702Y-65582726D01*
X152616602Y-65582726D01*
X152611785Y-65575221D01*
X152705283Y-65575221D01*
X152712025Y-65580781D01*
X152718215Y-65583572D01*
X152729317Y-65583752D01*
X152731148Y-65580184D01*
X152724161Y-65572773D01*
X152718215Y-65571833D01*
X152706712Y-65573677D01*
X152705283Y-65575221D01*
X152611785Y-65575221D01*
X152609993Y-65572428D01*
X152584692Y-65533543D01*
X152584348Y-65533084D01*
X152637695Y-65533084D01*
X152639201Y-65541832D01*
X152644757Y-65550070D01*
X152657204Y-65561020D01*
X152663145Y-65563211D01*
X152663982Y-65557816D01*
X152658694Y-65550057D01*
X152834611Y-65550057D01*
X152841446Y-65556390D01*
X152843863Y-65557816D01*
X152857466Y-65565840D01*
X152875938Y-65574887D01*
X152890130Y-65580010D01*
X152891677Y-65580184D01*
X152892380Y-65580263D01*
X152892695Y-65576346D01*
X152883059Y-65567387D01*
X152868440Y-65556990D01*
X152853805Y-65548760D01*
X152845388Y-65546159D01*
X152835348Y-65548587D01*
X152834611Y-65550057D01*
X152658694Y-65550057D01*
X152656083Y-65546225D01*
X152644034Y-65534907D01*
X152637695Y-65533084D01*
X152584348Y-65533084D01*
X152564548Y-65506680D01*
X152564423Y-65506553D01*
X152670795Y-65506553D01*
X152676987Y-65516535D01*
X152690530Y-65528745D01*
X152703871Y-65536734D01*
X152706854Y-65537345D01*
X152860476Y-65537345D01*
X152867722Y-65544275D01*
X152878287Y-65545967D01*
X152900832Y-65550087D01*
X152913226Y-65555134D01*
X152933470Y-65561316D01*
X152944991Y-65561218D01*
X152947115Y-65557074D01*
X152934338Y-65549739D01*
X152920829Y-65544516D01*
X152889050Y-65534125D01*
X152870306Y-65530267D01*
X152861816Y-65532612D01*
X152861769Y-65532778D01*
X152860476Y-65537345D01*
X152706854Y-65537345D01*
X152707474Y-65532778D01*
X152696957Y-65521656D01*
X152695460Y-65520388D01*
X152689757Y-65515798D01*
X152902583Y-65515798D01*
X152914617Y-65523524D01*
X152925140Y-65528723D01*
X152949316Y-65538618D01*
X152968432Y-65544218D01*
X152972560Y-65544688D01*
X152973562Y-65541649D01*
X152961529Y-65533923D01*
X152957391Y-65531878D01*
X153112035Y-65531878D01*
X153113384Y-65534471D01*
X153123616Y-65535503D01*
X153124880Y-65534471D01*
X153123696Y-65529346D01*
X153119132Y-65528723D01*
X153112035Y-65531878D01*
X152957391Y-65531878D01*
X152951006Y-65528723D01*
X152926829Y-65518829D01*
X152907713Y-65513229D01*
X152903585Y-65512758D01*
X152902583Y-65515798D01*
X152689757Y-65515798D01*
X152679205Y-65507305D01*
X152672215Y-65503529D01*
X152670795Y-65506553D01*
X152564423Y-65506553D01*
X152546703Y-65488596D01*
X152537475Y-65482304D01*
X152587506Y-65482304D01*
X152588888Y-65485614D01*
X152600309Y-65493914D01*
X152602838Y-65494236D01*
X152607512Y-65488924D01*
X152607007Y-65487714D01*
X152715212Y-65487714D01*
X152716029Y-65488924D01*
X152722526Y-65498547D01*
X152736052Y-65509307D01*
X152742981Y-65511205D01*
X152744558Y-65507169D01*
X152955317Y-65507169D01*
X152959628Y-65511480D01*
X152963938Y-65507169D01*
X152959628Y-65502858D01*
X152955628Y-65506858D01*
X152955317Y-65507169D01*
X152744558Y-65507169D01*
X152744680Y-65506858D01*
X152735967Y-65498273D01*
X152719759Y-65487397D01*
X152715212Y-65487714D01*
X152607007Y-65487714D01*
X152606131Y-65485614D01*
X152594710Y-65477314D01*
X152592181Y-65476992D01*
X152587506Y-65482304D01*
X152537475Y-65482304D01*
X152528297Y-65476046D01*
X152522212Y-65472863D01*
X152513273Y-65466371D01*
X152610890Y-65466371D01*
X152614399Y-65476419D01*
X152626127Y-65485159D01*
X152629250Y-65485614D01*
X152632726Y-65480688D01*
X152627513Y-65472473D01*
X152616286Y-65463656D01*
X152610890Y-65466371D01*
X152513273Y-65466371D01*
X152486326Y-65446801D01*
X152470491Y-65423977D01*
X152544570Y-65423977D01*
X152549582Y-65429258D01*
X152563617Y-65432234D01*
X152576581Y-65428005D01*
X152581385Y-65419467D01*
X152580575Y-65417396D01*
X152588888Y-65417396D01*
X152594459Y-65419467D01*
X152623375Y-65430216D01*
X152656088Y-65439491D01*
X152690606Y-65445263D01*
X152694505Y-65445589D01*
X152717556Y-65446241D01*
X152728190Y-65442437D01*
X152728835Y-65440107D01*
X152761433Y-65440107D01*
X152765339Y-65446459D01*
X152778422Y-65455796D01*
X152801390Y-65467128D01*
X152815334Y-65472768D01*
X152834833Y-65480688D01*
X152841232Y-65483287D01*
X152861092Y-65492833D01*
X152866841Y-65496419D01*
X152877593Y-65498522D01*
X152883330Y-65489649D01*
X152882299Y-65473004D01*
X152874695Y-65465923D01*
X152907754Y-65465923D01*
X152913574Y-65478951D01*
X152913682Y-65479148D01*
X152920604Y-65489649D01*
X152921844Y-65491531D01*
X152926107Y-65489141D01*
X152927448Y-65483989D01*
X152937566Y-65469333D01*
X152945069Y-65465590D01*
X152947692Y-65462853D01*
X152935703Y-65460962D01*
X152931303Y-65460749D01*
X152912570Y-65460998D01*
X152907754Y-65465923D01*
X152874695Y-65465923D01*
X152869109Y-65460721D01*
X152848836Y-65456584D01*
X152840676Y-65457845D01*
X152827840Y-65459831D01*
X152829053Y-65453923D01*
X152832033Y-65450091D01*
X152836564Y-65441870D01*
X152829209Y-65439517D01*
X152813652Y-65440799D01*
X152792459Y-65440496D01*
X152779494Y-65435251D01*
X152778991Y-65434567D01*
X152768435Y-65428922D01*
X152764621Y-65430199D01*
X152761433Y-65440107D01*
X152728835Y-65440107D01*
X152731085Y-65431974D01*
X152731148Y-65428350D01*
X152728003Y-65414113D01*
X152717493Y-65413799D01*
X152708795Y-65419644D01*
X152715337Y-65426329D01*
X152721299Y-65432239D01*
X152712258Y-65433751D01*
X152696669Y-65429357D01*
X152692350Y-65425261D01*
X152681455Y-65420621D01*
X152658890Y-65417649D01*
X152637954Y-65417018D01*
X152588888Y-65417396D01*
X152580575Y-65417396D01*
X152580303Y-65416700D01*
X152569967Y-65408643D01*
X152554056Y-65414017D01*
X152551324Y-65415693D01*
X152544570Y-65423977D01*
X152470491Y-65423977D01*
X152469688Y-65422819D01*
X152461099Y-65403488D01*
X152459138Y-65392301D01*
X152524843Y-65392301D01*
X152531110Y-65398261D01*
X152532845Y-65399395D01*
X152548642Y-65407012D01*
X152556182Y-65405746D01*
X152554400Y-65399395D01*
X152542096Y-65391894D01*
X152534492Y-65390906D01*
X152524843Y-65392301D01*
X152459138Y-65392301D01*
X152458870Y-65390774D01*
X153110510Y-65390774D01*
X153117138Y-65399064D01*
X153119641Y-65399395D01*
X153124790Y-65394113D01*
X153123443Y-65390774D01*
X153115695Y-65382548D01*
X153114312Y-65382152D01*
X153110609Y-65388822D01*
X153110589Y-65389218D01*
X153110510Y-65390774D01*
X152458870Y-65390774D01*
X152458293Y-65387482D01*
X152459061Y-65382152D01*
X152575955Y-65382152D01*
X152583064Y-65389398D01*
X152591043Y-65390642D01*
X152601027Y-65389218D01*
X152594850Y-65383232D01*
X152593198Y-65382152D01*
X152580225Y-65374623D01*
X152576226Y-65376862D01*
X152575955Y-65382152D01*
X152459061Y-65382152D01*
X152461115Y-65367902D01*
X152467918Y-65342985D01*
X152469921Y-65337355D01*
X152577110Y-65337355D01*
X152586974Y-65347884D01*
X152606940Y-65360430D01*
X152627038Y-65370456D01*
X152637705Y-65372038D01*
X152641633Y-65368163D01*
X152688039Y-65368163D01*
X152693752Y-65375602D01*
X152700972Y-65382152D01*
X152711170Y-65388163D01*
X152713892Y-65380242D01*
X152713905Y-65378896D01*
X152707450Y-65366802D01*
X152700972Y-65364908D01*
X152689468Y-65366680D01*
X152688039Y-65368163D01*
X152641633Y-65368163D01*
X152644389Y-65365445D01*
X152646167Y-65362390D01*
X152657227Y-65352149D01*
X152801965Y-65352149D01*
X152802997Y-65353412D01*
X152808123Y-65352229D01*
X152808745Y-65347664D01*
X152864787Y-65347664D01*
X152866742Y-65355045D01*
X152872900Y-65356286D01*
X152883570Y-65352215D01*
X152905841Y-65352215D01*
X152909933Y-65353733D01*
X152933587Y-65355286D01*
X152953043Y-65353851D01*
X152959026Y-65351876D01*
X152949707Y-65350518D01*
X152933762Y-65350130D01*
X152913315Y-65350678D01*
X152905841Y-65352215D01*
X152883570Y-65352215D01*
X152884697Y-65351785D01*
X152886342Y-65347664D01*
X152880154Y-65339289D01*
X152878229Y-65339042D01*
X152866552Y-65345310D01*
X152864787Y-65347664D01*
X152808745Y-65347664D01*
X152805590Y-65340568D01*
X152802997Y-65341916D01*
X152801965Y-65352149D01*
X152657227Y-65352149D01*
X152659547Y-65350001D01*
X152668389Y-65347664D01*
X152685433Y-65342183D01*
X152696197Y-65334731D01*
X152713905Y-65334731D01*
X152718215Y-65339042D01*
X152722526Y-65334731D01*
X152718215Y-65330421D01*
X152713905Y-65334731D01*
X152696197Y-65334731D01*
X152698172Y-65333364D01*
X152713672Y-65323985D01*
X152731199Y-65327006D01*
X152735494Y-65328868D01*
X152750999Y-65334376D01*
X152755868Y-65330146D01*
X152912207Y-65330146D01*
X152920291Y-65333980D01*
X152929260Y-65334731D01*
X152942565Y-65335845D01*
X152976067Y-65335521D01*
X152981182Y-65335302D01*
X153013184Y-65334585D01*
X153037296Y-65335500D01*
X153049450Y-65337843D01*
X153050157Y-65338760D01*
X153058009Y-65342376D01*
X153078488Y-65345222D01*
X153104044Y-65346574D01*
X153154504Y-65347664D01*
X153157930Y-65347738D01*
X153127754Y-65330920D01*
X153107480Y-65321801D01*
X153084922Y-65317417D01*
X153054190Y-65316956D01*
X153033768Y-65317950D01*
X152997683Y-65319888D01*
X152964394Y-65321271D01*
X152949262Y-65321614D01*
X152941101Y-65321799D01*
X152941083Y-65321799D01*
X152921659Y-65323983D01*
X152915445Y-65327547D01*
X152912347Y-65329324D01*
X152912207Y-65330146D01*
X152755868Y-65330146D01*
X152756485Y-65329610D01*
X152756793Y-65324953D01*
X152793026Y-65324953D01*
X152794375Y-65327547D01*
X152804607Y-65328578D01*
X152805871Y-65327547D01*
X152804688Y-65322421D01*
X152800123Y-65321799D01*
X152793026Y-65324953D01*
X152756793Y-65324953D01*
X152757014Y-65321614D01*
X152751694Y-65307738D01*
X152744352Y-65304555D01*
X152735526Y-65298703D01*
X152736543Y-65289467D01*
X152736923Y-65287511D01*
X152757014Y-65287511D01*
X152764337Y-65294035D01*
X152776844Y-65295933D01*
X152796596Y-65299735D01*
X152806004Y-65305263D01*
X152819593Y-65310152D01*
X152823276Y-65308866D01*
X152851854Y-65308866D01*
X152856165Y-65313177D01*
X152860476Y-65308866D01*
X152869098Y-65308866D01*
X152873409Y-65313177D01*
X152877720Y-65308866D01*
X152877426Y-65308572D01*
X152900984Y-65308572D01*
X152903255Y-65308866D01*
X152909689Y-65309699D01*
X152933762Y-65307278D01*
X152966599Y-65302319D01*
X152989670Y-65297427D01*
X153001378Y-65293307D01*
X153000122Y-65290660D01*
X152984306Y-65290192D01*
X152970831Y-65290965D01*
X152940840Y-65294536D01*
X152916205Y-65299838D01*
X152906167Y-65303697D01*
X152900984Y-65308572D01*
X152877426Y-65308572D01*
X152873409Y-65304555D01*
X152869098Y-65308866D01*
X152860476Y-65308866D01*
X152856165Y-65304555D01*
X152851854Y-65308866D01*
X152823276Y-65308866D01*
X152833594Y-65305263D01*
X152856369Y-65293684D01*
X152868981Y-65287311D01*
X152890023Y-65279846D01*
X152899569Y-65278313D01*
X153028370Y-65278313D01*
X153039586Y-65283010D01*
X153046122Y-65281701D01*
X153057865Y-65274959D01*
X153052847Y-65270873D01*
X153041026Y-65270068D01*
X153029005Y-65273251D01*
X153028752Y-65275270D01*
X153028370Y-65278313D01*
X152899569Y-65278313D01*
X152901313Y-65278033D01*
X152904860Y-65275270D01*
X152893898Y-65269121D01*
X152889116Y-65267256D01*
X152885584Y-65265757D01*
X152920829Y-65265757D01*
X152925140Y-65270068D01*
X152929451Y-65265757D01*
X152927856Y-65264162D01*
X152943077Y-65264162D01*
X152943856Y-65265757D01*
X152944539Y-65267156D01*
X152962191Y-65268295D01*
X152966094Y-65267156D01*
X152966974Y-65264600D01*
X153086170Y-65264600D01*
X153087518Y-65267194D01*
X153097751Y-65268225D01*
X153099014Y-65267194D01*
X153098682Y-65265757D01*
X153119132Y-65265757D01*
X153120569Y-65267194D01*
X153123443Y-65270068D01*
X153127754Y-65265757D01*
X153153619Y-65265757D01*
X153157930Y-65270068D01*
X153162241Y-65265757D01*
X153161487Y-65265003D01*
X153174805Y-65265003D01*
X153175020Y-65265757D01*
X153175680Y-65268075D01*
X153192024Y-65271998D01*
X153195459Y-65272703D01*
X153220371Y-65274959D01*
X153223772Y-65275267D01*
X153237944Y-65268384D01*
X153239838Y-65260937D01*
X153232378Y-65254531D01*
X153211552Y-65255278D01*
X153188107Y-65260668D01*
X153174805Y-65265003D01*
X153161487Y-65265003D01*
X153157930Y-65261446D01*
X153153619Y-65265757D01*
X153127754Y-65265757D01*
X153123443Y-65261446D01*
X153119132Y-65265757D01*
X153098682Y-65265757D01*
X153097831Y-65262068D01*
X153093266Y-65261446D01*
X153087500Y-65264009D01*
X153086170Y-65264600D01*
X152966974Y-65264600D01*
X152967177Y-65264009D01*
X152955317Y-65262807D01*
X152943077Y-65264162D01*
X152927856Y-65264162D01*
X152925140Y-65261446D01*
X152920829Y-65265757D01*
X152885584Y-65265757D01*
X152868530Y-65258520D01*
X152860969Y-65254100D01*
X152981182Y-65254100D01*
X152988125Y-65259630D01*
X153000581Y-65258258D01*
X153018722Y-65254086D01*
X153026956Y-65252942D01*
X153030080Y-65247413D01*
X153028602Y-65244202D01*
X153018022Y-65236115D01*
X153008708Y-65239193D01*
X153007048Y-65245124D01*
X153000776Y-65250889D01*
X152994115Y-65249706D01*
X152983037Y-65249998D01*
X152981182Y-65254100D01*
X152860969Y-65254100D01*
X152855750Y-65251049D01*
X152855347Y-65250668D01*
X152842984Y-65244597D01*
X152839921Y-65248513D01*
X152834904Y-65254927D01*
X152833055Y-65263601D01*
X152829119Y-65275802D01*
X152818646Y-65280925D01*
X152796611Y-65281195D01*
X152793657Y-65281045D01*
X152771315Y-65281611D01*
X152758338Y-65285342D01*
X152757014Y-65287511D01*
X152736923Y-65287511D01*
X152738299Y-65280425D01*
X152733541Y-65285265D01*
X152719132Y-65292240D01*
X152692705Y-65293513D01*
X152689618Y-65293298D01*
X152664458Y-65292608D01*
X152654700Y-65296510D01*
X152658870Y-65306042D01*
X152663898Y-65311452D01*
X152666542Y-65319901D01*
X152653024Y-65323453D01*
X152624588Y-65322090D01*
X152613647Y-65324336D01*
X152614533Y-65330065D01*
X152613694Y-65336049D01*
X152598256Y-65334148D01*
X152598232Y-65334142D01*
X152580654Y-65332147D01*
X152577110Y-65337355D01*
X152469921Y-65337355D01*
X152477864Y-65315027D01*
X152491582Y-65291526D01*
X152512790Y-65267087D01*
X152532053Y-65248513D01*
X152808745Y-65248513D01*
X152813056Y-65252824D01*
X152817367Y-65248513D01*
X152813056Y-65244202D01*
X152808745Y-65248513D01*
X152532053Y-65248513D01*
X152534803Y-65245861D01*
X152542166Y-65238735D01*
X152775783Y-65238735D01*
X152777131Y-65241328D01*
X152787364Y-65242360D01*
X152788627Y-65241328D01*
X152788189Y-65239428D01*
X152864588Y-65239428D01*
X152867492Y-65241328D01*
X152872251Y-65244442D01*
X152876077Y-65246320D01*
X152898824Y-65251585D01*
X152923498Y-65246269D01*
X152951874Y-65237895D01*
X152982392Y-65231002D01*
X152983262Y-65230845D01*
X153002769Y-65225631D01*
X153011508Y-65219784D01*
X153011329Y-65218289D01*
X153001068Y-65215706D01*
X152981235Y-65217662D01*
X152958519Y-65222956D01*
X152939610Y-65230389D01*
X152937713Y-65231491D01*
X152922490Y-65235657D01*
X152898379Y-65237536D01*
X152891432Y-65237511D01*
X152870349Y-65237481D01*
X152864588Y-65239428D01*
X152788189Y-65239428D01*
X152787444Y-65236202D01*
X152782879Y-65235580D01*
X152775783Y-65238735D01*
X152542166Y-65238735D01*
X152558228Y-65223190D01*
X152896996Y-65223190D01*
X152900767Y-65226499D01*
X152904093Y-65226684D01*
X152921269Y-65221956D01*
X152934270Y-65214300D01*
X152934573Y-65214025D01*
X153239838Y-65214025D01*
X153244149Y-65218336D01*
X153248460Y-65214025D01*
X153244149Y-65209715D01*
X153239838Y-65214025D01*
X152934573Y-65214025D01*
X152944065Y-65205404D01*
X153144998Y-65205404D01*
X153149308Y-65209715D01*
X153153619Y-65205404D01*
X153149308Y-65201093D01*
X153145541Y-65204861D01*
X153144998Y-65205404D01*
X152944065Y-65205404D01*
X152944663Y-65204861D01*
X152940892Y-65201552D01*
X152937565Y-65201367D01*
X152920390Y-65206095D01*
X152907389Y-65213751D01*
X152896996Y-65223190D01*
X152558228Y-65223190D01*
X152587305Y-65195049D01*
X153020395Y-65195049D01*
X153030042Y-65203179D01*
X153040712Y-65201601D01*
X153046540Y-65192471D01*
X153170863Y-65192471D01*
X153177846Y-65200120D01*
X153183796Y-65201093D01*
X153195270Y-65196437D01*
X153196729Y-65192471D01*
X153189745Y-65184822D01*
X153183796Y-65183849D01*
X153172322Y-65188504D01*
X153171612Y-65190435D01*
X153170863Y-65192471D01*
X153046540Y-65192471D01*
X153047840Y-65190435D01*
X153046442Y-65184813D01*
X153034176Y-65175678D01*
X153022068Y-65180646D01*
X153021058Y-65182105D01*
X153020395Y-65195049D01*
X152587305Y-65195049D01*
X152616696Y-65166605D01*
X152920829Y-65166605D01*
X152927812Y-65174254D01*
X152933762Y-65175227D01*
X152945236Y-65179883D01*
X152946695Y-65183849D01*
X152952863Y-65192224D01*
X152954781Y-65192471D01*
X152960790Y-65185313D01*
X152961568Y-65175227D01*
X152958640Y-65169570D01*
X152998048Y-65169570D01*
X152998613Y-65170204D01*
X153012697Y-65173287D01*
X153026166Y-65169247D01*
X153038038Y-65163277D01*
X153035529Y-65161138D01*
X153018293Y-65161338D01*
X153000884Y-65163988D01*
X152998048Y-65169570D01*
X152958640Y-65169570D01*
X152954228Y-65161044D01*
X152940549Y-65157983D01*
X152925246Y-65161183D01*
X152920829Y-65166605D01*
X152616696Y-65166605D01*
X152623851Y-65159680D01*
X152633562Y-65149361D01*
X153067401Y-65149361D01*
X153070342Y-65157759D01*
X153071203Y-65157983D01*
X153078564Y-65151942D01*
X153080334Y-65149361D01*
X153079650Y-65141417D01*
X153076531Y-65140740D01*
X153067752Y-65146998D01*
X153067401Y-65149361D01*
X152633562Y-65149361D01*
X152666579Y-65114278D01*
X153097945Y-65114278D01*
X153099027Y-65125352D01*
X153101748Y-65127720D01*
X153109246Y-65125847D01*
X153110510Y-65119694D01*
X153107669Y-65107237D01*
X153100203Y-65110971D01*
X153097945Y-65114278D01*
X152666579Y-65114278D01*
X152678190Y-65101941D01*
X153084645Y-65101941D01*
X153088955Y-65106252D01*
X153093266Y-65101941D01*
X153088955Y-65097630D01*
X153084645Y-65101941D01*
X152678190Y-65101941D01*
X152698570Y-65080285D01*
X153116323Y-65080285D01*
X153118016Y-65083703D01*
X153131538Y-65082597D01*
X153150254Y-65076411D01*
X153159137Y-65069812D01*
X153156638Y-65065910D01*
X153144549Y-65067340D01*
X153129103Y-65072575D01*
X153116535Y-65080091D01*
X153116323Y-65080285D01*
X152698570Y-65080285D01*
X152702155Y-65076476D01*
X152753261Y-65015866D01*
X153189400Y-65015866D01*
X153190590Y-65024724D01*
X153195148Y-65030524D01*
X153203828Y-65035384D01*
X153205351Y-65031817D01*
X153200455Y-65018110D01*
X153199603Y-65017160D01*
X153190369Y-65015114D01*
X153189400Y-65015866D01*
X152753261Y-65015866D01*
X152767410Y-64999086D01*
X153205351Y-64999086D01*
X153211687Y-64999027D01*
X153222594Y-64994168D01*
X153236144Y-64985264D01*
X153239838Y-64980629D01*
X153233501Y-64980687D01*
X153222594Y-64985546D01*
X153209045Y-64994450D01*
X153205351Y-64999086D01*
X152767410Y-64999086D01*
X152768972Y-64997234D01*
X152783895Y-64976924D01*
X153188107Y-64976924D01*
X153194295Y-64985299D01*
X153196220Y-64985546D01*
X153207897Y-64979279D01*
X153209661Y-64976924D01*
X153207707Y-64969543D01*
X153201548Y-64968302D01*
X153189752Y-64972804D01*
X153188107Y-64976924D01*
X152783895Y-64976924D01*
X152807912Y-64944238D01*
X153235060Y-64944238D01*
X153236930Y-64947532D01*
X153249822Y-64944749D01*
X153269595Y-64936134D01*
X153277780Y-64925083D01*
X153271965Y-64915112D01*
X153262613Y-64910440D01*
X153261550Y-64910574D01*
X153260320Y-64912260D01*
X153256431Y-64917592D01*
X153245419Y-64931060D01*
X153235060Y-64944238D01*
X152807912Y-64944238D01*
X152823561Y-64922940D01*
X152830063Y-64912260D01*
X153213972Y-64912260D01*
X153218283Y-64916571D01*
X153222594Y-64912260D01*
X153218283Y-64907949D01*
X153213972Y-64912260D01*
X152830063Y-64912260D01*
X152840560Y-64895017D01*
X153610578Y-64895017D01*
X153614889Y-64899328D01*
X153618228Y-64895989D01*
X153637370Y-64895989D01*
X153638816Y-64903347D01*
X153642910Y-64905537D01*
X153652713Y-64916392D01*
X153654368Y-64923756D01*
X153656459Y-64931759D01*
X153659494Y-64927059D01*
X153658871Y-64914291D01*
X153657734Y-64912260D01*
X153679553Y-64912260D01*
X153683864Y-64916571D01*
X153688175Y-64912260D01*
X153683864Y-64907949D01*
X153679553Y-64912260D01*
X153657734Y-64912260D01*
X153651588Y-64901283D01*
X153642193Y-64894424D01*
X153640365Y-64895017D01*
X153637370Y-64895989D01*
X153618228Y-64895989D01*
X153619200Y-64895017D01*
X153614889Y-64890706D01*
X153610578Y-64895017D01*
X152840560Y-64895017D01*
X152845704Y-64886568D01*
X153319277Y-64886568D01*
X153320309Y-64887832D01*
X153325434Y-64886648D01*
X153326057Y-64882084D01*
X153323627Y-64876617D01*
X153586237Y-64876617D01*
X153587586Y-64879210D01*
X153597818Y-64880242D01*
X153599082Y-64879210D01*
X153598750Y-64877773D01*
X153619200Y-64877773D01*
X153620637Y-64879210D01*
X153623511Y-64882084D01*
X153627822Y-64877773D01*
X153623511Y-64873462D01*
X153619200Y-64877773D01*
X153598750Y-64877773D01*
X153597899Y-64874084D01*
X153593334Y-64873462D01*
X153586237Y-64876617D01*
X153323627Y-64876617D01*
X153322902Y-64874987D01*
X153320309Y-64876336D01*
X153319277Y-64886568D01*
X152845704Y-64886568D01*
X152865179Y-64854579D01*
X152866314Y-64852081D01*
X153595176Y-64852081D01*
X153596208Y-64853344D01*
X153601334Y-64852161D01*
X153601956Y-64847596D01*
X153598802Y-64840500D01*
X153596208Y-64841848D01*
X153596158Y-64842345D01*
X153595176Y-64852081D01*
X152866314Y-64852081D01*
X152874224Y-64834664D01*
X153550225Y-64834664D01*
X153557126Y-64846094D01*
X153563158Y-64847596D01*
X153575032Y-64842345D01*
X153572892Y-64830420D01*
X153570343Y-64827479D01*
X153557723Y-64821987D01*
X153550514Y-64830960D01*
X153550225Y-64834664D01*
X152874224Y-64834664D01*
X152893083Y-64793138D01*
X152897969Y-64776198D01*
X153469664Y-64776198D01*
X153477905Y-64790998D01*
X153481250Y-64795865D01*
X153495508Y-64812864D01*
X153506942Y-64821470D01*
X153508359Y-64821731D01*
X153509012Y-64817420D01*
X153532981Y-64817420D01*
X153537292Y-64821731D01*
X153541603Y-64817420D01*
X153576091Y-64817420D01*
X153580401Y-64821731D01*
X153582557Y-64819575D01*
X153636576Y-64819575D01*
X153640883Y-64831665D01*
X153645065Y-64838975D01*
X153651355Y-64845746D01*
X153653459Y-64837182D01*
X153653555Y-64832508D01*
X153650413Y-64817371D01*
X153645065Y-64813109D01*
X153662309Y-64813109D01*
X153668937Y-64821399D01*
X153671440Y-64821731D01*
X153676589Y-64816449D01*
X153675242Y-64813109D01*
X153667494Y-64804884D01*
X153666111Y-64804487D01*
X153662408Y-64811158D01*
X153662309Y-64813109D01*
X153645065Y-64813109D01*
X153637855Y-64817420D01*
X153636785Y-64818060D01*
X153636576Y-64819575D01*
X153582557Y-64819575D01*
X153584712Y-64817420D01*
X153580401Y-64813109D01*
X153576091Y-64817420D01*
X153541603Y-64817420D01*
X153537292Y-64813109D01*
X153534082Y-64816319D01*
X153532981Y-64817420D01*
X153509012Y-64817420D01*
X153509179Y-64816319D01*
X153501910Y-64803446D01*
X153490337Y-64788153D01*
X153488054Y-64785761D01*
X153529191Y-64785761D01*
X153529881Y-64791601D01*
X153539232Y-64803964D01*
X153550874Y-64808324D01*
X153558368Y-64802948D01*
X153558742Y-64800176D01*
X153627822Y-64800176D01*
X153632133Y-64804487D01*
X153636444Y-64800176D01*
X153632133Y-64795865D01*
X153628601Y-64799397D01*
X153627822Y-64800176D01*
X153558742Y-64800176D01*
X153558847Y-64799397D01*
X153554632Y-64791554D01*
X153653687Y-64791554D01*
X153657998Y-64795865D01*
X153662309Y-64791554D01*
X153657998Y-64787243D01*
X153653687Y-64791554D01*
X153554632Y-64791554D01*
X153554273Y-64790886D01*
X153548760Y-64792460D01*
X153542244Y-64792876D01*
X153544010Y-64784786D01*
X153544593Y-64774795D01*
X153537397Y-64775463D01*
X153529191Y-64785761D01*
X153488054Y-64785761D01*
X153478245Y-64775484D01*
X153469886Y-64770477D01*
X153469664Y-64776198D01*
X152897969Y-64776198D01*
X152902065Y-64761997D01*
X153584712Y-64761997D01*
X153591247Y-64772348D01*
X153605442Y-64780018D01*
X153619181Y-64781524D01*
X153623496Y-64778645D01*
X153622835Y-64770683D01*
X153619709Y-64770000D01*
X153611564Y-64763044D01*
X153610578Y-64757337D01*
X153604865Y-64748639D01*
X153597645Y-64749638D01*
X153586240Y-64757934D01*
X153584712Y-64761997D01*
X152902065Y-64761997D01*
X152903840Y-64755842D01*
X152910252Y-64729615D01*
X152916566Y-64711189D01*
X152919887Y-64705918D01*
X152930573Y-64706521D01*
X152953315Y-64711649D01*
X152983840Y-64720289D01*
X152994748Y-64723692D01*
X153036436Y-64734900D01*
X153081240Y-64743697D01*
X153119770Y-64748253D01*
X153121287Y-64748333D01*
X153152098Y-64749515D01*
X153169512Y-64748494D01*
X153177346Y-64744095D01*
X153179416Y-64735144D01*
X153179485Y-64730409D01*
X153179528Y-64730183D01*
X153638899Y-64730183D01*
X153639376Y-64739825D01*
X153644013Y-64749954D01*
X153651636Y-64760083D01*
X153653049Y-64755559D01*
X153650505Y-64747289D01*
X154000087Y-64747289D01*
X154001436Y-64749882D01*
X154011668Y-64750914D01*
X154012931Y-64749882D01*
X154011748Y-64744756D01*
X154007184Y-64744134D01*
X154000087Y-64747289D01*
X153650505Y-64747289D01*
X153648311Y-64740156D01*
X153641921Y-64730227D01*
X153638899Y-64730183D01*
X153179528Y-64730183D01*
X153182290Y-64715733D01*
X153194123Y-64710214D01*
X153206356Y-64709647D01*
X153224700Y-64707907D01*
X153226577Y-64705336D01*
X153532981Y-64705336D01*
X153537292Y-64709647D01*
X153541603Y-64705336D01*
X153537292Y-64701025D01*
X153532981Y-64705336D01*
X153226577Y-64705336D01*
X153230033Y-64700601D01*
X153228718Y-64692403D01*
X153228666Y-64686651D01*
X153500017Y-64686651D01*
X153503613Y-64698929D01*
X153510286Y-64701025D01*
X153521238Y-64696887D01*
X153940051Y-64696887D01*
X153941083Y-64698151D01*
X153946208Y-64696967D01*
X153946831Y-64692403D01*
X153943676Y-64685306D01*
X153941083Y-64686655D01*
X153940051Y-64696887D01*
X153521238Y-64696887D01*
X153525955Y-64695105D01*
X153528526Y-64688092D01*
X153584712Y-64688092D01*
X153589023Y-64692403D01*
X153593334Y-64688092D01*
X153589023Y-64683781D01*
X153584712Y-64688092D01*
X153528526Y-64688092D01*
X153530898Y-64681624D01*
X153528389Y-64674704D01*
X153517337Y-64668345D01*
X153505500Y-64674790D01*
X153500017Y-64686651D01*
X153228666Y-64686651D01*
X153228594Y-64678673D01*
X153232946Y-64675159D01*
X153238021Y-64668855D01*
X153236720Y-64662226D01*
X153238169Y-64651459D01*
X153247808Y-64649294D01*
X153264025Y-64643064D01*
X153269438Y-64628927D01*
X153264808Y-64619290D01*
X153577933Y-64619290D01*
X153578964Y-64620554D01*
X153584090Y-64619371D01*
X153584712Y-64614806D01*
X153581558Y-64607709D01*
X153578964Y-64609058D01*
X153577933Y-64619290D01*
X153264808Y-64619290D01*
X153263023Y-64615574D01*
X153259259Y-64606915D01*
X153270933Y-64600958D01*
X153272319Y-64600585D01*
X153288553Y-64592341D01*
X153289623Y-64582177D01*
X153278820Y-64574885D01*
X153269257Y-64563338D01*
X153271139Y-64543600D01*
X153274232Y-64537209D01*
X153619200Y-64537209D01*
X153625761Y-64545581D01*
X153627822Y-64545831D01*
X153636193Y-64539270D01*
X153636444Y-64537209D01*
X153629883Y-64528838D01*
X153627822Y-64528588D01*
X153619450Y-64535149D01*
X153619200Y-64537209D01*
X153274232Y-64537209D01*
X153277807Y-64529824D01*
X153279659Y-64516040D01*
X153276507Y-64494849D01*
X153270127Y-64472698D01*
X153262293Y-64456036D01*
X153256107Y-64450991D01*
X153241316Y-64454719D01*
X153223231Y-64463320D01*
X153209068Y-64472919D01*
X153205351Y-64478240D01*
X153198197Y-64484329D01*
X153189831Y-64485478D01*
X153172063Y-64489415D01*
X153166121Y-64493131D01*
X153151997Y-64501397D01*
X153136443Y-64507308D01*
X153121948Y-64510799D01*
X153121371Y-64506586D01*
X153126722Y-64499655D01*
X153133853Y-64488746D01*
X153127797Y-64485568D01*
X153123990Y-64485478D01*
X153113918Y-64482045D01*
X153114098Y-64478027D01*
X153108450Y-64474768D01*
X153089354Y-64472765D01*
X153060579Y-64472352D01*
X153052098Y-64472543D01*
X153021982Y-64472713D01*
X152989973Y-64471748D01*
X152959134Y-64469937D01*
X152932533Y-64467565D01*
X152913233Y-64464919D01*
X152904302Y-64462285D01*
X152908803Y-64459951D01*
X152912207Y-64459468D01*
X152929025Y-64457998D01*
X152945638Y-64458423D01*
X152968908Y-64461118D01*
X152985493Y-64463479D01*
X153002466Y-64465397D01*
X153004287Y-64462639D01*
X152994623Y-64454811D01*
X152983806Y-64445599D01*
X152984926Y-64444510D01*
X153013764Y-64444510D01*
X153014021Y-64454252D01*
X153014425Y-64454533D01*
X153025629Y-64454653D01*
X153027699Y-64452453D01*
X153038454Y-64448114D01*
X153056899Y-64446680D01*
X153110510Y-64446680D01*
X153114821Y-64450991D01*
X153119132Y-64446680D01*
X153127754Y-64446680D01*
X153132065Y-64450991D01*
X153136376Y-64446680D01*
X153132065Y-64442369D01*
X153127754Y-64446680D01*
X153119132Y-64446680D01*
X153114821Y-64442369D01*
X153110510Y-64446680D01*
X153056899Y-64446680D01*
X153059574Y-64446472D01*
X153066766Y-64446650D01*
X153087241Y-64446258D01*
X153097161Y-64443311D01*
X153097216Y-64441785D01*
X153086443Y-64437396D01*
X153078144Y-64437719D01*
X153060772Y-64436432D01*
X153049089Y-64429085D01*
X153047594Y-64419533D01*
X153051904Y-64415241D01*
X153057022Y-64409135D01*
X153053815Y-64408014D01*
X153041986Y-64413688D01*
X153026012Y-64427614D01*
X153025146Y-64428527D01*
X153013764Y-64444510D01*
X152984926Y-64444510D01*
X152986926Y-64442565D01*
X152992467Y-64442369D01*
X153004934Y-64436695D01*
X153007048Y-64430622D01*
X153012112Y-64417419D01*
X153024990Y-64397048D01*
X153033794Y-64385357D01*
X153058407Y-64352309D01*
X153086861Y-64310768D01*
X153110419Y-64274243D01*
X153696797Y-64274243D01*
X153701108Y-64278554D01*
X153705418Y-64274243D01*
X153701108Y-64269932D01*
X153696797Y-64274243D01*
X153110419Y-64274243D01*
X153115332Y-64266625D01*
X153126653Y-64247868D01*
X153705418Y-64247868D01*
X153711460Y-64255229D01*
X153714040Y-64256999D01*
X153721985Y-64256315D01*
X153722662Y-64253197D01*
X153716403Y-64244417D01*
X153714040Y-64244066D01*
X153705643Y-64247008D01*
X153705418Y-64247868D01*
X153126653Y-64247868D01*
X153132248Y-64238599D01*
X153750053Y-64238599D01*
X153751402Y-64241192D01*
X153761634Y-64242224D01*
X153762898Y-64241192D01*
X153761714Y-64236067D01*
X153757150Y-64235444D01*
X153750053Y-64238599D01*
X153132248Y-64238599D01*
X153139991Y-64225770D01*
X153153810Y-64200583D01*
X153158484Y-64188024D01*
X153696797Y-64188024D01*
X153698641Y-64199527D01*
X153700185Y-64200957D01*
X153705744Y-64194215D01*
X153708536Y-64188024D01*
X153708716Y-64176922D01*
X153705148Y-64175091D01*
X153697737Y-64182079D01*
X153696797Y-64188024D01*
X153158484Y-64188024D01*
X153164466Y-64171950D01*
X153172813Y-64131346D01*
X153179343Y-64076298D01*
X153179986Y-64069090D01*
X153185950Y-64012452D01*
X153193957Y-63965639D01*
X153205651Y-63923457D01*
X153222674Y-63880710D01*
X153246671Y-63832204D01*
X153266452Y-63795729D01*
X153287522Y-63755702D01*
X153306196Y-63716625D01*
X153320240Y-63683392D01*
X153326834Y-63663522D01*
X153337811Y-63632378D01*
X153352106Y-63616427D01*
X153355283Y-63614959D01*
X153371876Y-63610754D01*
X153378961Y-63611274D01*
X153387706Y-63607656D01*
X153404802Y-63595008D01*
X153422066Y-63580085D01*
X153451636Y-63557189D01*
X153476255Y-63546322D01*
X153482096Y-63545696D01*
X153494602Y-63546385D01*
X153500531Y-63551191D01*
X153501125Y-63564221D01*
X153497622Y-63589581D01*
X153496844Y-63594549D01*
X153493267Y-63625835D01*
X153494872Y-63643592D01*
X153499402Y-63649719D01*
X153505698Y-63663097D01*
X153505164Y-63689247D01*
X153505084Y-63689853D01*
X153504883Y-63719562D01*
X153511235Y-63743635D01*
X153511416Y-63743978D01*
X153517855Y-63772490D01*
X153514699Y-63790727D01*
X153509031Y-63819872D01*
X153507116Y-63844956D01*
X153503225Y-63872200D01*
X153493776Y-63900669D01*
X153492960Y-63902427D01*
X153484367Y-63928301D01*
X153484898Y-63947478D01*
X153493794Y-63956641D01*
X153505033Y-63955142D01*
X153521830Y-63950686D01*
X153548614Y-63945975D01*
X153567469Y-63943470D01*
X153614889Y-63937990D01*
X153619935Y-63881948D01*
X153625878Y-63841660D01*
X153635829Y-63797372D01*
X153643758Y-63770541D01*
X153655626Y-63726489D01*
X153658088Y-63693036D01*
X153657337Y-63687465D01*
X153656868Y-63666011D01*
X153662829Y-63652927D01*
X153672431Y-63651333D01*
X153681117Y-63660880D01*
X153696040Y-63673115D01*
X153714893Y-63672830D01*
X153729965Y-63660226D01*
X153730313Y-63659594D01*
X153748339Y-63639238D01*
X153772226Y-63628344D01*
X153795526Y-63629607D01*
X153798634Y-63631045D01*
X153811027Y-63635727D01*
X153816719Y-63629310D01*
X153819111Y-63613189D01*
X153823865Y-63590433D01*
X153831187Y-63583936D01*
X153839875Y-63593131D01*
X153848729Y-63617451D01*
X153851423Y-63628436D01*
X153856784Y-63661260D01*
X153857944Y-63696225D01*
X153854586Y-63736687D01*
X153846395Y-63786003D01*
X153833053Y-63847530D01*
X153829275Y-63863543D01*
X153820200Y-63906030D01*
X153814412Y-63942521D01*
X153812506Y-63968806D01*
X153813226Y-63976944D01*
X153826836Y-64000007D01*
X153855658Y-64015412D01*
X153885697Y-64021652D01*
X153904211Y-64028742D01*
X153907958Y-64042505D01*
X153897270Y-64061286D01*
X153873493Y-64082678D01*
X153844516Y-64107678D01*
X153831968Y-64127510D01*
X153835835Y-64142207D01*
X153847525Y-64149167D01*
X153868718Y-64160431D01*
X153874242Y-64170247D01*
X153864479Y-64175909D01*
X153843832Y-64175346D01*
X153835896Y-64176086D01*
X153836359Y-64176922D01*
X153840715Y-64184788D01*
G37*
%TD*%
M02*
