%TF.GenerationSoftware,KiCad,Pcbnew,8.0.7*%
%TF.CreationDate,2025-03-15T06:07:22+02:00*%
%TF.ProjectId,power_supply,706f7765-725f-4737-9570-706c792e6b69,v1.0*%
%TF.SameCoordinates,Original*%
%TF.FileFunction,Legend,Bot*%
%TF.FilePolarity,Positive*%
%FSLAX46Y46*%
G04 Gerber Fmt 4.6, Leading zero omitted, Abs format (unit mm)*
G04 Created by KiCad (PCBNEW 8.0.7) date 2025-03-15 06:07:22*
%MOMM*%
%LPD*%
G01*
G04 APERTURE LIST*
%ADD10C,0.000000*%
G04 APERTURE END LIST*
D10*
%TO.C,G\u002A\u002A\u002A*%
G36*
X155261733Y-82914067D02*
G01*
X155219400Y-82956400D01*
X155177066Y-82914067D01*
X155219400Y-82871734D01*
X155261733Y-82914067D01*
G37*
G36*
X155431066Y-82914067D02*
G01*
X155388733Y-82956400D01*
X155346400Y-82914067D01*
X155388733Y-82871734D01*
X155431066Y-82914067D01*
G37*
G36*
X155431066Y-85200067D02*
G01*
X155388733Y-85242400D01*
X155346400Y-85200067D01*
X155388733Y-85157734D01*
X155431066Y-85200067D01*
G37*
G36*
X156108400Y-82490734D02*
G01*
X156066066Y-82533067D01*
X156023733Y-82490734D01*
X156066066Y-82448400D01*
X156108400Y-82490734D01*
G37*
G36*
X156447066Y-83422067D02*
G01*
X156404733Y-83464400D01*
X156362400Y-83422067D01*
X156404733Y-83379734D01*
X156447066Y-83422067D01*
G37*
G36*
X156701066Y-87401400D02*
G01*
X156658733Y-87443734D01*
X156616400Y-87401400D01*
X156658733Y-87359067D01*
X156701066Y-87401400D01*
G37*
G36*
X157039733Y-82660067D02*
G01*
X156997400Y-82702400D01*
X156955066Y-82660067D01*
X156997400Y-82617734D01*
X157039733Y-82660067D01*
G37*
G36*
X162119733Y-86724067D02*
G01*
X162077400Y-86766400D01*
X162035066Y-86724067D01*
X162077400Y-86681734D01*
X162119733Y-86724067D01*
G37*
G36*
X162543066Y-81136067D02*
G01*
X162500733Y-81178400D01*
X162458400Y-81136067D01*
X162500733Y-81093734D01*
X162543066Y-81136067D01*
G37*
G36*
X163897733Y-86808734D02*
G01*
X163855400Y-86851067D01*
X163813066Y-86808734D01*
X163855400Y-86766400D01*
X163897733Y-86808734D01*
G37*
G36*
X156609716Y-91119678D02*
G01*
X156603729Y-91205552D01*
X156565247Y-91230803D01*
X156548469Y-91200849D01*
X156558563Y-91068525D01*
X156589038Y-91029336D01*
X156609716Y-91119678D01*
G37*
G36*
X157625716Y-91119678D02*
G01*
X157619729Y-91205552D01*
X157581247Y-91230803D01*
X157564469Y-91200849D01*
X157574563Y-91068525D01*
X157605038Y-91029336D01*
X157625716Y-91119678D01*
G37*
G36*
X158641716Y-91119678D02*
G01*
X158635729Y-91205552D01*
X158597247Y-91230803D01*
X158580469Y-91200849D01*
X158590563Y-91068525D01*
X158621038Y-91029336D01*
X158641716Y-91119678D01*
G37*
G36*
X159742382Y-91119678D02*
G01*
X159736396Y-91205552D01*
X159697914Y-91230803D01*
X159681136Y-91200849D01*
X159691230Y-91068525D01*
X159721705Y-91029336D01*
X159742382Y-91119678D01*
G37*
G36*
X161774382Y-91119678D02*
G01*
X161768396Y-91205552D01*
X161729914Y-91230803D01*
X161713136Y-91200849D01*
X161723230Y-91068525D01*
X161753705Y-91029336D01*
X161774382Y-91119678D01*
G37*
G36*
X162953031Y-91084400D02*
G01*
X162941229Y-91200870D01*
X162910327Y-91190234D01*
X162899144Y-91151909D01*
X162910327Y-90978567D01*
X162939726Y-90964205D01*
X162953031Y-91084400D01*
G37*
G36*
X156062682Y-91014062D02*
G01*
X156108400Y-91126734D01*
X156098848Y-91185157D01*
X156023733Y-91253734D01*
X155984784Y-91239405D01*
X155939066Y-91126734D01*
X155948619Y-91068310D01*
X156023733Y-90999734D01*
X156062682Y-91014062D01*
G37*
G36*
X156358335Y-91014326D02*
G01*
X156418844Y-91126734D01*
X156405873Y-91185661D01*
X156305955Y-91253734D01*
X156253576Y-91239141D01*
X156193066Y-91126734D01*
X156206038Y-91067806D01*
X156305955Y-90999734D01*
X156358335Y-91014326D01*
G37*
G36*
X156832190Y-91013957D02*
G01*
X156870400Y-91126734D01*
X156862498Y-91184956D01*
X156799844Y-91253734D01*
X156767498Y-91239510D01*
X156729289Y-91126734D01*
X156737191Y-91068511D01*
X156799844Y-90999734D01*
X156832190Y-91013957D01*
G37*
G36*
X157078682Y-91014062D02*
G01*
X157124400Y-91126734D01*
X157114848Y-91185157D01*
X157039733Y-91253734D01*
X157000784Y-91239405D01*
X156955066Y-91126734D01*
X156964619Y-91068310D01*
X157039733Y-90999734D01*
X157078682Y-91014062D01*
G37*
G36*
X157332682Y-91014062D02*
G01*
X157378400Y-91126734D01*
X157368848Y-91185157D01*
X157293733Y-91253734D01*
X157254784Y-91239405D01*
X157209066Y-91126734D01*
X157218619Y-91068310D01*
X157293733Y-90999734D01*
X157332682Y-91014062D01*
G37*
G36*
X157835373Y-91014731D02*
G01*
X157917018Y-91126734D01*
X157931595Y-91191311D01*
X157892801Y-91253734D01*
X157852760Y-91238736D01*
X157771115Y-91126734D01*
X157756538Y-91062156D01*
X157795332Y-90999734D01*
X157835373Y-91014731D01*
G37*
G36*
X158179349Y-91014062D02*
G01*
X158225066Y-91126734D01*
X158215514Y-91185157D01*
X158140400Y-91253734D01*
X158101451Y-91239405D01*
X158055733Y-91126734D01*
X158065285Y-91068310D01*
X158140400Y-90999734D01*
X158179349Y-91014062D01*
G37*
G36*
X158460952Y-91013771D02*
G01*
X158479066Y-91126734D01*
X158469828Y-91185117D01*
X158397057Y-91253734D01*
X158362022Y-91235755D01*
X158363782Y-91126734D01*
X158391198Y-91065939D01*
X158445792Y-90999734D01*
X158460952Y-91013771D01*
G37*
G36*
X158864190Y-91013957D02*
G01*
X158902400Y-91126734D01*
X158894498Y-91184956D01*
X158831844Y-91253734D01*
X158799498Y-91239510D01*
X158761289Y-91126734D01*
X158769191Y-91068511D01*
X158831844Y-90999734D01*
X158864190Y-91013957D01*
G37*
G36*
X159195349Y-91014062D02*
G01*
X159241066Y-91126734D01*
X159231514Y-91185157D01*
X159156400Y-91253734D01*
X159117451Y-91239405D01*
X159071733Y-91126734D01*
X159081285Y-91068310D01*
X159156400Y-90999734D01*
X159195349Y-91014062D01*
G37*
G36*
X159450758Y-91014041D02*
G01*
X159495066Y-91126734D01*
X159491389Y-91184596D01*
X159461792Y-91253734D01*
X159439877Y-91238135D01*
X159379782Y-91126734D01*
X159366472Y-91061795D01*
X159413057Y-90999734D01*
X159450758Y-91014041D01*
G37*
G36*
X160020675Y-91017505D02*
G01*
X160033684Y-91126734D01*
X160001898Y-91186355D01*
X159909341Y-91253734D01*
X159874639Y-91239475D01*
X159833733Y-91126734D01*
X159848145Y-91067565D01*
X159958076Y-90999734D01*
X160020675Y-91017505D01*
G37*
G36*
X160296016Y-91014062D02*
G01*
X160341733Y-91126734D01*
X160332181Y-91185157D01*
X160257066Y-91253734D01*
X160218117Y-91239405D01*
X160172400Y-91126734D01*
X160181952Y-91068310D01*
X160257066Y-90999734D01*
X160296016Y-91014062D01*
G37*
G36*
X160550016Y-91014062D02*
G01*
X160595733Y-91126734D01*
X160586181Y-91185157D01*
X160511066Y-91253734D01*
X160472117Y-91239405D01*
X160426400Y-91126734D01*
X160435952Y-91068310D01*
X160511066Y-90999734D01*
X160550016Y-91014062D01*
G37*
G36*
X160853023Y-91014185D02*
G01*
X160906178Y-91126734D01*
X160894938Y-91185392D01*
X160807400Y-91253734D01*
X160761776Y-91239282D01*
X160708622Y-91126734D01*
X160719862Y-91068075D01*
X160807400Y-90999734D01*
X160853023Y-91014185D01*
G37*
G36*
X161220578Y-91014695D02*
G01*
X161303684Y-91126734D01*
X161313492Y-91197636D01*
X161228076Y-91253734D01*
X161170146Y-91239013D01*
X161103733Y-91126734D01*
X161112222Y-91068443D01*
X161179341Y-90999734D01*
X161220578Y-91014695D01*
G37*
G36*
X161566016Y-91014062D02*
G01*
X161611733Y-91126734D01*
X161602181Y-91185157D01*
X161527066Y-91253734D01*
X161488117Y-91239405D01*
X161442400Y-91126734D01*
X161451952Y-91068310D01*
X161527066Y-90999734D01*
X161566016Y-91014062D01*
G37*
G36*
X161996857Y-91013957D02*
G01*
X162035066Y-91126734D01*
X162027165Y-91184956D01*
X161964511Y-91253734D01*
X161932165Y-91239510D01*
X161893955Y-91126734D01*
X161901857Y-91068511D01*
X161964511Y-90999734D01*
X161996857Y-91013957D01*
G37*
G36*
X162412682Y-91014062D02*
G01*
X162458400Y-91126734D01*
X162448848Y-91185157D01*
X162373733Y-91253734D01*
X162334784Y-91239405D01*
X162289066Y-91126734D01*
X162298619Y-91068310D01*
X162373733Y-90999734D01*
X162412682Y-91014062D01*
G37*
G36*
X162729294Y-91014485D02*
G01*
X162797066Y-91126734D01*
X162782315Y-91185961D01*
X162670066Y-91253734D01*
X162610839Y-91238982D01*
X162543066Y-91126734D01*
X162557818Y-91067506D01*
X162670066Y-90999734D01*
X162729294Y-91014485D01*
G37*
G36*
X163259349Y-91014062D02*
G01*
X163305066Y-91126734D01*
X163295514Y-91185157D01*
X163220400Y-91253734D01*
X163181451Y-91239405D01*
X163135733Y-91126734D01*
X163145285Y-91068310D01*
X163220400Y-90999734D01*
X163259349Y-91014062D01*
G37*
G36*
X163513349Y-91014062D02*
G01*
X163559066Y-91126734D01*
X163549514Y-91185157D01*
X163474400Y-91253734D01*
X163435451Y-91239405D01*
X163389733Y-91126734D01*
X163399285Y-91068310D01*
X163474400Y-90999734D01*
X163513349Y-91014062D01*
G37*
G36*
X163767349Y-91014062D02*
G01*
X163813066Y-91126734D01*
X163803514Y-91185157D01*
X163728400Y-91253734D01*
X163689451Y-91239405D01*
X163643733Y-91126734D01*
X163653285Y-91068310D01*
X163728400Y-90999734D01*
X163767349Y-91014062D01*
G37*
G36*
X157084379Y-89308893D02*
G01*
X157151703Y-89342898D01*
X157189249Y-89443999D01*
X157205531Y-89646257D01*
X157209066Y-89983734D01*
X157208443Y-90162318D01*
X157199942Y-90431613D01*
X157174667Y-90581795D01*
X157124102Y-90646926D01*
X157039733Y-90661067D01*
X156995087Y-90658574D01*
X156927763Y-90624569D01*
X156890218Y-90523468D01*
X156873935Y-90321210D01*
X156870400Y-89983734D01*
X156871023Y-89805149D01*
X156879524Y-89535854D01*
X156904800Y-89385672D01*
X156955364Y-89320541D01*
X157039733Y-89306400D01*
X157084379Y-89308893D01*
G37*
G36*
X162993078Y-89339034D02*
G01*
X163029846Y-89434865D01*
X163046900Y-89637251D01*
X163051066Y-89977525D01*
X163051066Y-90661067D01*
X162748525Y-90661067D01*
X162609569Y-90655663D01*
X162488742Y-90613749D01*
X162474518Y-90512900D01*
X162508346Y-90435109D01*
X162628893Y-90364552D01*
X162639501Y-90364033D01*
X162709149Y-90312071D01*
X162746642Y-90153245D01*
X162759939Y-89856709D01*
X162761493Y-89763284D01*
X162779681Y-89506626D01*
X162825128Y-89371736D01*
X162908105Y-89321516D01*
X162929765Y-89318420D01*
X162993078Y-89339034D01*
G37*
G36*
X162373733Y-89988844D02*
G01*
X162373733Y-90671289D01*
X162056233Y-90645011D01*
X162049558Y-90644445D01*
X161815556Y-90593043D01*
X161738733Y-90491734D01*
X161761281Y-90424928D01*
X161886900Y-90389612D01*
X161970031Y-90383976D01*
X162035066Y-90283778D01*
X162019428Y-90221132D01*
X161908066Y-90153067D01*
X161834006Y-90121638D01*
X161781066Y-89983734D01*
X161800781Y-89887580D01*
X161881871Y-89835567D01*
X161941351Y-89823451D01*
X162015080Y-89708567D01*
X162014017Y-89621702D01*
X161914275Y-89560400D01*
X161849321Y-89544172D01*
X161781066Y-89433400D01*
X161781602Y-89421834D01*
X161858227Y-89333940D01*
X162077400Y-89306400D01*
X162373733Y-89306400D01*
X162373733Y-89988844D01*
G37*
G36*
X156684258Y-89890149D02*
G01*
X156690812Y-90154131D01*
X156684069Y-90407840D01*
X156663772Y-90551467D01*
X156554040Y-90634514D01*
X156299580Y-90645052D01*
X156152554Y-90626241D01*
X156008316Y-90561304D01*
X155954345Y-90428234D01*
X155969214Y-90280639D01*
X156095456Y-90237734D01*
X156196055Y-90256106D01*
X156298840Y-90343387D01*
X156314821Y-90347064D01*
X156335418Y-90230332D01*
X156349784Y-90004720D01*
X156350089Y-89841162D01*
X156326759Y-89637603D01*
X156279288Y-89560400D01*
X156257708Y-89563103D01*
X156193066Y-89645067D01*
X156176578Y-89685789D01*
X156060178Y-89729734D01*
X155976169Y-89696218D01*
X155954345Y-89539234D01*
X155989837Y-89426073D01*
X156096012Y-89363718D01*
X156320066Y-89348734D01*
X156658733Y-89348734D01*
X156684258Y-89890149D01*
G37*
G36*
X163813066Y-89977845D02*
G01*
X163812233Y-90187323D01*
X163802696Y-90442912D01*
X163774456Y-90585920D01*
X163717688Y-90652498D01*
X163622566Y-90678799D01*
X163582904Y-90682830D01*
X163381052Y-90656186D01*
X163208707Y-90575776D01*
X163135733Y-90471367D01*
X163167366Y-90434057D01*
X163305066Y-90407067D01*
X163403814Y-90383495D01*
X163474400Y-90280067D01*
X163459648Y-90220840D01*
X163347400Y-90153067D01*
X163273339Y-90121638D01*
X163220400Y-89983734D01*
X163243972Y-89884986D01*
X163347400Y-89814400D01*
X163406151Y-89805507D01*
X163471719Y-89726492D01*
X163431481Y-89615425D01*
X163296548Y-89533640D01*
X163176811Y-89474040D01*
X163181041Y-89397414D01*
X163304193Y-89333280D01*
X163521730Y-89306400D01*
X163813066Y-89306400D01*
X163813066Y-89977845D01*
G37*
G36*
X157741034Y-89322836D02*
G01*
X158098066Y-89348734D01*
X158123591Y-89890149D01*
X158130373Y-90154162D01*
X158124330Y-90405609D01*
X158105082Y-90546316D01*
X158072692Y-90596494D01*
X157931390Y-90661067D01*
X157896696Y-90655536D01*
X157838897Y-90587075D01*
X157809764Y-90414605D01*
X157801733Y-90105737D01*
X157794259Y-89847978D01*
X157765301Y-89649110D01*
X157717066Y-89602734D01*
X157679388Y-89679560D01*
X157645471Y-89885217D01*
X157632400Y-90164272D01*
X157630468Y-90342886D01*
X157613346Y-90547411D01*
X157569984Y-90636953D01*
X157490175Y-90646093D01*
X157413452Y-90601715D01*
X157350465Y-90451502D01*
X157313854Y-90165489D01*
X157305367Y-89998454D01*
X157308048Y-89708965D01*
X157331879Y-89504607D01*
X157337861Y-89481717D01*
X157394590Y-89362787D01*
X157511053Y-89317791D01*
X157741034Y-89322836D01*
G37*
G36*
X159061707Y-90154162D02*
G01*
X159055663Y-90405609D01*
X159036415Y-90546316D01*
X159032098Y-90555525D01*
X158905028Y-90632399D01*
X158660932Y-90661067D01*
X158644578Y-90661033D01*
X158460171Y-90647559D01*
X158346485Y-90588591D01*
X158289908Y-90453364D01*
X158276824Y-90211114D01*
X158288964Y-89936403D01*
X158563733Y-89936403D01*
X158566920Y-90040396D01*
X158596959Y-90255067D01*
X158648400Y-90364734D01*
X158677604Y-90363056D01*
X158718391Y-90243760D01*
X158733066Y-89988730D01*
X158727135Y-89831643D01*
X158696457Y-89636598D01*
X158648400Y-89560400D01*
X158623778Y-89576713D01*
X158580759Y-89710923D01*
X158563733Y-89936403D01*
X158288964Y-89936403D01*
X158293619Y-89831077D01*
X158325226Y-89297421D01*
X158677313Y-89323077D01*
X159029400Y-89348734D01*
X159054925Y-89890149D01*
X159057457Y-89988730D01*
X159061707Y-90154162D01*
G37*
G36*
X159985461Y-90004900D02*
G01*
X159991698Y-90186232D01*
X159993200Y-90446070D01*
X159973195Y-90588667D01*
X159923841Y-90648755D01*
X159837295Y-90661067D01*
X159777000Y-90655803D01*
X159685088Y-90581910D01*
X159654383Y-90385900D01*
X159644365Y-90110734D01*
X159590230Y-90363700D01*
X159515155Y-90544670D01*
X159384895Y-90645784D01*
X159353344Y-90650252D01*
X159290638Y-90630886D01*
X159258235Y-90539592D01*
X159249687Y-90344019D01*
X159258547Y-90011818D01*
X159270706Y-89687400D01*
X159495066Y-89687400D01*
X159504619Y-89745824D01*
X159579733Y-89814400D01*
X159618682Y-89800072D01*
X159664400Y-89687400D01*
X159654848Y-89628977D01*
X159579733Y-89560400D01*
X159540784Y-89574728D01*
X159495066Y-89687400D01*
X159270706Y-89687400D01*
X159283400Y-89348734D01*
X159622066Y-89348734D01*
X159960733Y-89348734D01*
X159973496Y-89687400D01*
X159985461Y-90004900D01*
G37*
G36*
X161611733Y-89933337D02*
G01*
X161611654Y-89965017D01*
X161602430Y-90269286D01*
X161580874Y-90499745D01*
X161551259Y-90608652D01*
X161542799Y-90615149D01*
X161407179Y-90645175D01*
X161191426Y-90643930D01*
X161076542Y-90629758D01*
X160922774Y-90565211D01*
X160865011Y-90428234D01*
X160863537Y-90415809D01*
X160906344Y-90271599D01*
X161024035Y-90232316D01*
X161146920Y-90323781D01*
X161188890Y-90376434D01*
X161255874Y-90368957D01*
X161291046Y-90221561D01*
X161287251Y-89953136D01*
X161275781Y-89822097D01*
X161246605Y-89661654D01*
X161190631Y-89622014D01*
X161084495Y-89670622D01*
X161071517Y-89678176D01*
X160936723Y-89729295D01*
X160873949Y-89666234D01*
X160848584Y-89623945D01*
X160715678Y-89560400D01*
X160699787Y-89561887D01*
X160637846Y-89623758D01*
X160605228Y-89797225D01*
X160595733Y-90110734D01*
X160591188Y-90394446D01*
X160569132Y-90567513D01*
X160518040Y-90643915D01*
X160426400Y-90661067D01*
X160339104Y-90646295D01*
X160285852Y-90574613D01*
X160262344Y-90408565D01*
X160257066Y-90110734D01*
X160246935Y-89844140D01*
X160216643Y-89638158D01*
X160172400Y-89560400D01*
X160135428Y-89548183D01*
X160087733Y-89439448D01*
X160120672Y-89380894D01*
X160240354Y-89343325D01*
X160474229Y-89323977D01*
X160849733Y-89318495D01*
X161611733Y-89318495D01*
X161611733Y-89933337D01*
G37*
G36*
X155264185Y-84071048D02*
G01*
X155350648Y-84403671D01*
X155426619Y-84494567D01*
X155533063Y-84512023D01*
X155570753Y-84494894D01*
X155573758Y-84539678D01*
X155581563Y-84650752D01*
X155713612Y-84805635D01*
X155942976Y-84973475D01*
X156237419Y-85131001D01*
X156564701Y-85254944D01*
X156671252Y-85285100D01*
X157157200Y-85390220D01*
X157692925Y-85463474D01*
X158251288Y-85505600D01*
X158805150Y-85517339D01*
X159327372Y-85499430D01*
X159715155Y-85460257D01*
X160990824Y-85460257D01*
X161022236Y-85513218D01*
X161146066Y-85581067D01*
X161155013Y-85580734D01*
X161272355Y-85504332D01*
X161324322Y-85353572D01*
X161279430Y-85214897D01*
X161228972Y-85185415D01*
X161101936Y-85211665D01*
X161002275Y-85320519D01*
X160990824Y-85460257D01*
X159715155Y-85460257D01*
X159790815Y-85452614D01*
X160168341Y-85377629D01*
X160432812Y-85275216D01*
X160557087Y-85146115D01*
X160605455Y-85038767D01*
X160799992Y-84852730D01*
X161067544Y-84773280D01*
X161360912Y-84808328D01*
X161632900Y-84965786D01*
X161687219Y-85029690D01*
X161769410Y-85270723D01*
X161765874Y-85353572D01*
X161757213Y-85556497D01*
X161649266Y-85816228D01*
X161517713Y-85927614D01*
X161265653Y-86002197D01*
X160992031Y-85988789D01*
X160770061Y-85881920D01*
X160711621Y-85838481D01*
X160550636Y-85800050D01*
X160297727Y-85838414D01*
X160292012Y-85839734D01*
X160001636Y-85881301D01*
X159589282Y-85908556D01*
X159100461Y-85921580D01*
X158580688Y-85920456D01*
X158075477Y-85905264D01*
X157630340Y-85876088D01*
X157290791Y-85833008D01*
X157212165Y-85818543D01*
X156907260Y-85761680D01*
X156707824Y-85719414D01*
X156563164Y-85677620D01*
X156422586Y-85622174D01*
X156235400Y-85538953D01*
X156149190Y-85501695D01*
X155930597Y-85419216D01*
X155794624Y-85385411D01*
X155757959Y-85378929D01*
X155736121Y-85312956D01*
X155745255Y-85292714D01*
X155699719Y-85242400D01*
X155689190Y-85241566D01*
X155552816Y-85163958D01*
X155375627Y-84994340D01*
X155198479Y-84781307D01*
X155062229Y-84573452D01*
X155007733Y-84419369D01*
X154988852Y-84298242D01*
X154923066Y-84226400D01*
X154842397Y-84289363D01*
X154842680Y-84458549D01*
X154912414Y-84699747D01*
X155038672Y-84978737D01*
X155208532Y-85261298D01*
X155409068Y-85513210D01*
X155589715Y-85670486D01*
X155953569Y-85903308D01*
X156403089Y-86128926D01*
X156891150Y-86324429D01*
X157370626Y-86466905D01*
X157438308Y-86481976D01*
X157854300Y-86551513D01*
X158331236Y-86603308D01*
X158778802Y-86627089D01*
X159146800Y-86630067D01*
X159392758Y-86618805D01*
X159554071Y-86583969D01*
X159673287Y-86516307D01*
X159792954Y-86406567D01*
X159861144Y-86344574D01*
X160147106Y-86193365D01*
X160429086Y-86190455D01*
X160671576Y-86329181D01*
X160839072Y-86602879D01*
X160847826Y-86628720D01*
X160879094Y-86829900D01*
X160885476Y-86870964D01*
X160807426Y-87105016D01*
X160688880Y-87286034D01*
X160576348Y-87387067D01*
X160411334Y-87428341D01*
X160114896Y-87418241D01*
X159871082Y-87319426D01*
X159805326Y-87282267D01*
X159524353Y-87216119D01*
X159085033Y-87192426D01*
X158689609Y-87174454D01*
X158023778Y-87090062D01*
X157338800Y-86948987D01*
X156951488Y-86837878D01*
X160101921Y-86837878D01*
X160121285Y-86981728D01*
X160257066Y-87020400D01*
X160264644Y-87020355D01*
X160395460Y-86978498D01*
X160411122Y-86829900D01*
X160366596Y-86711471D01*
X160257066Y-86639400D01*
X160172211Y-86680959D01*
X160103011Y-86829900D01*
X160101921Y-86837878D01*
X156951488Y-86837878D01*
X156697263Y-86764948D01*
X156161757Y-86551665D01*
X155729531Y-86325326D01*
X155394670Y-86098786D01*
X155118268Y-85836358D01*
X154847614Y-85495684D01*
X154771961Y-85387365D01*
X154652372Y-85166724D01*
X154597546Y-84933253D01*
X154584400Y-84609213D01*
X154585596Y-84490470D01*
X154612361Y-84192587D01*
X154672332Y-84013032D01*
X154941156Y-84013032D01*
X154951289Y-84113511D01*
X154976755Y-84126757D01*
X155007733Y-84057067D01*
X155001623Y-84012245D01*
X154951289Y-84000622D01*
X154941156Y-84013032D01*
X154672332Y-84013032D01*
X154692859Y-83951575D01*
X154851458Y-83682915D01*
X154969989Y-83515083D01*
X155125321Y-83326974D01*
X155231971Y-83236194D01*
X155277687Y-83205476D01*
X155290006Y-83095695D01*
X155271494Y-83057136D01*
X155297379Y-83055009D01*
X155324516Y-83062589D01*
X155464205Y-83019946D01*
X155661434Y-82906842D01*
X155772017Y-82834789D01*
X155971520Y-82728460D01*
X156057608Y-82720370D01*
X156019243Y-82806066D01*
X155845390Y-82981091D01*
X155530766Y-83325367D01*
X155327146Y-83703212D01*
X155266578Y-84057067D01*
X155264185Y-84071048D01*
G37*
G36*
X163488191Y-82449559D02*
G01*
X163805078Y-82658133D01*
X164082558Y-82824921D01*
X164471460Y-83135249D01*
X164802792Y-83485066D01*
X165025742Y-83825768D01*
X165092051Y-84002798D01*
X165158969Y-84407639D01*
X165150059Y-84606856D01*
X165140462Y-84821453D01*
X165035943Y-85166996D01*
X164968082Y-85286188D01*
X164678899Y-85667111D01*
X164321648Y-86010122D01*
X163957210Y-86253881D01*
X163601400Y-86431598D01*
X163820048Y-86239166D01*
X164102992Y-85955701D01*
X164371115Y-85561582D01*
X164488615Y-85181088D01*
X164452129Y-84827457D01*
X164258293Y-84513930D01*
X164026186Y-84268734D01*
X163971378Y-84873925D01*
X163929311Y-85209748D01*
X163749024Y-85942575D01*
X163462652Y-86586013D01*
X163081778Y-87110937D01*
X163055657Y-87140047D01*
X162949728Y-87293400D01*
X162936992Y-87386104D01*
X162951090Y-87411445D01*
X162884939Y-87443734D01*
X162824739Y-87462942D01*
X162656404Y-87569090D01*
X162450535Y-87737100D01*
X162266602Y-87888820D01*
X161696711Y-88237395D01*
X161037956Y-88499506D01*
X160341733Y-88652833D01*
X160286262Y-88658811D01*
X159932081Y-88664222D01*
X159498607Y-88634100D01*
X159056050Y-88575134D01*
X158674620Y-88494012D01*
X158622773Y-88478355D01*
X158316845Y-88350349D01*
X157955453Y-88157083D01*
X157580484Y-87925706D01*
X157233824Y-87683368D01*
X156957358Y-87457216D01*
X156792972Y-87274400D01*
X156763770Y-87224999D01*
X156748514Y-87168137D01*
X156829903Y-87217970D01*
X157020256Y-87380234D01*
X157108628Y-87457138D01*
X157333535Y-87629262D01*
X157502682Y-87704676D01*
X157659860Y-87705662D01*
X157681536Y-87706671D01*
X157680022Y-87773843D01*
X157718547Y-87847773D01*
X157886464Y-87941891D01*
X158147248Y-88043118D01*
X158464043Y-88138899D01*
X158799995Y-88216674D01*
X159118248Y-88263886D01*
X159184170Y-88269342D01*
X159895284Y-88240528D01*
X160575029Y-88061771D01*
X161204140Y-87750546D01*
X161763349Y-87324330D01*
X162233392Y-86800598D01*
X162595004Y-86196827D01*
X162828918Y-85530491D01*
X162915868Y-84819067D01*
X162914169Y-84498132D01*
X162887974Y-84128736D01*
X162826092Y-83883223D01*
X162720442Y-83734996D01*
X162562944Y-83657459D01*
X162470550Y-83640208D01*
X162193614Y-83615945D01*
X161810708Y-83600809D01*
X161362554Y-83594756D01*
X160889869Y-83597743D01*
X160433374Y-83609725D01*
X160033787Y-83630659D01*
X159731827Y-83660502D01*
X159489512Y-83705785D01*
X159455789Y-83712087D01*
X159276094Y-83786176D01*
X159197114Y-83892834D01*
X159148940Y-84003539D01*
X158950112Y-84212227D01*
X158680910Y-84311843D01*
X158392381Y-84290650D01*
X158135576Y-84136910D01*
X158029197Y-83981264D01*
X157977748Y-83700421D01*
X158004109Y-83597513D01*
X158419438Y-83597513D01*
X158422834Y-83755042D01*
X158495259Y-83848018D01*
X158648657Y-83881484D01*
X158783338Y-83790223D01*
X158789574Y-83705785D01*
X158702945Y-83591182D01*
X158568039Y-83520481D01*
X158451208Y-83543059D01*
X158419438Y-83597513D01*
X158004109Y-83597513D01*
X158050784Y-83415301D01*
X158241777Y-83184440D01*
X158352565Y-83106398D01*
X158474834Y-83058886D01*
X158622162Y-83078747D01*
X158860615Y-83163776D01*
X158929914Y-83188573D01*
X159237893Y-83261449D01*
X159478904Y-83260977D01*
X159646506Y-83230091D01*
X160063803Y-83184699D01*
X160560709Y-83158046D01*
X161078934Y-83151480D01*
X161560186Y-83166347D01*
X161946176Y-83203992D01*
X161993304Y-83211182D01*
X162289581Y-83250406D01*
X162507515Y-83269197D01*
X162602817Y-83263538D01*
X162602822Y-83263482D01*
X163834057Y-83263482D01*
X163852985Y-83443234D01*
X163872363Y-83499023D01*
X164005652Y-83712495D01*
X164201403Y-83915536D01*
X164265336Y-83970593D01*
X164463556Y-84168901D01*
X164592921Y-84338870D01*
X164617342Y-84390864D01*
X164690422Y-84625172D01*
X164743551Y-84903734D01*
X164792804Y-85284734D01*
X164851145Y-84988400D01*
X164876107Y-84606856D01*
X164772086Y-84195857D01*
X164519388Y-83788614D01*
X164109400Y-83366293D01*
X164066620Y-83329426D01*
X163904486Y-83225781D01*
X163834057Y-83263482D01*
X162602822Y-83263482D01*
X162606889Y-83220568D01*
X162549249Y-83074980D01*
X162437771Y-82887079D01*
X162303721Y-82714281D01*
X162179211Y-82629597D01*
X161868340Y-82535072D01*
X161414717Y-82475066D01*
X160832415Y-82452087D01*
X160752419Y-82451798D01*
X160438472Y-82458628D01*
X160235493Y-82487832D01*
X160094979Y-82551087D01*
X159968430Y-82660067D01*
X159711591Y-82826598D01*
X159397168Y-82861680D01*
X159090572Y-82739933D01*
X158975633Y-82604366D01*
X158903841Y-82349895D01*
X158907112Y-82306780D01*
X159292700Y-82306780D01*
X159380337Y-82399060D01*
X159506331Y-82438400D01*
X159629882Y-82418799D01*
X159664400Y-82279067D01*
X159639016Y-82173863D01*
X159504125Y-82109734D01*
X159449356Y-82115537D01*
X159324601Y-82191482D01*
X159292700Y-82306780D01*
X158907112Y-82306780D01*
X158924898Y-82072337D01*
X159042522Y-81841234D01*
X159229208Y-81731496D01*
X159487495Y-81687884D01*
X159741894Y-81714401D01*
X159918400Y-81813400D01*
X159966430Y-81853732D01*
X160118314Y-81904782D01*
X160379802Y-81932221D01*
X160780430Y-81940400D01*
X160951015Y-81938572D01*
X161242807Y-81925040D01*
X161435445Y-81901202D01*
X161493856Y-81870495D01*
X161491026Y-81866669D01*
X161386753Y-81790685D01*
X161176237Y-81667503D01*
X160901483Y-81521846D01*
X160489186Y-81350515D01*
X159791604Y-81199565D01*
X159061856Y-81192881D01*
X158338762Y-81333319D01*
X158271478Y-81354598D01*
X157950474Y-81476510D01*
X157655372Y-81617470D01*
X157419442Y-81758144D01*
X157275955Y-81879196D01*
X157258181Y-81961292D01*
X157257209Y-81985744D01*
X157151211Y-81995433D01*
X157056382Y-82011991D01*
X157010100Y-82136545D01*
X157008656Y-82215765D01*
X156974637Y-82242193D01*
X156896255Y-82241113D01*
X156779611Y-82328603D01*
X156686806Y-82453607D01*
X156673811Y-82557464D01*
X156688122Y-82591444D01*
X156634251Y-82586433D01*
X156585538Y-82585074D01*
X156467010Y-82690115D01*
X156323738Y-82905464D01*
X156173510Y-83198558D01*
X156034115Y-83536836D01*
X155923343Y-83887734D01*
X155913460Y-83924993D01*
X155844820Y-84150820D01*
X155795147Y-84257807D01*
X155774614Y-84223022D01*
X155778183Y-84120532D01*
X155834993Y-83774517D01*
X155946147Y-83363069D01*
X156093612Y-82947043D01*
X156259353Y-82587294D01*
X156400298Y-82357678D01*
X156638886Y-82026314D01*
X156889267Y-81724934D01*
X156904503Y-81708137D01*
X157089742Y-81485078D01*
X157205734Y-81309799D01*
X157227934Y-81218971D01*
X157211219Y-81193284D01*
X157269601Y-81210323D01*
X157314777Y-81218099D01*
X157483204Y-81170760D01*
X157698493Y-81053641D01*
X157969737Y-80892011D01*
X158669441Y-80606090D01*
X159424016Y-80456485D01*
X160199031Y-80445016D01*
X160960052Y-80573501D01*
X161672649Y-80843758D01*
X161720294Y-80868695D01*
X161982854Y-81026958D01*
X162280927Y-81231609D01*
X162578916Y-81455067D01*
X162841226Y-81669750D01*
X163032258Y-81848075D01*
X163116418Y-81962462D01*
X163242918Y-82200276D01*
X163320442Y-82279067D01*
X163488191Y-82449559D01*
G37*
%TD*%
M02*
