%TF.GenerationSoftware,KiCad,Pcbnew,8.0.7*%
%TF.CreationDate,2025-03-15T06:07:21+02:00*%
%TF.ProjectId,power_supply,706f7765-725f-4737-9570-706c792e6b69,v1.0*%
%TF.SameCoordinates,Original*%
%TF.FileFunction,Copper,L2,Bot*%
%TF.FilePolarity,Positive*%
%FSLAX46Y46*%
G04 Gerber Fmt 4.6, Leading zero omitted, Abs format (unit mm)*
G04 Created by KiCad (PCBNEW 8.0.7) date 2025-03-15 06:07:21*
%MOMM*%
%LPD*%
G01*
G04 APERTURE LIST*
G04 Aperture macros list*
%AMRoundRect*
0 Rectangle with rounded corners*
0 $1 Rounding radius*
0 $2 $3 $4 $5 $6 $7 $8 $9 X,Y pos of 4 corners*
0 Add a 4 corners polygon primitive as box body*
4,1,4,$2,$3,$4,$5,$6,$7,$8,$9,$2,$3,0*
0 Add four circle primitives for the rounded corners*
1,1,$1+$1,$2,$3*
1,1,$1+$1,$4,$5*
1,1,$1+$1,$6,$7*
1,1,$1+$1,$8,$9*
0 Add four rect primitives between the rounded corners*
20,1,$1+$1,$2,$3,$4,$5,0*
20,1,$1+$1,$4,$5,$6,$7,0*
20,1,$1+$1,$6,$7,$8,$9,0*
20,1,$1+$1,$8,$9,$2,$3,0*%
G04 Aperture macros list end*
%TA.AperFunction,ComponentPad*%
%ADD10R,1.200000X1.200000*%
%TD*%
%TA.AperFunction,ComponentPad*%
%ADD11C,1.200000*%
%TD*%
%TA.AperFunction,ComponentPad*%
%ADD12C,1.600000*%
%TD*%
%TA.AperFunction,ComponentPad*%
%ADD13O,1.600000X1.600000*%
%TD*%
%TA.AperFunction,ComponentPad*%
%ADD14R,0.850000X0.850000*%
%TD*%
%TA.AperFunction,ComponentPad*%
%ADD15O,0.850000X0.850000*%
%TD*%
%TA.AperFunction,ComponentPad*%
%ADD16C,4.400000*%
%TD*%
%TA.AperFunction,ComponentPad*%
%ADD17R,3.500000X3.500000*%
%TD*%
%TA.AperFunction,ComponentPad*%
%ADD18RoundRect,0.750000X-1.000000X0.750000X-1.000000X-0.750000X1.000000X-0.750000X1.000000X0.750000X0*%
%TD*%
%TA.AperFunction,ComponentPad*%
%ADD19RoundRect,0.875000X-0.875000X0.875000X-0.875000X-0.875000X0.875000X-0.875000X0.875000X0.875000X0*%
%TD*%
%TA.AperFunction,ComponentPad*%
%ADD20R,2.000000X1.905000*%
%TD*%
%TA.AperFunction,ComponentPad*%
%ADD21O,2.000000X1.905000*%
%TD*%
%TA.AperFunction,ComponentPad*%
%ADD22R,2.286000X2.286000*%
%TD*%
%TA.AperFunction,ComponentPad*%
%ADD23C,2.286000*%
%TD*%
%TA.AperFunction,ComponentPad*%
%ADD24R,1.800000X1.800000*%
%TD*%
%TA.AperFunction,ComponentPad*%
%ADD25C,1.800000*%
%TD*%
%TA.AperFunction,ComponentPad*%
%ADD26RoundRect,0.250000X0.450000X-0.450000X0.450000X0.450000X-0.450000X0.450000X-0.450000X-0.450000X0*%
%TD*%
%TA.AperFunction,ComponentPad*%
%ADD27C,1.400000*%
%TD*%
%TA.AperFunction,ComponentPad*%
%ADD28R,2.600000X2.600000*%
%TD*%
%TA.AperFunction,ComponentPad*%
%ADD29C,2.600000*%
%TD*%
%TA.AperFunction,ViaPad*%
%ADD30C,0.600000*%
%TD*%
%TA.AperFunction,Conductor*%
%ADD31C,0.200000*%
%TD*%
G04 APERTURE END LIST*
D10*
%TO.P,C2,1*%
%TO.N,/VCC*%
X169175400Y-78333600D03*
D11*
%TO.P,C2,2*%
%TO.N,GND*%
X167675400Y-78333600D03*
%TD*%
D12*
%TO.P,R2,1*%
%TO.N,Net-(U2-ADJ)*%
X171907200Y-87325200D03*
D13*
%TO.P,R2,2*%
%TO.N,GND*%
X179527200Y-87325200D03*
%TD*%
D14*
%TO.P,J2,1,Pin_1*%
%TO.N,/3.3V*%
X180390800Y-77012800D03*
D15*
%TO.P,J2,2,Pin_2*%
%TO.N,Net-(J1-Pin_1)*%
X181390800Y-77012800D03*
%TO.P,J2,3,Pin_3*%
%TO.N,/5V*%
X182390800Y-77012800D03*
%TD*%
D10*
%TO.P,C1,1*%
%TO.N,/5V*%
X175119000Y-78282800D03*
D11*
%TO.P,C1,2*%
%TO.N,GND*%
X173619000Y-78282800D03*
%TD*%
D16*
%TO.P,H3,1*%
%TO.N,N/C*%
X174548800Y-103682800D03*
%TD*%
D17*
%TO.P,J3,1*%
%TO.N,Net-(J3-Pad1)*%
X137609500Y-77932800D03*
D18*
%TO.P,J3,2*%
%TO.N,Net-(J3-Pad2)*%
X137609500Y-71932800D03*
D19*
%TO.P,J3,3*%
%TO.N,N/C*%
X132909500Y-74932800D03*
%TD*%
D20*
%TO.P,U1,1,VI*%
%TO.N,/VCC*%
X164063800Y-96977200D03*
D21*
%TO.P,U1,2,GND*%
%TO.N,GND*%
X164063800Y-94437200D03*
%TO.P,U1,3,VO*%
%TO.N,/5V*%
X164063800Y-91897200D03*
%TD*%
D22*
%TO.P,T1,1*%
%TO.N,Net-(D1-Pad3)*%
X150208650Y-87680800D03*
D23*
%TO.P,T1,3*%
%TO.N,Net-(SW1-A-Pad4)*%
X140683650Y-87680800D03*
%TO.P,T1,4*%
%TO.N,Net-(D1-Pad3)*%
X140683650Y-98348800D03*
%TO.P,T1,6*%
%TO.N,GND*%
X150208650Y-98348800D03*
%TD*%
D24*
%TO.P,D2,1,K*%
%TO.N,GND*%
X166411000Y-101193600D03*
D25*
%TO.P,D2,2,A*%
%TO.N,Net-(D2-A)*%
X166411000Y-103733600D03*
%TD*%
D12*
%TO.P,R1,1*%
%TO.N,/3.3V*%
X179476400Y-97637600D03*
D13*
%TO.P,R1,2*%
%TO.N,Net-(U2-ADJ)*%
X171856400Y-97637600D03*
%TD*%
D26*
%TO.P,SW1,1,A*%
%TO.N,Net-(D1-Pad3)*%
X151316300Y-79817600D03*
D27*
%TO.P,SW1,2,B*%
%TO.N,Net-(J3-Pad1)*%
X151316300Y-77317600D03*
%TO.P,SW1,3,C*%
%TO.N,Net-(D1-Pad3)*%
X151316300Y-74817600D03*
%TO.P,SW1,4,A*%
%TO.N,Net-(SW1-A-Pad4)*%
X154616300Y-74817600D03*
%TO.P,SW1,5,B*%
%TO.N,Net-(J3-Pad2)*%
X154616300Y-77317600D03*
%TO.P,SW1,6,C*%
%TO.N,GND*%
X154616300Y-79817600D03*
%TD*%
D12*
%TO.P,R3,1*%
%TO.N,/VCC*%
X179578000Y-92608400D03*
D13*
%TO.P,R3,2*%
%TO.N,Net-(D2-A)*%
X171958000Y-92608400D03*
%TD*%
D28*
%TO.P,J1,1,Pin_1*%
%TO.N,Net-(J1-Pin_1)*%
X187914200Y-68986200D03*
D29*
%TO.P,J1,2,Pin_2*%
%TO.N,GND*%
X182834200Y-68986200D03*
%TD*%
D16*
%TO.P,H2,1*%
%TO.N,N/C*%
X177292000Y-67868800D03*
%TD*%
D10*
%TO.P,C3,1*%
%TO.N,/3.3V*%
X163231800Y-78536800D03*
D11*
%TO.P,C3,2*%
%TO.N,GND*%
X161731800Y-78536800D03*
%TD*%
D16*
%TO.P,H1,1*%
%TO.N,N/C*%
X147370800Y-68021200D03*
%TD*%
D30*
%TO.N,/VCC*%
X183134000Y-86258400D03*
%TO.N,/3.3V*%
X176022000Y-75539600D03*
%TO.N,Net-(U2-ADJ)*%
X178308000Y-84124800D03*
%TD*%
D31*
%TO.N,/5V*%
X182390800Y-77012800D02*
X182390800Y-77613840D01*
X175119000Y-78282800D02*
X175119000Y-80842000D01*
X182390800Y-77613840D02*
X181721840Y-78282800D01*
X175119000Y-80842000D02*
X164063800Y-91897200D01*
X181721840Y-78282800D02*
X175119000Y-78282800D01*
%TO.N,/VCC*%
X179578000Y-92608400D02*
X183134000Y-89052400D01*
X183134000Y-89052400D02*
X183134000Y-86258400D01*
%TO.N,/3.3V*%
X176022000Y-75539600D02*
X166229000Y-75539600D01*
X166229000Y-75539600D02*
X163231800Y-78536800D01*
%TO.N,Net-(J3-Pad1)*%
X138224700Y-77317600D02*
X137609500Y-77932800D01*
X151316300Y-77317600D02*
X138224700Y-77317600D01*
%TO.N,Net-(J3-Pad2)*%
X154616300Y-77317600D02*
X153616300Y-76317600D01*
X141994300Y-76317600D02*
X137609500Y-71932800D01*
X153616300Y-76317600D02*
X141994300Y-76317600D01*
%TO.N,Net-(U2-ADJ)*%
X171907200Y-87325200D02*
X170332400Y-88900000D01*
X172059600Y-87325200D02*
X175260000Y-84124800D01*
X171907200Y-87325200D02*
X172059600Y-87325200D01*
X170332400Y-88900000D02*
X170332400Y-96113600D01*
X175260000Y-84124800D02*
X178308000Y-84124800D01*
X170332400Y-96113600D02*
X171856400Y-97637600D01*
%TD*%
M02*
